<?xml version="1.0" standalone="no"?>
<!DOCTYPE svg PUBLIC "-//W3C//DTD SVG 20010904//EN"
 "http://www.w3.org/TR/2001/REC-SVG-20010904/DTD/svg10.dtd">
<svg version="1.0" xmlns="http://www.w3.org/2000/svg"
 width="1322.000000pt" height="600.000000pt" viewBox="0 0 1322.000000 600.000000"
 preserveAspectRatio="xMidYMid meet">
<metadata>
Created by potrace 1.16, written by Peter Selinger 2001-2019
</metadata>
<g transform="translate(0.000000,600.000000) scale(0.100000,-0.100000)"
fill="#000000" stroke="none">
<path d="M3371 5581 c-7 -5 -11 -13 -8 -18 3 -5 -3 -9 -14 -9 -10 0 -19 4 -19
8 0 4 -7 8 -16 8 -14 0 -14 -2 -1 -15 9 -8 13 -23 11 -33 -3 -10 5 -27 20 -41
26 -25 34 -51 16 -51 -5 0 -7 7 -4 15 5 11 2 13 -12 8 -13 -5 -15 -3 -9 7 5 9
4 11 -3 6 -7 -4 -12 -2 -12 5 0 7 -2 10 -5 7 -3 -3 1 -18 10 -34 16 -32 4 -57
-17 -36 -15 15 -48 16 -48 1 0 -6 7 -9 15 -5 9 3 15 -1 15 -11 0 -12 -7 -14
-30 -9 l-30 6 15 -36 c8 -19 10 -32 5 -29 -6 3 -10 0 -10 -7 0 -9 -3 -9 -10 2
-5 8 -10 11 -11 5 0 -5 -2 -20 -3 -32 -2 -13 2 -23 8 -24 6 0 2 -4 -9 -9 -18
-8 -18 -9 -2 -9 25 -1 13 -18 -18 -23 -19 -4 -25 -1 -25 12 0 10 6 23 14 29
17 15 26 56 15 73 -9 14 -12 7 -13 -42 -1 -16 -8 -26 -21 -29 -11 -2 -33 -14
-48 -27 -30 -25 -47 -30 -47 -14 0 6 7 10 16 10 8 0 12 5 8 11 -4 7 -16 2 -33
-14 -38 -36 -68 -50 -77 -35 -4 7 -3 8 4 4 11 -7 13 -3 16 37 1 6 -5 11 -11
10 -7 -2 -13 1 -13 7 0 6 5 10 10 10 6 0 10 7 10 15 0 8 4 15 10 15 5 0 7 7 4
15 -4 8 -10 15 -15 15 -4 0 -6 -7 -3 -15 4 -9 0 -15 -10 -15 -19 0 -20 11 -5
63 8 32 13 36 25 26 11 -9 14 -8 14 5 0 18 -21 21 -37 5 -8 -8 -19 -6 -39 8
-16 10 -26 14 -23 8 3 -5 -3 -18 -13 -28 -18 -17 -19 -16 -28 8 -12 31 -34 34
-25 4 5 -15 4 -19 -4 -15 -6 4 -11 14 -11 22 0 8 -7 14 -15 14 -17 0 -19 21
-5 69 7 26 6 37 -6 49 -14 14 -15 8 -12 -60 2 -64 1 -75 -12 -72 -47 11 -63
13 -50 8 37 -16 40 -26 15 -46 -14 -11 -32 -17 -40 -14 -8 3 -17 1 -20 -4 -3
-6 -16 -5 -32 1 -14 5 -28 7 -31 5 -3 -3 3 -8 12 -12 24 -9 19 -24 -8 -24 -14
0 -27 -4 -30 -8 -3 -5 15 -7 40 -6 27 2 42 -1 39 -7 -4 -5 -10 -7 -15 -4 -5 3
-11 1 -15 -5 -3 -5 -17 -7 -31 -4 -20 5 -23 3 -18 -11 5 -11 9 -13 14 -6 4 8
13 4 26 -10 16 -19 16 -21 2 -16 -9 3 -29 2 -45 -3 -27 -8 -28 -8 -3 -10 25
-1 25 -1 -5 -15 -25 -11 -26 -14 -10 -15 11 -1 29 -1 40 0 16 1 18 -1 8 -11
-15 -15 -17 -43 -3 -34 6 3 10 1 10 -5 0 -8 -9 -10 -27 -5 -22 5 -25 4 -15 -8
14 -16 6 -27 -19 -27 -10 0 -21 -5 -25 -11 -5 -8 1 -10 18 -6 18 5 25 3 25 -8
0 -8 -6 -15 -14 -15 -7 0 -13 -3 -14 -7 0 -5 -2 -19 -4 -33 -2 -14 -1 -19 1
-12 9 20 23 13 17 -9 -4 -16 -11 -19 -29 -15 -12 3 -26 2 -29 -4 -3 -6 4 -10
17 -10 18 0 20 -2 8 -10 -13 -8 -12 -10 3 -10 11 0 15 -4 11 -11 -4 -7 8 -3
27 7 19 10 35 22 37 25 2 4 12 5 23 2 19 -5 19 -6 -3 -28 -13 -12 -39 -32 -58
-45 -26 -16 -29 -21 -12 -17 15 4 22 1 19 -6 -2 -7 -12 -11 -21 -10 -11 0 -15
-4 -12 -13 3 -8 9 -21 12 -29 4 -9 1 -15 -8 -15 -23 0 -61 -47 -54 -66 5 -12
2 -15 -10 -10 -12 5 -15 0 -13 -22 4 -29 -6 -52 -22 -52 -6 0 -7 5 -4 10 12
19 -6 31 -21 15 -19 -18 -30 -13 -55 29 -18 29 -20 30 -25 9 -3 -11 -16 -24
-27 -27 -36 -9 -43 -6 -23 9 19 14 19 15 1 15 -17 0 -17 2 4 24 15 16 20 29
15 38 -5 8 3 5 20 -5 l27 -18 -4 30 c-6 36 6 40 27 9 9 -12 16 -18 16 -13 0 6
-7 18 -14 28 -14 17 -50 18 -77 1 -7 -4 -9 -3 -6 3 4 6 0 13 -8 17 -18 7 -18
4 -4 -28 13 -27 5 -61 -11 -51 -8 5 -7 11 1 21 7 8 7 14 1 14 -12 0 -33 -25
-27 -32 3 -3 -3 -8 -15 -11 -23 -6 -28 8 -5 17 8 3 15 15 15 26 0 12 5 18 10
15 14 -9 12 14 -3 29 -15 15 -40 9 -30 -7 4 -7 -1 -6 -10 2 -21 17 -22 31 -1
31 8 0 12 5 9 10 -3 6 -15 10 -26 10 -16 0 -18 2 -7 14 11 12 15 12 29 0 8 -8
22 -14 30 -13 8 0 4 4 -9 10 -18 7 -22 14 -17 30 6 17 4 21 -9 16 -8 -3 -18
-2 -21 3 -4 6 -14 10 -23 10 -16 -1 -16 -1 1 -11 9 -5 17 -14 17 -20 0 -5 -11
-2 -24 8 -13 10 -21 22 -18 27 3 5 -2 7 -11 3 -22 -8 -22 2 0 19 10 7 14 16
10 20 -4 5 -12 2 -17 -6 -7 -11 -10 -11 -10 -2 0 16 30 28 39 15 3 -5 14 -12
24 -16 17 -6 17 -6 0 18 -20 28 -26 29 -54 15 -20 -11 -28 3 -9 15 6 3 10 11
10 16 0 6 -4 8 -9 5 -11 -7 -20 14 -14 31 3 10 10 10 24 2 11 -5 30 -8 42 -5
12 3 16 3 9 0 -6 -3 -9 -10 -6 -16 4 -6 -2 -8 -17 -3 -28 9 -24 3 10 -15 19
-9 22 -9 16 0 -6 10 -1 12 19 8 22 -4 24 -3 14 9 -9 11 -9 16 0 22 9 5 5 11
-12 19 -19 9 -27 8 -36 -4 -20 -23 -33 -16 -28 16 3 17 1 30 -3 30 -5 0 -6 7
-3 15 4 11 11 12 24 5 9 -5 20 -6 24 -3 11 12 6 19 -15 20 -33 3 -42 17 -28
44 7 13 15 30 19 38 3 8 16 15 28 16 12 1 25 5 29 9 9 8 -39 2 -72 -9 -18 -6
-18 -5 3 13 26 24 28 34 5 25 -17 -6 -17 -5 -1 14 27 30 21 40 -7 13 l-25 -24
4 30 c2 16 1 23 -1 17 -5 -16 -19 -17 -28 -3 -10 16 -21 12 -32 -12 l-11 -23
-10 25 c-11 25 -11 25 -11 2 -1 -24 -32 -44 -39 -24 -2 7 -8 12 -13 12 -14 0
-11 -28 4 -33 6 -2 9 -8 5 -12 -16 -17 -29 9 -23 46 4 25 3 39 -4 39 -6 0 -11
-4 -11 -10 0 -5 -5 -10 -12 -10 -6 0 -3 10 8 22 10 12 15 19 9 16 -5 -3 -20
-2 -33 3 -19 7 -23 15 -20 39 2 25 -2 33 -26 45 -21 11 -32 12 -42 5 -9 -8
-14 -6 -19 9 -3 12 -10 21 -15 21 -16 0 -70 -35 -75 -49 -10 -27 7 -26 27 2
11 15 26 27 33 27 18 0 46 -40 39 -54 -3 -6 2 -2 10 8 9 11 16 24 16 28 0 4 8
3 19 -3 14 -9 18 -24 18 -61 0 -50 -10 -64 -21 -25 -5 18 -8 20 -16 7 -8 -12
-10 -12 -10 -1 0 11 -3 11 -15 1 -13 -11 -13 -15 -3 -22 9 -7 6 -8 -9 -5 -13
3 -23 1 -23 -4 0 -5 7 -9 16 -9 10 0 13 -6 9 -19 -3 -10 1 -24 10 -31 24 -20
18 -30 -14 -24 -23 5 -32 2 -40 -14 -6 -10 -7 -23 -3 -28 4 -5 -1 -2 -10 5
-21 15 -24 2 -6 -18 11 -11 9 -11 -10 -2 -25 13 -66 6 -57 -10 4 -5 -4 -13
-17 -18 -21 -9 -21 -10 -3 -11 18 0 18 -2 -5 -20 -26 -21 -12 -27 21 -10 14 8
19 7 19 -2 0 -6 7 -3 15 8 8 11 15 14 15 7 0 -18 30 -16 30 1 0 24 22 30 36
11 11 -15 11 -23 -2 -46 -12 -23 -12 -29 -1 -29 7 0 19 6 26 13 10 10 10 7 2
-15 -6 -16 -9 -28 -6 -28 2 0 0 -13 -5 -30 -5 -16 -7 -30 -5 -30 12 0 55 25
55 32 0 4 5 8 11 8 6 0 8 -8 5 -17 -5 -15 -4 -15 9 1 13 18 15 18 15 3 0 -10
-6 -20 -14 -23 -8 -3 -17 -12 -20 -20 -3 -9 -1 -12 4 -9 6 3 11 3 11 -2 9 -67
8 -72 -14 -77 -12 -2 -5 -4 16 -2 33 2 36 0 31 -19 -4 -11 -11 -23 -16 -26 -5
-3 -6 -13 -2 -23 5 -13 9 -14 20 -5 8 6 14 17 13 23 -3 23 1 36 12 36 8 0 8
-4 1 -12 -6 -9 -6 -22 0 -38 7 -20 11 -22 18 -10 5 8 13 11 17 6 4 -4 -2 -16
-14 -26 -22 -18 -32 -37 -14 -25 5 3 13 -4 16 -16 4 -13 12 -18 22 -15 8 3 23
1 33 -4 13 -7 20 -6 23 3 3 6 6 3 6 -8 1 -12 7 -27 14 -34 10 -11 8 -11 -11
-2 -21 11 -24 9 -37 -24 l-15 -35 -38 16 c-20 9 -49 17 -65 19 -23 1 -27 -1
-22 -19 5 -19 5 -19 -5 -3 -6 9 -23 17 -38 17 -26 1 -26 1 -8 15 19 15 19 15
-2 15 -12 0 -22 3 -22 8 0 4 -23 15 -51 25 -60 22 -80 12 -49 -24 l21 -24 -5
30 c-3 17 -3 24 0 18 3 -7 14 -13 25 -13 16 0 18 -5 13 -25 -7 -27 10 -35 20
-10 9 25 27 17 20 -9 -5 -21 -3 -23 23 -20 15 2 22 1 15 -2 -10 -5 -9 -9 5
-20 16 -12 14 -12 -15 -4 -25 7 -32 6 -29 -3 2 -7 9 -13 15 -13 7 -1 18 -2 25
-3 6 -1 -3 -8 -20 -16 -41 -18 -43 -29 -3 -21 29 5 42 -7 18 -18 -9 -3 -8 -8
5 -16 26 -17 20 -30 -14 -30 -27 0 -30 -2 -19 -15 14 -17 35 -21 25 -5 -10 17
12 11 26 -7 12 -15 12 -16 -3 -10 -9 3 -22 0 -28 -8 -9 -10 -3 -13 30 -11 22
1 40 -2 40 -7 0 -13 -32 -36 -49 -37 -11 0 -9 4 5 15 19 14 18 14 -3 15 -14 0
-23 -6 -23 -15 0 -8 -7 -15 -15 -15 -8 0 -15 7 -15 15 0 18 -5 18 -31 5 -15
-8 -19 -7 -19 3 0 8 -7 20 -15 27 -8 7 -14 19 -13 28 2 8 -4 17 -12 19 -13 4
-13 3 0 -6 8 -6 10 -11 4 -11 -13 0 -37 26 -54 58 -14 28 -6 40 15 22 10 -8
15 -9 15 -1 0 6 10 11 23 11 20 1 21 2 5 14 -10 7 -14 17 -10 21 4 5 -1 5 -11
2 -14 -5 -20 -2 -24 13 -3 11 -10 20 -16 20 -6 0 -2 6 9 14 18 14 18 15 0 22
-11 4 -21 2 -26 -6 -5 -7 -7 -2 -7 15 0 16 4 24 11 22 6 -3 12 4 12 15 0 16
-6 19 -30 15 -25 -3 -27 -2 -13 8 22 16 22 26 0 19 -15 -5 -15 -3 2 11 14 12
16 19 8 22 -18 6 -16 23 1 23 8 0 18 5 22 12 5 7 2 9 -8 5 -9 -3 -21 0 -27 6
-8 8 -11 7 -11 -5 0 -9 -11 -18 -25 -20 -14 -3 -25 -1 -25 3 0 5 6 9 14 9 21
0 27 26 11 47 -8 10 -15 13 -15 8 0 -6 5 -16 12 -23 8 -8 8 -12 1 -12 -11 0
-23 22 -23 44 0 9 10 12 28 9 23 -4 24 -3 9 7 -9 6 -26 8 -37 5 -11 -4 -20 -2
-20 4 0 6 15 11 33 12 l32 1 -33 11 c-27 8 -36 7 -43 -4 -7 -11 -9 -8 -9 9 0
19 5 23 25 20 39 -5 31 16 -11 28 -35 10 -37 12 -16 18 15 5 32 2 50 -10 23
-15 25 -15 14 -1 -8 9 -10 21 -6 28 4 7 2 10 -7 7 -18 -7 -51 10 -44 23 4 5 1
9 -5 9 -6 0 -8 4 -5 10 4 6 -2 7 -18 1 -14 -6 -29 -6 -38 0 -10 6 -10 9 -1 9
19 0 14 16 -10 29 -23 11 -23 11 2 5 22 -6 23 -5 11 10 -9 10 -10 16 -2 16 6
0 11 5 11 10 0 6 -6 10 -14 10 -9 0 -12 8 -8 25 4 25 3 25 -43 21 -37 -3 -52
1 -66 15 -23 23 -29 24 -29 3 0 -14 -3 -14 -15 -4 -11 9 -15 9 -15 1 0 -7 -4
-9 -10 -6 -5 3 -18 1 -27 -4 -16 -9 -15 -10 5 -11 14 0 20 -4 17 -11 -4 -5
-12 -8 -18 -6 -7 2 -25 -3 -42 -12 l-30 -16 27 -3 c15 -2 35 1 45 6 10 6 28 6
41 1 30 -11 28 -18 -4 -16 -21 2 -27 -3 -29 -21 -1 -16 2 -19 9 -12 14 14 37
13 34 -2 -5 -21 -21 -28 -52 -22 -18 4 -26 2 -22 -4 3 -6 0 -12 -6 -15 -10 -4
-11 -7 -1 -18 11 -11 8 -15 -15 -25 l-27 -12 34 -1 c29 -1 32 -3 21 -16 -7 -9
-10 -18 -7 -22 4 -3 2 -12 -4 -20 -17 -19 2 -15 31 7 33 26 38 25 42 -7 l3
-28 18 30 17 30 -4 -27 c-3 -16 -1 -28 3 -28 5 0 7 -10 4 -22 -4 -28 29 -74
47 -63 9 6 9 10 -1 17 -11 8 -11 9 1 5 9 -3 14 -15 13 -32 -2 -21 1 -25 9 -17
14 14 42 16 34 3 -4 -5 0 -12 6 -14 7 -3 2 -6 -12 -7 -25 -1 -25 -1 -5 -16 14
-11 16 -18 7 -21 -6 -3 -10 -9 -6 -14 4 -8 -16 -13 -52 -12 -6 0 -9 -10 -6
-22 4 -24 32 -29 45 -7 5 7 13 10 18 6 7 -4 3 -15 -9 -28 -34 -37 -38 -50 -14
-44 12 4 22 2 22 -3 0 -5 -5 -9 -11 -9 -5 0 -8 -4 -5 -9 9 -14 -5 -41 -21 -41
-8 0 -11 5 -8 10 3 6 -1 17 -10 26 -12 12 -25 14 -53 9 l-37 -8 38 -17 c49
-22 75 -46 34 -31 -16 6 -38 11 -50 10 -19 0 -20 -1 -4 -8 10 -4 18 -11 17
-15 -1 -5 4 -12 10 -16 7 -4 -3 -10 -24 -14 -36 -7 -64 -30 -30 -25 11 2 25 0
32 -4 6 -5 12 -5 12 0 0 4 4 2 9 -6 7 -10 4 -19 -7 -28 -15 -11 -12 -12 18 -6
31 6 34 5 22 -10 -10 -11 -11 -21 -3 -35 6 -11 7 -22 4 -26 -13 -13 67 1 84
15 17 13 17 13 3 -6 -8 -11 -23 -31 -34 -45 -12 -14 -14 -19 -6 -12 23 20 31
14 28 -20 -2 -21 -8 -32 -16 -30 -8 1 -11 -2 -7 -8 7 -11 60 -11 80 -1 42 22
42 -23 0 -61 -16 -15 -24 -28 -17 -28 6 0 12 -9 12 -21 0 -15 -4 -19 -16 -15
-9 3 -18 6 -20 6 -2 0 -4 6 -4 14 0 19 -14 28 -33 20 -12 -4 -13 -12 -7 -35 5
-16 5 -29 0 -29 -5 0 -10 12 -12 28 -2 15 -8 26 -15 25 -7 -2 -10 4 -6 12 3 9
13 13 22 11 9 -3 23 -1 31 5 12 8 10 9 -8 4 -21 -6 -21 -4 -12 22 l10 28 -19
-22 c-22 -27 -31 -29 -31 -8 0 8 -4 15 -8 15 -5 0 -14 10 -20 23 l-11 22 0
-22 c-1 -27 -26 -30 -53 -6 -17 15 -18 15 -18 -10 0 -32 -15 -36 -23 -7 -3 11
-11 20 -19 20 -10 0 -9 -3 2 -10 25 -16 -3 -11 -30 6 -22 13 -22 14 -3 9 35
-10 36 13 1 24 -18 5 -26 10 -18 10 13 1 13 2 0 11 -13 9 -13 11 0 20 11 7 7
10 -18 10 -18 0 -31 4 -28 9 7 11 -22 23 -36 15 -7 -4 -6 -9 2 -14 9 -5 9 -9
1 -14 -6 -4 -14 -1 -17 8 -3 8 -13 12 -22 10 -16 -5 -16 -4 -1 8 9 7 20 24 24
38 7 22 6 23 -9 11 -14 -11 -16 -11 -16 2 0 9 -5 19 -12 23 -7 4 -8 3 -4 -4 5
-8 -1 -12 -16 -12 -18 0 -20 2 -8 10 9 6 10 10 3 10 -6 0 -15 -4 -18 -10 -3
-5 -11 -10 -16 -10 -6 0 -8 4 -5 9 5 8 -30 46 -43 46 -3 0 -5 2 -4 5 1 3 -7 7
-18 7 -16 2 -17 -1 -8 -19 7 -12 17 -18 29 -15 10 3 21 -1 24 -9 4 -10 -4 -13
-34 -12 -28 1 -40 6 -43 20 -3 11 -11 16 -20 12 -8 -3 -18 -1 -22 5 -3 6 -12
11 -19 11 -23 0 -92 -33 -79 -37 7 -2 9 -11 6 -19 -5 -13 -9 -12 -27 5 -23 21
-76 45 -84 37 -5 -6 42 -26 59 -26 17 0 9 -19 -10 -25 -11 -3 -25 -13 -33 -22
-12 -15 -11 -15 10 -4 13 7 22 8 22 2 0 -6 7 -8 15 -5 14 6 19 -6 18 -43 -1
-9 7 -8 28 3 33 16 32 22 14 -59 l-6 -29 34 26 c35 27 48 32 46 19 -1 -5 -1
-16 0 -25 1 -21 21 -24 21 -4 0 19 44 46 60 36 7 -4 10 -12 6 -18 -3 -6 0 -12
6 -15 10 -3 10 -7 -1 -20 -8 -10 -9 -17 -3 -17 6 0 14 5 17 10 9 15 25 12 25
-4 0 -7 7 -19 15 -26 13 -11 15 -8 15 13 0 16 8 31 20 37 20 11 30 -3 10 -15
-5 -3 -10 -11 -10 -16 0 -6 6 -7 13 -3 8 5 7 2 -2 -9 -8 -10 -11 -20 -8 -24 4
-3 1 -13 -6 -21 -9 -13 -9 -14 1 -8 7 4 12 1 12 -9 0 -9 4 -14 9 -11 4 3 17
-1 27 -9 27 -20 34 -18 34 10 0 22 2 24 26 15 17 -7 32 -6 47 2 19 10 20 9 10
-4 -7 -8 -10 -18 -6 -21 3 -4 1 -7 -5 -7 -7 0 -12 -5 -12 -10 0 -6 6 -10 13
-8 6 1 28 -8 47 -21 19 -13 26 -20 15 -16 -11 4 -31 10 -45 12 -23 4 -24 3 -7
-10 18 -15 17 -16 -3 -22 -12 -4 -19 -9 -16 -12 3 -3 20 0 37 6 25 9 35 8 41
-1 10 -16 7 -69 -5 -86 -7 -8 2 -7 28 4 23 9 34 11 30 3 -5 -8 -1 -9 14 -4 24
7 28 -7 6 -25 -8 -7 -12 -16 -9 -21 3 -5 -8 -9 -25 -9 -16 0 -33 -4 -36 -10
-4 -6 6 -7 27 -3 30 6 32 5 19 -10 -20 -25 0 -20 31 8 17 15 26 30 22 39 -3 9
-1 16 6 16 6 0 8 -4 5 -10 -3 -6 3 -9 14 -7 31 3 24 -17 -9 -26 -16 -4 -30
-11 -30 -16 0 -5 18 -4 41 1 29 8 43 8 52 -1 8 -8 7 -11 -6 -11 -20 0 -23 -16
-4 -23 6 -3 3 -5 -8 -5 -11 0 -40 -5 -65 -11 l-45 -10 58 2 c31 1 57 -1 57 -5
0 -5 -8 -8 -17 -8 -10 0 -25 -5 -33 -11 -12 -8 -10 -9 7 -4 12 3 24 1 28 -4 4
-7 16 -5 33 6 l27 17 -20 -23 -20 -24 24 12 c16 9 26 10 34 2 7 -7 2 -14 -19
-22 -16 -6 -24 -13 -17 -16 7 -2 21 1 32 7 17 8 21 8 21 -4 0 -7 -7 -17 -16
-20 -8 -3 -12 -10 -9 -16 4 -6 -1 -7 -11 -3 -13 5 -15 2 -9 -18 4 -15 3 -19
-2 -12 -7 10 -13 10 -29 -2 -18 -13 -18 -14 -1 -15 10 0 16 -4 13 -9 -4 -5 3
-7 14 -4 14 4 20 0 20 -12 0 -11 -5 -15 -15 -11 -9 3 -17 0 -19 -7 -2 -6 -8
-26 -13 -44 -8 -24 -8 -35 2 -43 9 -8 14 -1 19 30 5 31 13 43 36 55 32 17 41
29 13 18 -11 -4 -14 -3 -9 5 11 18 33 15 40 -5 6 -15 8 -15 16 -3 8 12 10 12
10 1 0 -11 3 -11 15 -1 8 7 15 9 16 4 0 -5 2 -17 4 -27 2 -11 1 -16 -2 -13 -4
3 -13 0 -21 -7 -12 -9 -16 -9 -19 1 -5 14 -69 16 -78 2 -3 -5 2 -10 13 -10 17
0 15 -5 -12 -34 -29 -32 -33 -33 -54 -20 -22 14 -42 12 -42 -5 0 -15 73 -21
84 -8 6 8 23 18 39 25 25 11 27 10 27 -13 0 -32 18 -32 26 -1 3 14 11 23 18
20 6 -2 19 10 29 28 26 48 65 93 73 85 4 -3 1 -14 -7 -23 -11 -13 -11 -18 -1
-21 21 -8 13 -24 -18 -34 -16 -6 -30 -15 -30 -20 0 -6 9 -5 21 2 13 7 19 7 15
1 -3 -6 -2 -13 4 -17 5 -3 10 -1 10 6 0 7 3 9 6 6 4 -4 2 -13 -5 -21 -9 -11
-7 -15 9 -19 12 -3 24 1 30 11 8 15 11 15 20 2 8 -13 11 -11 16 8 6 21 10 20
66 -34 l59 -56 25 23 c19 17 23 19 18 6 -3 -9 -10 -17 -15 -17 -5 0 2 -18 17
-41 22 -36 23 -40 7 -37 -10 2 -18 10 -18 18 0 8 -9 22 -20 31 -18 16 -21 15
-40 -7 -11 -13 -29 -24 -40 -23 -15 0 -16 2 -5 6 23 9 51 41 41 48 -5 3 -17 2
-27 -2 -12 -4 -15 -3 -10 5 5 8 -5 12 -33 12 -22 0 -44 -6 -48 -12 -4 -7 -17
-20 -28 -28 -19 -14 -19 -14 -6 3 19 24 9 31 -12 7 -16 -19 -15 -20 8 -26 13
-3 29 -3 35 1 6 3 9 1 8 -7 -2 -7 3 -12 11 -10 12 3 11 -1 -1 -20 -9 -13 -20
-23 -26 -23 -16 0 -132 -59 -132 -67 0 -5 6 -8 14 -8 9 0 14 -9 13 -20 -1 -19
-1 -19 -19 0 -11 12 -25 17 -36 13 -14 -5 -13 -3 3 10 20 16 19 16 -4 10 -17
-4 -22 -3 -17 5 4 7 23 12 43 12 27 0 34 3 29 15 -3 9 0 15 10 15 8 0 17 6 20
14 3 9 19 13 45 12 53 -2 58 20 6 30 -23 4 -52 7 -64 5 -26 -2 -28 2 -10 21
34 38 42 78 8 46 -11 -11 -12 -9 -6 11 6 20 4 23 -9 18 -9 -4 -16 -2 -16 3 0
6 -7 10 -15 10 -8 0 -15 -7 -15 -15 0 -8 -4 -15 -10 -15 -5 0 -7 -6 -4 -13 3
-8 -2 -20 -11 -27 -12 -10 -15 -10 -15 4 0 21 -23 16 -32 -7 -6 -13 -14 -16
-35 -11 -50 10 -55 14 -49 30 4 12 2 15 -9 11 -17 -7 -45 18 -45 41 -1 15 -2
15 -15 -2 -11 -15 -12 -23 -3 -33 9 -11 8 -17 -3 -24 -28 -18 -40 -4 -17 19 9
9 7 12 -13 13 -16 1 -19 3 -6 6 10 3 17 14 17 29 0 14 4 22 10 19 6 -3 13 2
17 12 3 10 17 31 30 47 28 33 23 45 -11 26 -15 -7 -26 -23 -28 -39 -3 -23 -8
-26 -43 -27 l-40 -1 38 4 c43 5 50 23 10 23 -44 0 -61 15 -45 40 11 18 10 20
-12 20 -14 0 -28 5 -31 10 -3 6 -19 10 -34 10 -25 0 -28 3 -23 27 4 22 2 25
-13 19 -15 -5 -16 -4 -5 9 7 8 16 13 20 10 5 -3 11 -1 15 5 3 5 1 10 -5 10 -7
0 -9 9 -5 23 6 21 5 21 -9 4 -14 -18 -15 -18 -26 2 -6 11 -14 20 -18 20 -29
-5 -34 2 -18 26 14 21 14 24 1 19 -10 -4 -15 0 -15 10 0 9 -4 16 -10 16 -5 0
-7 -6 -4 -14 3 -9 -6 -19 -25 -27 -17 -8 -31 -16 -31 -19 0 -3 -9 -6 -20 -7
-23 -2 -27 12 -5 21 8 3 15 15 15 26 0 12 -4 19 -10 15 -5 -3 -7 -12 -3 -20 3
-8 0 -15 -6 -15 -6 0 -11 8 -11 18 -1 16 -2 16 -14 -1 -14 -18 -14 -18 -21 1
-3 11 -19 25 -35 31 -33 11 -42 26 -10 16 20 -6 27 5 12 19 -4 4 -7 13 -7 19
0 15 -44 22 -57 9 -10 -10 -20 -70 -19 -114 0 -16 -4 -28 -10 -28 -5 0 -4 -6
3 -14 7 -8 16 -12 20 -10 4 2 10 -1 14 -7 4 -8 3 -9 -4 -5 -7 4 -12 2 -12 -3
0 -12 -86 -15 -93 -3 -2 4 -2 1 -1 -5 2 -8 -6 -13 -19 -13 -17 0 -19 -2 -8 -9
11 -7 4 -11 -25 -17 -31 -6 -35 -8 -19 -15 11 -4 31 -5 45 -1 22 5 23 3 12
-10 -10 -13 -10 -17 3 -22 11 -4 14 -13 10 -25 -3 -10 1 -24 10 -31 18 -15 20
1 3 18 -15 15 9 17 32 2 12 -8 12 -10 1 -10 -8 0 -11 -3 -8 -7 4 -3 2 -12 -4
-19 -8 -10 -5 -15 16 -20 20 -5 25 -11 22 -25 -3 -12 0 -19 10 -19 23 0 73
-56 73 -82 0 -13 -7 -34 -16 -46 -8 -12 -13 -26 -10 -31 8 -13 -18 -21 -35
-10 -8 5 -27 9 -43 9 -16 0 -35 8 -43 18 -14 16 -14 16 -7 -3 4 -11 7 -28 8
-37 0 -9 4 -14 8 -12 4 3 8 -1 8 -8 0 -7 -12 -19 -27 -26 -17 -7 -23 -8 -16
-1 16 16 5 39 -19 39 -14 0 -18 -5 -14 -15 3 -9 0 -15 -9 -15 -8 0 -15 5 -15
11 0 6 -8 8 -18 5 -15 -5 -15 -5 -1 7 20 15 34 57 20 57 -5 0 -12 -10 -14 -22
-4 -20 -4 -20 -6 4 -1 25 -21 52 -21 29 0 -6 -7 -11 -15 -11 -8 0 -12 6 -9 13
3 8 -2 14 -10 14 -8 0 -12 -6 -9 -14 3 -7 0 -13 -5 -13 -6 0 -12 10 -14 23 -2
14 -11 23 -26 25 -14 2 -20 8 -16 15 4 7 4 9 -1 5 -4 -4 -14 -3 -22 3 -10 9
-13 8 -13 -5 0 -17 13 -25 46 -30 10 -2 20 -8 22 -15 3 -10 -2 -11 -19 -5 -13
4 -34 7 -46 6 -13 -1 -22 2 -20 6 1 4 -1 8 -6 9 -4 2 -20 9 -36 17 -26 14 -32
14 -66 -3 -21 -10 -33 -20 -27 -22 7 -3 8 -9 2 -19 -7 -12 -12 -12 -29 4 -11
10 -19 22 -16 25 2 4 -13 8 -33 8 l-37 1 38 -15 c36 -15 50 -33 25 -33 -7 0
-24 -11 -38 -25 -24 -23 -28 -24 -40 -10 -7 8 -19 15 -26 15 -8 0 -14 7 -14
15 0 8 7 15 15 15 8 0 15 6 15 14 0 10 -16 13 -64 12 -60 -1 -64 0 -73 24 -9
23 -9 23 -9 -10 1 -37 22 -65 53 -72 12 -3 5 -7 -19 -12 -21 -5 -38 -11 -38
-14 0 -4 12 -16 28 -29 23 -19 24 -22 8 -23 -14 0 -16 -3 -7 -13 8 -10 7 -17
-1 -25 -9 -9 -8 -12 5 -12 9 0 17 -7 17 -15 0 -17 11 -19 25 -6 6 5 29 11 53
15 41 6 43 5 41 -16 -2 -13 0 -29 5 -36 14 -23 0 -24 -38 -2 -19 12 -41 20
-48 18 -8 -3 -1 -11 16 -20 l29 -15 -48 -6 c-26 -4 -50 -5 -55 -2 -4 2 -6 -6
-5 -20 2 -13 -3 -26 -9 -28 -10 -4 -13 -48 -14 -171 -1 -155 0 -166 17 -166
10 0 28 -9 41 -20 13 -11 18 -20 13 -20 -6 0 -16 7 -23 15 -7 8 -21 15 -31 15
-18 0 -18 -28 -19 -785 0 -558 4 -785 11 -785 6 0 9 7 5 15 -4 12 -2 13 14 2
23 -14 35 -42 24 -58 -3 -6 0 -15 7 -20 9 -6 2 -9 -24 -9 -38 0 -38 0 -35 -36
3 -34 5 -37 40 -39 33 -2 35 0 20 11 -15 12 -14 13 9 12 19 -2 25 -7 22 -18
-2 -9 3 -22 11 -29 11 -9 16 -10 16 -2 0 6 -4 11 -10 11 -5 0 -7 7 -3 16 5 13
9 12 29 -7 13 -12 24 -18 24 -11 0 6 -11 19 -25 30 -30 24 -32 32 -5 25 11 -3
20 -9 20 -14 0 -5 5 -9 11 -9 5 0 8 3 6 8 -3 4 7 16 21 26 22 17 25 17 19 3
-8 -20 4 -22 22 -4 11 10 14 10 18 0 3 -7 11 -13 19 -13 9 0 12 4 9 10 -3 5 3
10 13 10 11 0 36 7 57 16 20 8 34 10 30 5 -3 -6 -1 -11 4 -11 6 0 11 7 11 15
0 8 3 14 8 13 4 -1 27 2 52 6 67 11 73 12 92 20 9 4 21 5 27 2 5 -4 13 -2 16
4 4 7 29 9 68 5 34 -4 59 -4 55 0 -3 3 -20 7 -37 7 -17 1 -28 5 -25 10 3 5 11
8 17 7 12 -2 58 5 137 22 25 5 59 10 75 11 17 1 36 6 43 11 7 5 27 11 45 13
45 5 59 12 52 25 -5 7 4 8 27 4 18 -3 46 -2 61 4 19 7 27 7 27 0 0 -6 7 -3 17
6 9 10 26 15 40 12 13 -2 26 -1 29 4 2 5 24 8 48 7 23 0 51 4 62 9 19 9 90 10
99 1 3 -2 49 2 102 9 91 13 99 12 111 -4 11 -15 14 -16 22 -4 10 18 22 20 125
22 44 1 88 5 97 10 10 6 19 5 23 -1 4 -6 11 -8 16 -5 17 11 89 16 89 6 0 -12
-29 -23 -42 -14 -7 3 -8 1 -4 -5 4 -7 12 -12 18 -12 6 0 17 -8 25 -17 13 -16
13 -16 4 4 -12 23 0 40 19 28 6 -3 7 1 4 9 -4 11 0 16 10 16 9 0 16 -3 16 -7
0 -5 36 -8 80 -8 68 0 80 -3 80 -16 0 -14 7 -16 37 -12 31 4 40 1 64 -26 17
-20 32 -29 43 -25 12 5 13 10 5 25 -5 10 -14 19 -20 19 -6 0 -5 -9 2 -23 10
-18 7 -17 -20 8 -17 16 -29 35 -27 42 3 7 -4 29 -15 48 -12 19 -18 35 -15 35
3 0 13 -14 22 -31 13 -26 20 -30 43 -27 22 3 30 -1 39 -21 16 -39 17 -63 2
-93 -11 -23 -11 -30 1 -45 7 -10 10 -15 5 -11 -5 4 -18 2 -29 -3 -14 -8 -22
-8 -27 0 -5 9 -11 7 -20 -4 -7 -9 -9 -15 -4 -14 5 1 16 1 24 0 13 -1 13 -3 0
-10 -8 -6 -18 -7 -22 -5 -4 3 -5 -2 -2 -11 5 -12 9 -13 20 -4 11 9 20 7 39 -5
27 -18 35 -52 10 -42 -8 3 -15 1 -15 -5 0 -5 -6 -9 -12 -8 -26 3 -39 -1 -33
-11 3 -6 1 -10 -4 -10 -6 0 -11 5 -11 11 0 8 -4 8 -12 1 -7 -6 -49 -13 -93
-15 -104 -7 -165 -17 -165 -28 0 -5 -9 -9 -21 -9 -15 0 -19 -5 -15 -15 3 -8 0
-15 -7 -15 -8 0 -7 -3 2 -9 8 -5 21 -7 28 -4 12 5 12 7 2 14 -41 25 74 34 136
10 55 -21 66 -31 34 -31 -23 -1 -23 -1 -5 -15 11 -8 16 -18 12 -22 -4 -5 -16
2 -26 15 -17 21 -37 32 -26 14 3 -5 -8 -9 -25 -10 -16 0 -27 3 -24 9 4 5 1 17
-4 26 -6 10 -11 12 -11 6 0 -7 -8 -13 -17 -13 -16 -1 -16 -2 1 -15 11 -8 15
-15 10 -15 -6 0 -15 5 -21 11 -8 8 -17 8 -32 -1 -12 -6 -27 -8 -34 -3 -6 4
-25 6 -42 4 -31 -3 -30 9 1 13 9 1 21 12 25 24 10 28 -2 29 -19 2 -7 -11 -17
-20 -23 -20 -8 0 -8 4 0 14 8 10 9 16 1 21 -6 3 -8 10 -5 15 2 4 -9 7 -25 5
-17 -1 -31 -4 -33 -6 -1 -2 0 -3 1 -2 10 5 61 -20 57 -28 -3 -4 -12 -6 -20 -2
-8 3 -15 0 -15 -6 0 -6 -7 -8 -17 -4 -11 4 -14 3 -9 -5 4 -7 4 -13 -1 -13 -4
-1 -21 -3 -37 -5 -15 -1 -31 -5 -34 -8 -3 -3 -11 2 -19 12 -11 14 -12 14 -7 1
3 -10 -1 -19 -10 -22 -10 -4 -16 -1 -16 8 0 8 -9 13 -21 12 -18 -1 -18 -3 -4
-13 14 -11 14 -12 -1 -18 -27 -10 -46 -7 -38 7 4 6 -2 3 -14 -7 -20 -17 -22
-18 -22 -2 0 9 -4 15 -9 12 -5 -4 -11 0 -14 6 -2 7 -7 10 -11 7 -10 -9 34 -50
46 -43 7 5 9 2 6 -7 -4 -11 3 -14 33 -14 31 0 38 -3 34 -14 -4 -10 0 -9 15 4
20 19 27 11 11 -14 -6 -9 -28 -14 -60 -15 -28 -1 -51 -5 -51 -10 0 -6 -6 -2
-13 7 -14 18 -97 34 -97 17 0 -5 -5 -10 -11 -10 -6 0 -9 7 -6 14 4 10 1 13 -9
9 -20 -7 -18 7 4 23 14 12 15 15 2 23 -17 12 -33 4 -27 -13 10 -27 -11 -37
-81 -39 -47 -2 -69 0 -65 7 4 6 -3 3 -14 -6 -11 -10 -27 -18 -36 -18 -9 0 -19
-5 -22 -10 -10 -16 -25 -12 -19 5 8 20 -5 19 -30 -2 -12 -10 -18 -14 -14 -9 4
5 0 16 -9 25 -16 15 -15 16 5 19 12 2 22 8 22 13 0 6 -4 7 -10 4 -5 -3 -10 -1
-10 4 0 6 5 11 12 11 6 0 8 3 5 7 -4 3 -18 -6 -31 -20 -20 -22 -22 -28 -11
-44 7 -9 11 -23 8 -30 -4 -9 4 -12 28 -9 19 2 37 -1 41 -8 6 -8 13 -8 29 2 11
8 18 9 14 3 -3 -6 1 -11 9 -11 9 0 16 5 16 12 0 6 6 4 13 -6 7 -10 27 -19 45
-20 35 -3 94 -37 74 -44 -31 -10 -4 -17 74 -19 74 -1 83 0 68 12 -17 12 -17
13 8 12 14 -1 24 -5 22 -8 -2 -4 6 -9 19 -13 12 -3 24 -1 25 4 5 14 33 12 29
-1 -1 -6 4 -14 11 -16 6 -3 12 0 12 7 0 6 5 8 10 5 6 -3 10 -1 10 6 0 8 4 8
15 -1 9 -7 15 -8 15 -2 0 5 -7 12 -15 16 -17 6 -20 26 -5 26 6 0 20 -9 32 -20
12 -11 24 -18 27 -15 2 3 -4 12 -15 20 -19 15 -19 15 0 8 13 -4 17 -3 12 5 -5
8 -2 10 8 6 8 -3 18 -15 22 -26 5 -16 8 -17 14 -7 5 7 6 17 4 21 -3 4 7 8 23
8 15 0 45 5 67 11 27 8 41 8 49 0 8 -8 4 -11 -14 -12 -13 -1 -28 -1 -33 0 -5
1 -6 -5 -3 -14 4 -8 2 -15 -3 -15 -6 0 -10 5 -10 11 0 11 -39 3 -55 -13 -6 -6
-3 -7 10 -3 19 6 18 5 -2 -13 -12 -11 -19 -23 -15 -27 4 -4 -2 -4 -13 1 -18 8
-49 9 -133 1 -14 -1 -20 -7 -17 -16 4 -9 0 -11 -11 -7 -15 6 -15 4 -3 -11 12
-15 12 -16 -3 -10 -13 4 -15 2 -11 -10 4 -11 2 -14 -5 -9 -7 4 -12 2 -12 -5 0
-7 11 -10 30 -7 17 3 33 1 36 -3 2 -5 11 -6 18 -3 10 4 12 -3 10 -23 l-4 -28
12 28 c7 15 16 27 21 27 4 0 5 -5 1 -12 -4 -7 -3 -8 4 -4 7 4 12 14 12 22 0 8
5 14 11 14 5 0 7 -4 4 -10 -3 -5 0 -10 7 -10 7 0 2 -10 -12 -21 -14 -11 -18
-17 -10 -13 8 4 23 14 32 21 12 11 22 12 34 5 13 -7 23 -5 37 9 11 10 24 16
29 13 4 -3 8 0 8 5 0 6 12 11 26 11 14 0 23 4 19 10 -3 5 -1 10 5 10 7 0 9 -7
6 -16 -3 -9 -6 -17 -6 -20 0 -2 -8 -1 -18 2 -9 2 -7 -1 6 -7 20 -11 26 -9 45
11 12 12 16 20 10 16 -9 -5 -13 0 -13 13 0 15 4 19 18 14 9 -4 20 -11 24 -17
5 -8 8 -7 8 1 0 7 -8 17 -17 22 -26 16 2 32 34 20 17 -6 25 -5 29 4 6 15 104
21 104 6 0 -5 4 -7 10 -4 5 3 10 4 10 1 0 -7 -38 -46 -45 -46 -3 0 -14 0 -26
0 -13 0 -18 -4 -13 -12 5 -8 2 -9 -10 -5 -10 4 -19 1 -23 -8 -4 -13 -8 -13
-21 -3 -12 10 -14 10 -8 1 4 -7 3 -13 -2 -13 -6 0 -12 -6 -15 -14 -4 -10 0
-14 14 -11 10 2 19 -1 19 -6 0 -6 5 -7 12 -3 7 4 8 3 4 -4 -4 -6 -14 -8 -23
-5 -12 5 -14 3 -8 -7 6 -10 4 -12 -8 -7 -9 3 -18 1 -20 -6 -3 -9 -8 -9 -20 1
-17 15 -57 1 -57 -20 0 -7 4 -7 14 1 11 9 15 9 19 -1 3 -8 6 -5 6 6 1 18 3 18
27 -5 19 -18 23 -19 18 -6 -3 10 -3 17 2 16 5 -1 27 6 49 16 40 17 95 26 95
15 0 -3 -5 -11 -12 -18 -9 -9 -9 -12 1 -12 7 0 9 -5 6 -10 -10 -16 -25 -12
-25 8 0 14 -2 15 -10 2 -6 -10 -5 -17 5 -22 18 -10 47 1 42 16 -3 7 4 23 14
37 10 13 19 19 19 12 0 -7 9 -10 23 -7 12 3 29 6 37 6 8 0 24 8 35 18 11 10
38 21 60 25 22 4 46 12 54 18 12 9 13 9 8 0 -6 -9 3 -8 27 2 22 10 37 11 41 5
4 -6 12 -4 21 5 19 19 30 19 37 1 6 -15 -6 -29 -33 -39 -9 -3 -5 -6 10 -6 20
-1 22 -3 10 -12 -12 -8 -10 -9 7 -4 16 4 25 0 33 -16 10 -17 9 -20 -2 -17 -19
7 -48 -10 -48 -28 0 -8 5 -12 10 -9 5 3 10 0 10 -7 0 -9 3 -9 8 -2 9 13 42 26
42 16 0 -5 -6 -14 -12 -21 -7 -8 -1 -6 15 4 15 9 27 13 27 9 0 -5 4 -2 10 6 7
12 12 11 30 -5 19 -17 23 -18 33 -5 22 28 62 15 62 -20 0 -15 32 -16 48 0 5 4
-3 5 -17 3 -25 -5 -26 -4 -17 20 5 14 7 28 3 32 -4 4 3 5 14 1 23 -7 67 8 96
32 15 13 17 12 15 -7 -1 -12 -4 -21 -7 -21 -4 0 -7 -7 -7 -15 0 -8 6 -15 14
-15 8 0 13 11 13 28 0 26 2 28 50 27 27 0 50 4 50 9 0 4 9 6 19 3 14 -3 18 -1
14 11 -5 12 -1 14 20 10 15 -3 24 -2 22 2 -9 14 20 29 48 26 15 -2 29 0 32 4
4 6 21 7 78 2 9 -1 17 -9 17 -18 0 -8 4 -13 10 -9 5 3 7 11 4 18 -6 15 32 20
56 7 10 -5 20 -7 23 -4 3 3 31 7 62 9 l56 3 -15 -23 c-14 -21 -14 -23 4 -18
11 3 17 10 13 17 -3 6 3 3 14 -7 19 -16 21 -16 27 -2 5 15 7 15 22 0 9 -9 23
-14 31 -11 8 3 11 1 8 -4 -4 -6 7 -8 29 -4 25 4 36 1 36 -7 0 -8 4 -7 13 3 10
14 20 15 55 9 24 -5 45 -5 48 0 3 5 12 5 22 0 10 -6 23 -4 37 5 20 13 25 12
48 -6 28 -22 37 -25 37 -10 0 6 -7 10 -15 10 -8 0 -15 8 -14 18 0 9 3 12 5 6
3 -6 21 -10 42 -8 20 1 42 -2 48 -7 9 -8 11 -4 7 12 -4 15 -3 20 5 15 7 -4 12
-1 12 7 0 9 -15 17 -39 21 -21 3 -41 12 -44 20 -5 13 -45 14 -66 1 -21 -12
-33 6 -14 21 16 12 15 13 -17 14 -32 1 -33 2 -13 12 21 10 22 12 5 24 -16 12
-15 13 6 14 12 0 22 5 22 10 0 6 8 5 20 -2 27 -17 25 -31 -2 -23 -23 7 -23 7
-3 -8 11 -8 24 -12 30 -9 21 13 33 9 30 -9 -2 -10 0 -19 6 -19 5 0 9 6 9 13 0
9 3 8 9 -2 12 -18 139 -21 146 -4 6 18 44 16 51 -1 3 -8 12 -17 21 -20 12 -5
14 -1 10 14 -4 17 -3 19 8 10 8 -7 19 -9 25 -5 5 3 10 1 10 -5 0 -7 6 -8 19 0
24 12 71 9 71 -5 0 -5 4 -4 9 4 5 7 14 11 20 7 7 -5 9 -1 5 8 -3 9 -15 16 -26
16 -10 0 -16 4 -13 10 3 5 20 7 37 3 25 -5 29 -3 23 8 -5 8 0 7 12 -4 21 -18
49 -23 55 -8 3 9 35 14 71 12 12 -1 16 -5 11 -13 -6 -9 -3 -9 9 0 9 8 21 11
26 8 5 -4 13 -1 17 5 4 8 9 7 15 -2 6 -10 9 -11 9 -1 0 6 7 12 15 12 8 0 15
-9 15 -20 0 -13 -5 -17 -14 -14 -11 4 -13 0 -9 -16 3 -12 9 -18 12 -13 3 4 13
8 21 9 8 1 25 4 38 8 14 5 22 3 22 -5 0 -8 7 -5 20 6 27 24 25 7 -2 -24 -13
-14 -16 -20 -8 -13 22 19 35 14 16 -7 -13 -14 -14 -21 -5 -27 8 -5 10 -3 4 6
-6 9 -4 12 6 8 8 -3 20 0 26 7 10 10 8 15 -5 20 -14 6 -13 8 7 16 l25 10 -29
15 c-19 10 -31 11 -33 5 -6 -19 -20 -12 -15 7 4 15 14 18 58 17 30 0 52 2 49
6 -6 10 33 22 46 14 5 -3 10 -1 10 5 0 6 5 8 10 5 19 -12 32 6 16 23 -8 10
-18 29 -21 45 -8 31 -26 37 -20 7 2 -11 0 -18 -6 -15 -5 4 -9 15 -9 25 0 10
-4 21 -9 24 -5 4 -7 -3 -4 -14 6 -21 -3 -23 -46 -11 -23 6 -23 7 -7 24 20 20
62 23 70 5 3 -9 8 -8 16 5 12 18 40 24 40 8 0 -6 15 -9 34 -8 29 2 32 4 23 16
-9 12 -9 13 1 7 7 -4 15 -1 18 9 4 9 13 14 22 10 13 -5 13 -3 1 12 -13 15 -12
16 9 11 19 -5 21 -4 11 8 -6 8 -9 17 -5 21 3 3 6 1 6 -5 0 -7 7 -12 15 -12 14
0 20 -13 16 -34 -1 -5 5 -4 13 4 18 14 22 25 6 15 -6 -3 -10 -2 -10 2 0 20 43
34 88 28 26 -3 39 -2 30 2 -25 11 -8 31 26 31 15 0 32 6 37 13 7 12 9 11 10
-1 0 -9 4 -7 11 8 6 12 15 22 21 22 5 0 4 -7 -3 -15 -6 -8 -9 -18 -7 -23 3 -4
-5 -9 -19 -10 -13 -1 -35 -2 -48 -3 -19 -1 -22 -4 -13 -14 7 -7 16 -11 20 -8
5 3 33 6 62 8 45 2 60 8 91 34 30 26 34 35 23 43 -12 8 -11 9 1 5 8 -2 14 -14
13 -26 -3 -23 21 -30 31 -8 5 10 7 10 12 0 3 -7 13 -13 21 -13 11 0 8 6 -8 20
-15 13 -18 18 -7 14 13 -4 15 -1 11 18 -5 22 -5 22 9 4 10 -13 17 -15 22 -8 4
7 4 17 1 22 -3 6 -1 10 4 10 6 0 11 -4 11 -8 0 -4 9 -8 19 -8 11 0 18 3 16 7
-3 3 7 17 20 29 14 13 26 22 26 19 1 -2 3 -14 4 -27 2 -18 0 -20 -12 -11 -11
9 -12 9 -8 -3 4 -9 -1 -23 -10 -32 -13 -13 -14 -20 -5 -31 6 -7 18 -11 26 -8
8 3 14 0 14 -6 0 -6 -6 -11 -13 -11 -7 0 -20 -8 -28 -18 -13 -15 -13 -20 -2
-30 14 -13 17 -9 14 20 -3 21 10 23 28 5 10 -10 11 -9 6 4 -5 14 2 18 38 20
35 3 43 1 35 -8 -14 -18 3 -16 26 2 11 8 28 15 39 15 12 0 17 5 14 14 -4 10 0
12 15 8 14 -3 19 -1 16 8 -2 7 -12 14 -22 16 -20 3 -32 12 -25 19 5 5 65 -15
89 -29 8 -5 4 2 -8 17 l-24 25 41 -10 c23 -6 41 -15 41 -20 0 -5 4 -7 9 -4 16
10 41 -5 41 -25 0 -10 4 -19 9 -19 4 0 6 12 3 26 -3 16 1 30 9 35 11 7 10 9
-5 9 -11 0 -17 3 -13 6 11 11 47 -7 47 -24 0 -10 3 -13 8 -7 4 6 14 11 22 13
11 2 11 -1 -2 -11 -25 -19 -22 -27 7 -27 14 0 25 -4 25 -9 0 -15 -54 2 -72 23
-13 16 -17 17 -18 6 0 -27 16 -40 48 -43 18 -1 32 -6 32 -12 0 -5 7 -2 14 8 9
12 15 14 18 6 5 -15 86 -21 110 -8 16 8 16 13 6 32 -7 12 -12 25 -13 28 0 11
-63 77 -89 94 -15 10 -25 23 -23 29 2 6 0 20 -6 30 -10 19 -10 19 -24 0 -13
-17 -14 -16 -8 16 7 37 15 53 15 28 0 -9 7 -19 16 -22 22 -9 24 -8 24 9 0 20
49 67 61 59 5 -3 9 -12 9 -20 0 -8 -5 -12 -10 -9 -6 4 -9 3 -8 -2 2 -4 0 -9
-4 -11 -13 -4 -48 -41 -48 -51 0 -5 7 -12 16 -15 12 -4 15 -2 11 9 -10 24 9
26 29 3 11 -12 14 -18 8 -15 -7 4 -21 -1 -31 -11 -20 -17 -19 -18 30 -62 28
-25 47 -39 43 -32 -11 18 -14 72 -4 66 4 -3 8 -12 8 -19 0 -8 14 -28 30 -45
18 -18 30 -42 31 -58 0 -25 1 -26 9 -6 5 12 14 25 20 29 8 5 8 10 0 20 -12 15
-3 68 11 59 5 -3 6 -10 3 -16 -4 -7 -2 -8 4 -4 21 13 13 36 -12 36 -24 0 -36
16 -36 51 0 14 7 19 30 19 17 0 30 -4 30 -10 0 -5 7 -10 16 -10 11 0 14 -5 9
-17 -14 -37 -35 -174 -28 -186 2 -4 15 -4 29 -1 13 3 30 2 37 -4 18 -15 69 -3
63 15 -3 8 -1 11 4 8 6 -3 10 -12 10 -19 0 -16 67 -20 76 -4 4 6 3 8 -4 4 -6
-3 -13 -2 -17 4 -3 5 3 10 14 10 13 0 21 -7 21 -17 0 -14 2 -15 9 -4 6 9 11
10 15 2 13 -20 23 -12 24 19 0 20 -3 28 -10 24 -8 -5 -9 -1 -5 10 5 11 3 15
-5 10 -7 -5 -9 -2 -5 8 3 10 -3 24 -14 34 -11 10 -19 14 -18 9 2 -6 -3 -21
-10 -34 -12 -22 -12 -24 8 -18 11 3 21 2 21 -3 0 -16 -39 -18 -45 -1 -6 14 -8
14 -21 -3 -13 -19 -14 -19 -14 6 0 26 26 46 33 25 2 -6 6 -4 10 5 5 13 1 16
-20 12 -14 -3 -36 -10 -47 -16 -21 -11 -21 -11 -2 11 11 11 30 21 43 21 13 0
22 4 19 9 -4 5 0 12 6 15 7 3 -13 4 -44 2 -46 -3 -58 -1 -58 11 0 8 5 11 11 8
6 -4 9 -1 7 7 -3 13 29 96 42 108 10 10 28 70 19 64 -5 -3 -9 -1 -9 4 0 5 12
10 26 10 18 0 22 -3 13 -9 -9 -6 -1 -9 24 -9 33 0 37 -3 38 -27 1 -22 2 -23 6
-8 7 27 21 35 66 35 28 0 37 -4 37 -17 0 -15 1 -15 13 -1 10 14 45 16 277 15
230 -2 265 -4 262 -17 -2 -11 1 -11 11 3 8 9 24 17 36 17 18 0 21 -6 21 -44
l0 -45 31 9 c18 5 36 7 40 4 5 -3 9 13 9 36 0 27 4 40 13 39 6 -2 32 3 56 10
30 9 40 16 33 23 -16 16 -3 38 23 38 27 0 41 -15 24 -26 -8 -4 -9 -3 -5 4 5 8
0 12 -13 12 -32 0 -25 -18 10 -25 21 -5 34 -3 39 5 4 7 13 9 19 5 7 -3 31 -3
54 1 35 6 39 8 22 16 -15 6 -10 7 18 4 20 -3 37 -1 37 5 0 5 -6 9 -14 9 -8 0
-12 9 -11 25 2 14 0 25 -3 25 -4 0 -7 18 -7 40 -1 49 23 55 43 10 16 -34 36
-30 29 6 -6 34 35 33 51 -1 15 -33 36 -33 30 0 -4 21 -1 25 18 25 13 0 28 -8
33 -19 6 -10 18 -21 27 -25 13 -5 15 -2 10 19 -9 34 19 34 51 -1 27 -29 40
-27 23 5 -9 18 -8 21 11 21 12 0 33 -12 46 -26 13 -14 27 -23 30 -20 4 4 1 12
-5 18 -18 18 -14 28 11 28 13 0 32 -9 42 -20 10 -11 25 -20 33 -20 12 0 12 4
-3 20 -18 20 -17 20 11 20 18 0 34 -7 42 -20 7 -11 20 -20 29 -20 14 0 14 2
-2 20 -18 19 -17 20 4 20 13 0 34 -9 48 -20 28 -22 55 -28 35 -8 -33 33 12 39
52 7 15 -12 30 -18 34 -14 4 4 1 10 -5 12 -7 3 -13 9 -13 14 0 16 36 10 63
-11 33 -27 56 -27 32 0 -17 19 -17 20 -1 20 10 0 29 -9 43 -20 34 -27 64 -27
32 0 l-24 19 28 1 c16 0 40 -9 54 -20 33 -26 51 -26 28 0 -17 19 -17 20 1 20
10 0 33 -9 49 -20 39 -26 53 -26 30 0 -18 19 -17 20 1 20 11 0 28 -6 39 -13
28 -19 55 -28 55 -18 0 4 -10 13 -22 19 -22 10 -22 11 7 11 17 0 39 -6 49 -14
11 -8 27 -15 35 -15 11 0 10 4 -5 15 -18 14 -18 14 6 15 14 0 34 -6 45 -13 11
-8 31 -17 45 -20 l25 -6 -25 20 -25 21 25 -5 c14 -2 42 -12 63 -21 43 -19 50
-14 10 8 l-28 15 30 0 c17 0 41 -6 55 -14 14 -8 30 -14 35 -14 6 0 -1 6 -15
14 l-25 14 30 0 c17 0 41 -6 55 -14 14 -8 30 -14 35 -14 6 0 -1 6 -15 14 l-25
14 30 0 c17 0 41 -6 55 -14 14 -8 32 -14 40 -14 9 0 4 6 -10 14 l-25 14 30 0
c17 0 41 -6 55 -14 14 -8 30 -14 35 -14 6 0 -1 6 -15 14 -33 19 -19 19 26 0
25 -10 82 -15 212 -16 97 -1 211 -6 252 -11 41 -6 87 -11 102 -12 14 0 24 -4
21 -8 -2 -5 -1 -8 4 -9 42 -4 147 -31 191 -51 24 -10 56 -20 70 -23 59 -11 78
-15 102 -24 90 -32 179 -46 181 -28 1 6 4 -4 8 -23 6 -35 7 -35 56 -35 34 1
59 7 77 20 38 28 35 52 -4 46 -5 0 -8 3 -8 8 0 5 -9 7 -20 4 -19 -5 -20 0 -20
106 0 61 4 111 9 111 5 0 11 -5 13 -10 2 -6 21 -12 43 -14 49 -6 116 -39 107
-54 -4 -5 -26 -9 -50 -8 -23 1 -42 0 -42 -4 0 -11 121 -33 193 -34 l72 -1 1
98 c0 67 -3 97 -11 97 -7 0 -12 7 -12 15 0 8 4 15 9 15 5 0 3 10 -3 22 -9 17
-9 24 5 33 9 7 16 21 15 31 0 11 -3 13 -6 7 -6 -17 -18 -16 -38 4 -16 15 -19
15 -48 -2 -54 -32 -57 -38 -35 -61 14 -16 16 -24 7 -29 -8 -5 -10 -4 -5 3 4 7
1 12 -9 12 -8 0 -20 11 -25 25 -6 16 -14 23 -25 19 -8 -3 -15 -2 -15 4 0 5 6
12 14 15 14 6 18 47 5 47 -4 0 -6 11 -5 25 1 17 8 26 25 30 18 5 21 9 12 14
-9 6 -10 11 -2 15 6 4 11 1 11 -6 1 -8 5 -7 14 5 10 13 15 15 19 5 4 -10 7
-11 18 0 11 10 11 12 -1 12 -7 0 -10 3 -7 6 4 4 13 1 22 -6 10 -8 15 -9 15 -1
0 6 10 11 22 11 20 0 18 -13 -3 -16 -5 -1 -12 -2 -15 -3 -4 0 -1 -8 6 -16 11
-13 11 -18 0 -28 -7 -7 -10 -7 -7 -1 4 6 0 20 -8 30 -12 16 -14 17 -15 3 0 -9
-7 -22 -16 -30 -13 -10 -17 -10 -24 0 -9 16 -30 6 -30 -15 0 -8 -5 -12 -11 -9
-11 7 -5 -57 7 -76 9 -14 24 0 17 16 -3 8 0 15 6 15 6 0 11 -5 11 -12 0 -6 8
-4 20 7 13 12 31 16 59 13 31 -3 37 -1 29 9 -6 7 -22 13 -37 13 -40 0 -71 4
-71 9 0 6 34 30 44 31 5 0 3 -7 -4 -15 -11 -13 -8 -15 18 -15 17 0 37 -3 46
-6 12 -5 15 4 14 45 0 45 -3 52 -24 57 -13 3 -24 9 -24 13 0 4 -14 6 -30 5
-17 -1 -33 2 -36 7 -3 5 -19 0 -35 -11 -16 -12 -33 -18 -39 -15 -5 3 -10 1
-10 -4 0 -6 -7 -11 -15 -11 -8 0 -19 -9 -25 -20 -7 -14 -7 -20 0 -20 5 0 10
-7 10 -16 0 -13 -5 -12 -26 5 -15 12 -32 21 -39 21 -7 0 -15 9 -18 20 -4 15 0
20 15 20 18 0 19 -2 7 -18 -7 -9 -1 -6 14 8 22 20 27 21 21 6 -6 -17 -5 -17
17 -6 44 23 49 31 38 51 -5 10 -15 19 -22 18 -9 0 -9 -2 0 -6 10 -3 10 -8 -1
-19 -21 -21 -27 -17 -16 10 5 13 6 27 2 32 -4 4 1 4 11 1 9 -4 17 -2 17 3 0 6
7 10 15 10 17 0 21 45 5 55 -6 4 -9 14 -8 23 2 9 -8 22 -22 29 l-25 13 28 0
c16 0 26 -4 22 -10 -3 -6 1 -10 10 -10 25 0 7 20 -34 38 -25 11 -31 17 -19 19
9 3 25 0 36 -6 16 -8 18 -6 17 12 -1 15 -8 21 -21 20 -10 -1 -13 0 -6 3 18 8
15 22 -9 47 -15 15 -23 18 -26 10 -3 -7 -12 -13 -21 -13 -20 0 -10 -10 15 -15
10 -2 20 -4 22 -4 2 -1 -4 -11 -12 -24 -8 -13 -13 -35 -10 -50 4 -22 2 -27
-15 -27 -11 0 -22 5 -24 10 -2 6 -11 4 -23 -5 -15 -13 -16 -15 -3 -11 9 3 19
-2 22 -11 4 -8 13 -13 21 -9 12 4 13 2 6 -12 -8 -14 -5 -23 12 -37 12 -11 23
-18 25 -17 1 1 2 -1 2 -5 0 -5 -9 -9 -20 -9 -11 -1 -20 2 -20 5 0 4 -6 15 -13
25 -11 15 -18 16 -34 7 -20 -10 -21 -8 -20 32 0 23 5 45 11 49 6 4 5 12 -3 22
-18 21 -7 46 17 39 12 -3 19 1 19 10 0 9 -8 12 -24 9 -22 -4 -23 -2 -23 55 0
65 6 79 27 61 10 -8 17 -7 27 7 13 18 14 18 20 -3 8 -26 32 -19 40 11 6 22 7
22 21 2 15 -19 15 -19 31 3 8 12 20 20 25 16 6 -3 3 -11 -8 -19 -17 -13 -17
-14 0 -33 16 -17 16 -21 2 -32 -9 -7 -15 -8 -15 -2 0 6 6 13 13 16 6 3 0 4
-15 2 -16 -2 -28 1 -28 6 0 5 -5 6 -11 2 -8 -4 -7 -9 2 -15 7 -4 17 -5 21 -3
4 3 8 -1 8 -10 0 -8 -6 -17 -12 -19 -10 -4 -10 -6 0 -6 6 -1 12 -8 12 -17 0
-8 4 -13 9 -10 4 3 8 -6 7 -21 -1 -21 4 -26 26 -29 16 -1 29 3 32 12 4 11 -1
13 -22 8 -18 -4 -23 -2 -14 3 7 6 10 17 6 28 -7 17 -6 17 24 -1 18 -10 32 -22
32 -27 0 -5 7 -7 15 -3 11 4 15 -1 15 -17 0 -16 -3 -18 -9 -8 -5 8 -11 9 -15
3 -7 -11 30 -28 52 -24 13 3 16 -28 6 -66 -7 -25 -24 -30 -24 -7 0 8 6 15 13
15 6 1 1 7 -13 15 -18 10 -20 14 -8 15 9 0 20 5 24 12 4 7 3 8 -4 4 -6 -4 -25
0 -42 9 -16 8 -30 11 -30 6 0 -5 7 -11 16 -13 13 -3 13 -5 -1 -23 -11 -14 -18
-16 -21 -8 -4 10 -11 10 -25 2 -28 -14 -21 -51 11 -61 21 -6 20 -7 -9 -5 -21
1 -36 -3 -39 -11 -2 -7 2 -13 9 -11 8 1 23 1 34 0 l20 -2 -20 -15 c-20 -16
-20 -16 0 -12 11 2 26 16 33 32 12 23 19 27 43 24 16 -3 29 -1 29 4 0 5 9 7
19 3 14 -4 25 3 41 25 12 16 17 30 11 30 -6 0 -11 4 -11 10 0 5 7 7 15 3 13
-4 15 1 10 27 -3 19 -9 38 -12 44 -5 7 -2 7 8 0 8 -6 24 -10 37 -8 26 5 30
-12 5 -20 -10 -2 -5 -4 11 -3 18 1 31 -4 34 -12 3 -10 0 -12 -13 -7 -14 5 -17
2 -13 -18 5 -25 -7 -37 -29 -29 -7 2 -9 11 -6 20 4 10 2 14 -5 9 -6 -3 -10
-15 -9 -26 1 -10 5 -16 11 -13 5 3 6 1 2 -5 -4 -7 -16 -12 -26 -12 -13 0 -17
-5 -14 -14 3 -9 -1 -13 -13 -13 -14 2 -18 -6 -20 -36 -1 -43 3 -45 29 -15 16
19 22 20 38 10 11 -7 26 -12 34 -12 7 0 19 -7 26 -15 10 -13 10 -19 -3 -33
-13 -14 -14 -21 -5 -30 9 -9 5 -18 -17 -38 -17 -16 -31 -22 -33 -15 -4 13 -32
15 -32 2 0 -5 6 -12 13 -14 7 -4 6 -6 -4 -6 -19 -1 -42 23 -32 32 3 4 1 7 -5
7 -7 0 -12 -17 -12 -45 0 -29 4 -45 13 -45 9 0 9 -2 -1 -9 -9 -6 -12 -24 -8
-62 2 -30 5 -54 6 -54 1 0 4 -13 6 -28 3 -18 1 -26 -5 -22 -7 4 -10 -25 -10
-80 0 -75 3 -86 17 -84 44 4 73 -1 66 -13 -5 -7 -3 -8 6 -3 18 11 99 12 104 0
3 -5 5 -4 5 3 1 6 7 12 15 12 24 0 29 20 10 41 -9 10 -14 22 -11 26 4 3 7 2 7
-4 0 -6 12 -9 28 -7 15 2 19 1 10 -2 -15 -4 -15 -9 -5 -25 10 -17 9 -23 -8
-36 -18 -14 -14 -15 54 -11 40 2 68 2 62 0 -18 -6 -13 -18 10 -19 47 -4 135
-26 156 -39 27 -17 37 -18 27 -2 -5 8 -2 9 9 5 9 -3 19 -2 23 4 4 6 12 5 22
-3 13 -11 14 -11 7 2 -5 9 0 8 13 -4 12 -11 20 -21 17 -24 -3 -3 1 -12 8 -20
10 -13 9 -14 -1 -8 -14 9 -56 17 -87 17 -10 0 -26 5 -34 12 -12 9 -13 9 -7 0
5 -9 0 -13 -16 -14 -31 -2 61 -17 140 -23 35 -3 68 -8 73 -11 5 -4 14 -3 19 0
15 9 -8 35 -25 29 -7 -3 -16 -1 -20 5 -14 23 38 10 57 -14 11 -14 25 -25 31
-24 8 0 8 2 -1 6 -6 2 -10 9 -6 14 3 5 0 9 -5 9 -6 0 -11 4 -11 9 0 17 40 7
46 -11 5 -16 7 -16 20 -4 8 8 14 19 14 25 0 9 31 31 44 31 15 0 4 -18 -14 -23
-11 -3 -20 -10 -20 -16 0 -6 7 -7 17 -4 12 5 14 3 8 -7 -5 -9 -4 -11 4 -6 6 4
9 12 6 17 -4 5 -2 9 3 9 5 0 14 10 21 23 7 14 10 15 6 3 -4 -15 -1 -17 20 -12
38 10 21 -16 -26 -37 -30 -14 -43 -16 -53 -8 -10 9 -15 8 -20 -5 -3 -8 -6 -16
-6 -17 0 -1 21 -3 48 -4 26 -1 71 -5 100 -7 28 -3 52 -2 52 3 0 5 8 12 17 15
10 4 14 4 10 0 -9 -10 61 -43 90 -44 12 0 25 -5 28 -10 4 -6 14 -9 23 -8 9 2
18 -4 19 -12 3 -12 -10 -15 -72 -15 -41 0 -75 3 -75 8 0 4 -5 7 -11 7 -5 0 -7
-5 -3 -11 5 -9 -1 -10 -22 -5 -23 5 -25 4 -12 -4 10 -6 32 -12 50 -13 18 -1
35 -5 38 -9 10 -13 130 -21 130 -9 0 6 5 11 11 11 5 0 8 -4 4 -9 -3 -6 15 -13
40 -16 30 -5 42 -11 38 -19 -5 -8 -3 -8 8 0 8 6 29 12 46 12 18 0 38 4 45 8
11 7 68 12 68 6 0 -1 -10 -7 -22 -12 -20 -8 -19 -9 10 -6 17 1 35 6 40 11 4 5
1 5 -7 0 -9 -5 -12 -4 -7 3 5 9 12 8 26 0 14 -9 16 -15 7 -21 -7 -5 -1 -7 16
-4 21 3 27 1 23 -9 -3 -8 0 -14 6 -14 8 0 8 -4 -1 -12 -11 -10 -14 -10 -18 0
-3 6 -9 12 -14 12 -6 0 -7 -5 -3 -11 5 -8 -8 -10 -43 -5 -36 4 -50 2 -50 -7 0
-8 14 -12 36 -12 49 1 61 -4 54 -22 -5 -13 -3 -13 14 -3 13 9 32 10 59 5 21
-5 44 -7 49 -5 25 7 93 -1 113 -13 8 -6 12 -2 12 11 0 15 -5 19 -20 15 -14 -4
-20 -1 -18 8 5 24 22 38 34 28 7 -5 16 -9 20 -8 21 4 44 -2 44 -10 0 -5 -8 -7
-19 -4 -22 5 -34 -9 -25 -30 3 -9 13 -13 25 -10 14 4 19 0 19 -15 0 -15 9 -21
42 -25 23 -3 51 -1 61 5 16 8 19 7 14 -5 -4 -10 3 -17 21 -22 50 -14 73 -13
78 0 3 8 16 20 28 29 19 12 23 12 23 0 0 -8 -6 -14 -13 -14 -7 0 -16 -5 -20
-11 -4 -7 0 -9 14 -5 11 4 23 2 27 -4 3 -6 12 -7 18 -3 8 4 7 1 -1 -9 -11 -14
-10 -17 7 -23 29 -9 41 1 41 36 0 29 -22 41 -35 19 -8 -13 -25 -13 -25 -1 0 5
14 12 30 16 l30 7 0 99 c0 77 -3 99 -12 93 -10 -6 -10 -4 0 7 9 10 12 116 12
461 0 441 0 448 -20 448 -11 0 -20 -5 -20 -12 0 -9 -3 -9 -12 0 -16 16 -55 15
-61 -1 -4 -9 -6 -9 -6 1 -1 6 -14 12 -30 12 -16 0 -32 -6 -34 -12 -4 -10 -6
-10 -6 0 -1 18 -42 15 -57 -6 -13 -16 -13 -16 -14 1 0 9 -4 17 -10 17 -5 0
-10 8 -10 19 0 26 -21 39 -50 31 -18 -5 -24 -12 -23 -28 2 -15 -3 -22 -14 -22
-14 0 -14 -2 2 -20 15 -16 16 -22 5 -36 -11 -13 -11 -17 0 -24 11 -7 11 -11
-1 -22 -8 -8 -21 -13 -29 -11 -8 2 -4 -3 10 -11 18 -10 29 -11 37 -4 8 6 13 7
13 1 0 -5 -11 -15 -25 -21 -26 -12 -34 -32 -12 -32 7 0 6 -4 -4 -10 -10 -6
-16 -26 -18 -57 -2 -38 0 -46 10 -35 24 23 29 11 20 -40 0 -5 -11 -6 -23 -4
-21 3 -23 8 -20 51 2 41 0 46 -12 36 -8 -7 -12 -19 -9 -27 8 -22 -5 -17 -18 7
-9 17 -8 23 2 30 7 4 10 11 6 16 -5 4 -12 1 -16 -6 -10 -16 -34 -5 -28 12 2 7
0 20 -4 29 -6 10 -5 19 2 24 8 4 7 9 -2 15 -10 6 -11 9 -1 9 6 0 12 10 11 23
0 21 -1 21 -11 -3 -6 -14 -12 -28 -12 -32 -1 -3 -4 -9 -8 -13 -4 -4 -4 -14 -1
-23 3 -10 -3 -6 -13 8 -10 14 -17 30 -16 35 2 6 0 7 -4 3 -4 -4 -13 -3 -21 3
-22 19 -16 -15 7 -36 13 -12 18 -25 14 -38 -4 -11 -2 -17 3 -14 6 4 24 -13 41
-36 29 -41 30 -44 11 -55 -26 -16 -29 -15 -29 9 0 13 4 18 12 13 7 -4 8 -3 4
4 -4 7 -14 12 -23 12 -9 0 -13 6 -9 15 3 9 0 15 -9 15 -9 0 -12 -6 -8 -17 4
-11 3 -14 -5 -9 -7 4 -12 1 -12 -9 0 -12 6 -15 23 -9 12 3 19 3 15 -1 -4 -4
-21 -9 -38 -11 -23 -3 -30 0 -30 13 0 13 -6 11 -28 -10 l-28 -27 -29 30 c-19
20 -24 30 -14 30 12 0 12 2 -1 10 -22 14 -27 12 -25 -10 1 -11 16 -36 35 -55
18 -19 31 -38 27 -41 -4 -4 -9 1 -13 10 -8 21 -34 21 -34 -1 0 -15 -2 -16 -9
-3 -6 8 -8 17 -5 21 2 4 0 10 -6 14 -6 4 -8 10 -5 15 3 5 -13 7 -35 5 -22 -2
-40 0 -40 5 0 4 11 7 25 5 14 -1 28 2 31 7 3 4 2 8 -3 7 -4 -1 -15 -1 -23 0
-13 1 -13 3 -1 10 8 5 19 8 25 7 6 -2 8 -1 4 1 -3 2 -3 17 2 33 4 16 6 31 3
34 -3 3 0 12 7 21 10 12 10 18 0 30 -15 18 1 21 31 5 22 -12 24 -7 7 23 -10
20 -10 21 6 8 13 -11 16 -11 14 -1 -2 7 3 15 11 18 8 2 11 0 8 -5 -4 -6 5 -15
18 -21 28 -13 32 -5 10 24 -16 22 -20 48 -5 39 6 -3 10 -1 10 5 0 7 -7 10 -15
6 -8 -3 -15 -1 -15 4 0 6 19 8 44 5 37 -5 48 -2 65 17 12 12 22 29 22 37 2 24
4 34 13 54 6 12 2 23 -13 36 -14 12 -18 22 -11 26 5 3 10 2 10 -4 0 -6 8 -15
18 -20 15 -8 17 -5 16 22 -2 33 -4 34 -38 21 -13 -5 -17 -4 -13 3 5 7 0 9 -13
6 -16 -4 -19 -2 -14 11 4 10 1 16 -7 16 -12 0 -12 2 0 9 20 13 -5 24 -28 12
-14 -8 -20 -7 -24 4 -4 9 -1 12 9 8 7 -3 14 0 14 6 0 6 7 11 16 11 14 0 15 2
3 17 -12 15 -12 16 1 8 13 -8 13 -7 1 8 -15 19 -26 23 -15 5 5 -7 2 -9 -9 -5
-12 4 -14 2 -10 -10 4 -11 2 -14 -8 -11 -9 3 -13 16 -11 35 4 37 -20 50 -51
28 -12 -8 -24 -15 -28 -15 -9 0 -4 124 5 138 4 7 2 20 -4 29 -9 15 -10 14 -4
-6 4 -16 3 -21 -5 -17 -7 4 -10 2 -9 -5 2 -7 -5 -15 -14 -17 -23 -5 -24 25 -1
50 9 11 11 18 5 18 -17 0 -15 21 6 43 14 17 14 19 2 15 -9 -3 -24 0 -35 8 -10
8 -14 14 -8 14 6 0 13 10 16 23 6 21 5 21 -8 3 -13 -18 -41 -14 -30 5 4 5 0 9
-8 9 -10 0 -13 7 -10 19 3 10 -1 22 -8 26 -7 5 -10 4 -6 -2 4 -6 0 -16 -8 -23
-8 -7 -12 -16 -9 -21 3 -5 1 -9 -4 -9 -5 0 -12 -10 -16 -22 -5 -18 -8 -20 -15
-9 -6 9 -6 24 0 38 5 14 9 35 9 49 0 13 3 24 8 24 4 0 18 10 32 21 15 13 18
19 8 16 -13 -5 -16 -1 -13 15 3 12 10 25 16 28 7 5 5 9 -6 14 -23 8 -35 -1
-28 -21 5 -12 2 -12 -15 3 -24 20 -29 44 -10 44 9 0 9 3 1 11 -7 7 -20 9 -30
5 -14 -6 -15 -9 -4 -15 8 -5 9 -11 3 -15 -5 -3 -8 -17 -7 -30 2 -18 -1 -23
-11 -19 -17 6 -18 25 -3 40 13 13 4 33 -16 33 -8 0 -11 7 -8 20 3 11 1 20 -5
20 -6 0 -10 -12 -9 -27 1 -19 -3 -28 -13 -28 -8 0 -15 5 -15 12 0 26 -13 21
-19 -7 -3 -17 -10 -29 -16 -25 -6 3 -7 0 -4 -9 3 -9 9 -16 13 -16 4 0 7 -9 7
-20 0 -25 0 -25 -42 7 -30 22 -34 30 -29 55 4 17 2 28 -4 28 -6 0 -8 7 -5 15
5 12 2 14 -12 8 -17 -6 -18 -5 -4 11 13 16 12 20 -8 36 -12 10 -22 23 -22 29
0 6 -5 11 -11 11 -5 0 -7 5 -3 12 4 7 3 8 -5 4 -6 -4 -9 -16 -6 -25 3 -10 -1
-24 -10 -31 -18 -15 -20 -31 -3 -28 7 2 13 -4 13 -12 0 -8 -8 -14 -17 -14 -16
2 -16 0 -3 -19 17 -25 20 -41 5 -32 -5 3 -10 1 -10 -5 0 -7 -8 -9 -20 -5 -17
5 -20 2 -20 -22 0 -19 -3 -24 -9 -15 -7 11 -9 11 -14 -2 -4 -9 -13 -16 -22
-16 -14 0 -17 -18 -5 -30 12 -12 29 -60 20 -60 -5 0 -12 -9 -15 -20 -3 -11
-11 -20 -17 -20 -6 0 -9 3 -5 6 7 7 -12 28 -33 37 -9 3 -10 6 -2 6 6 1 12 10
12 21 0 11 5 20 10 20 15 0 12 24 -6 46 -13 16 -15 16 -10 2 3 -10 1 -20 -4
-23 -12 -7 -40 -65 -40 -83 0 -8 -6 -12 -13 -9 -7 3 -19 -4 -26 -14 -6 -11
-16 -17 -21 -14 -6 4 -8 10 -5 15 3 5 0 12 -6 16 -8 4 -9 3 -5 -4 4 -7 2 -12
-4 -12 -6 0 -8 -6 -4 -12 5 -10 4 -10 -6 -1 -13 12 -43 6 -35 -7 3 -4 -2 -11
-10 -14 -19 -7 -37 34 -35 79 3 44 1 59 -7 52 -3 -4 -12 -2 -20 4 -17 15 -16
1 2 -31 8 -14 14 -32 14 -40 0 -10 -3 -8 -8 5 -8 19 -8 19 -20 -4 -11 -19 -11
-25 0 -32 7 -4 10 -11 6 -15 -3 -4 6 -18 21 -30 32 -28 23 -31 -16 -7 l-27 17
19 -21 c18 -22 18 -22 -8 -29 -21 -5 -24 -9 -15 -20 6 -8 19 -14 28 -15 10 0
7 -4 -8 -10 -18 -7 -27 -6 -32 3 -4 7 -12 9 -16 4 -4 -4 5 -18 21 -31 15 -12
24 -24 19 -26 -5 -2 0 -24 11 -49 l20 -45 6 35 6 35 7 -28 c4 -16 18 -32 32
-37 14 -5 25 -14 25 -20 0 -6 -5 -8 -12 -4 -7 4 -8 3 -4 -5 4 -6 2 -18 -4 -26
-7 -8 -8 -15 -3 -15 5 0 15 11 21 24 6 14 19 29 29 35 15 8 19 6 20 -10 1 -11
-1 -17 -5 -15 -4 3 -9 -3 -10 -12 -6 -63 -21 -95 -40 -87 -8 3 -20 -3 -28 -12
-12 -16 -12 -16 -7 7 6 24 5 24 -13 9 -29 -25 -44 -31 -44 -20 0 6 7 11 16 11
9 0 14 6 11 13 -2 6 -12 11 -21 11 -20 -2 -20 3 -2 21 7 8 16 11 20 8 10 -10
7 10 -4 27 -6 10 -10 11 -10 3 0 -14 -49 -18 -51 -5 0 4 -2 15 -4 25 -5 25 14
21 24 -5 4 -12 10 -17 14 -11 4 6 0 27 -8 46 -8 19 -11 38 -7 42 4 5 1 4 -7 0
-11 -6 -13 -4 -8 9 4 10 3 15 -3 11 -14 -9 -12 8 3 24 10 11 9 12 -1 6 -9 -4
-15 0 -19 13 -2 11 -14 23 -26 26 -17 4 -18 7 -8 20 8 9 17 14 21 11 7 -5 17
14 26 50 23 89 21 116 -14 201 -19 46 -39 81 -44 77 -6 -3 -5 -9 3 -15 10 -7
11 -11 3 -14 -7 -3 -10 -14 -7 -24 4 -15 0 -20 -16 -20 -12 0 -20 4 -16 9 3 5
0 13 -6 17 -8 5 -9 3 -4 -6 6 -10 4 -12 -8 -7 -8 3 -21 -1 -27 -8 -7 -8 -17
-12 -22 -8 -6 3 -8 0 -6 -8 3 -8 10 -13 16 -12 6 2 10 -6 9 -16 -1 -15 -5 -17
-18 -10 -10 5 -20 14 -22 21 -3 7 -6 3 -6 -10 -1 -19 -5 -21 -28 -16 -27 7
-28 6 -10 -13 9 -11 14 -23 10 -26 -3 -4 -1 -7 6 -7 7 0 10 -4 6 -10 -3 -5
-12 -7 -20 -3 -16 6 -21 -12 -5 -22 5 -3 6 -13 3 -21 -3 -9 0 -20 8 -25 11 -7
10 -9 -5 -9 -13 0 -17 -5 -13 -19 3 -12 -1 -22 -10 -25 -8 -3 -11 -1 -8 4 3 6
1 10 -5 10 -7 0 -10 6 -7 14 11 29 -65 36 -95 9 -11 -9 -18 -11 -18 -5 0 7 6
12 13 12 8 0 8 3 -2 9 -12 8 -11 12 3 27 13 12 14 19 5 24 -18 12 -44 4 -43
-12 1 -8 -9 -15 -25 -16 -14 -1 -21 2 -16 6 6 4 11 16 13 27 2 14 0 16 -6 7
-6 -10 -15 -7 -35 12 -14 13 -23 27 -20 30 4 3 1 6 -5 6 -7 0 -12 7 -12 16 0
8 -4 13 -9 10 -5 -4 -12 0 -14 6 -8 18 -27 -11 -20 -29 3 -7 0 -13 -7 -13 -8
0 -11 -9 -8 -25 6 -27 -9 -35 -18 -10 -4 8 -11 12 -17 8 -6 -4 -8 0 -4 10 4
11 1 17 -8 17 -9 0 -12 -6 -9 -15 5 -12 2 -12 -25 1 -26 13 -31 21 -31 51 0
20 7 45 17 55 9 10 12 18 7 18 -5 0 -9 28 -8 63 0 34 -3 68 -9 74 -5 7 -7 22
-4 34 4 14 2 19 -7 16 -7 -3 -13 1 -13 9 0 7 4 11 9 8 4 -3 8 4 8 16 0 12 4
18 10 15 5 -3 2 8 -8 24 -9 17 -20 31 -25 31 -4 0 0 -11 9 -25 10 -15 12 -25
5 -25 -6 0 -11 6 -11 14 0 7 -7 19 -15 26 -17 14 -21 35 -5 25 6 -3 10 -2 10
4 0 16 -30 31 -70 33 -35 2 -51 -3 -44 -13 3 -6 14 -9 23 -6 22 5 41 -10 64
-51 12 -20 16 -40 11 -50 -4 -9 -6 -21 -5 -25 1 -5 -3 -6 -9 -2 -5 3 -18 1
-29 -4 -28 -16 -41 6 -26 43 7 18 15 24 19 17 10 -16 26 -14 26 5 0 8 -4 12
-10 9 -6 -3 -10 1 -10 11 0 15 -2 15 -27 -2 -20 -13 -25 -13 -16 -2 7 8 9 19
5 23 -4 5 0 5 8 0 12 -6 13 -5 3 6 -16 16 -33 2 -36 -29 0 -11 -4 -19 -8 -16
-8 5 -22 -35 -19 -55 1 -13 -1 -13 -14 -1 -14 11 -19 10 -29 -4 -12 -16 -13
-16 -14 3 -1 12 2 21 7 21 5 0 22 12 39 26 30 25 41 54 20 54 -5 0 -7 -4 -4
-10 3 -6 -4 -10 -17 -10 -18 0 -20 2 -8 10 8 5 11 10 6 10 -5 0 1 8 12 19 26
22 28 33 5 24 -13 -5 -15 -2 -11 14 3 12 2 26 -2 33 -4 7 -7 1 -7 -15 -1 -15
-8 -32 -16 -37 -10 -5 -14 -16 -11 -26 4 -12 0 -10 -13 6 -11 13 -25 21 -33
17 -11 -4 -16 3 -17 24 -2 24 3 32 25 40 21 7 1 10 -84 10 -104 1 -113 3 -138
26 -27 25 -42 33 -32 16 10 -15 -5 -41 -23 -41 -14 0 -14 2 -1 10 12 8 10 10
-8 10 -13 0 -20 -4 -17 -10 4 -6 -77 -9 -225 -9 -126 0 -234 -2 -239 -6 -5 -3
-17 2 -25 11 -9 8 -16 11 -16 5 0 -6 -4 -11 -10 -11 -5 0 -10 8 -10 18 0 22
-17 48 -25 40 -4 -4 -3 -13 1 -20 14 -22 13 -38 -2 -38 -8 0 -14 6 -14 13 0 9
-3 8 -9 -2 -7 -11 -10 -9 -16 8 -3 12 -21 28 -38 36 -18 9 -24 13 -14 10 14
-4 16 0 13 20 -3 14 -1 23 5 20 5 -4 9 -15 9 -27 0 -14 5 -18 15 -14 8 3 14 2
14 -2 -3 -19 2 -26 10 -13 6 10 3 20 -12 33 -21 17 -21 18 -2 12 12 -3 16 -2
9 3 -6 4 -16 17 -23 28 l-13 20 6 -20 6 -20 -18 20 c-23 26 -45 30 -40 8 2
-10 -6 -26 -17 -35 -18 -15 -19 -18 -4 -33 9 -9 25 -18 35 -19 11 -2 20 -12
22 -24 4 -25 -5 -27 -32 -7 -12 9 -25 11 -41 5 -13 -5 -26 -6 -30 -2 -3 3 -3
-2 1 -12 5 -13 2 -17 -12 -14 -11 2 -26 11 -34 20 -8 9 -27 20 -41 23 -20 5
-27 1 -37 -19 -6 -14 -19 -26 -27 -26 -9 0 -13 5 -10 10 4 6 11 8 16 5 5 -4 9
-3 10 2 0 4 2 15 4 24 1 8 -4 24 -13 35 -14 18 -14 18 -8 0 6 -17 5 -17 -11
-5 -11 9 -14 10 -9 2 6 -12 -4 -18 -26 -14 -4 0 -5 -6 -2 -14 4 -8 1 -15 -5
-15 -6 0 -11 -7 -11 -15 0 -20 -17 -19 -29 3 -8 14 -12 15 -23 3 -9 -10 -10
-12 0 -7 6 4 12 2 12 -3 0 -14 -6 -14 -32 0 -15 8 -19 8 -14 0 5 -8 -164 -11
-611 -11 -340 0 -1510 -3 -2601 -6 l-1984 -6 -14 21 c-8 11 -20 21 -26 21 -6
0 -3 -9 7 -20 10 -11 15 -23 12 -27 -4 -3 3 -11 15 -17 12 -6 24 -18 26 -26 5
-13 3 -13 -11 -1 -13 10 -17 10 -17 1 0 -7 -7 -10 -15 -6 -18 7 -20 -5 -3 -22
10 -10 5 -11 -22 -6 -19 4 -36 11 -38 16 -6 15 -22 8 -23 -9 0 -14 -3 -13 -11
5 -8 16 -20 22 -42 22 -23 0 -27 -3 -18 -12 16 -16 15 -31 -2 -25 -8 3 -23 -3
-35 -14 -12 -11 -21 -15 -21 -9 0 6 -6 10 -12 9 -36 -4 -41 1 -23 21 18 20 18
20 -16 20 -19 1 -60 2 -91 3 -43 2 -59 -1 -63 -12 -3 -8 0 -18 7 -22 8 -5 13
-29 13 -63 0 -51 -1 -54 -17 -39 -12 11 -27 14 -50 9 -20 -3 -28 -3 -20 3 8 4
13 11 13 15 -3 24 0 28 14 16 8 -7 15 -8 15 -3 0 12 -40 48 -62 56 -10 4 -18
10 -18 15 0 11 48 3 56 -9 3 -5 13 -9 22 -9 12 0 17 9 18 31 1 21 -3 29 -12
25 -20 -8 -17 11 2 22 11 6 13 11 5 16 -6 4 -11 12 -11 18 0 6 8 4 18 -5 10
-10 23 -17 28 -17 5 0 2 5 -6 10 -10 6 -11 10 -2 10 6 0 11 5 10 11 -2 6 3 14
11 17 9 3 12 0 9 -10 -3 -8 3 -25 14 -39 19 -24 20 -24 15 -2 -5 20 -2 22 21
17 15 -3 38 -9 52 -14 14 -5 32 -8 40 -8 9 1 28 -2 43 -6 30 -7 37 9 15 33
-10 11 -10 14 0 18 6 3 12 14 12 26 0 11 -3 17 -7 14 -3 -4 -13 -2 -20 5 -17
14 -32 -4 -33 -37 0 -11 -5 -27 -10 -35 -8 -13 -13 -12 -36 6 -15 11 -30 27
-32 35 -3 9 3 7 17 -6 l22 -19 -7 28 c-5 22 -4 27 6 21 8 -5 18 -1 26 10 10
13 21 16 44 12 19 -4 30 -2 30 4 0 7 12 9 30 7 17 -3 33 -1 36 4 3 4 14 8 25
8 21 0 27 19 7 21 -7 1 -2 5 12 9 l25 8 -27 1 c-16 1 -37 10 -48 21 l-20 20 0
-20 c0 -11 -7 -20 -15 -20 -9 0 -12 6 -8 17 4 11 3 14 -5 9 -7 -4 -12 -15 -13
-24 0 -10 -3 -12 -6 -5 -3 10 -9 10 -23 0 -15 -9 -22 -9 -32 1 -11 11 -9 12 7
7 16 -6 17 -5 5 4 -8 6 -23 11 -32 11 -10 0 -18 5 -18 10 0 6 6 10 13 9 34 -4
57 2 57 17 0 8 5 12 10 9 6 -3 10 -1 10 5 0 6 -7 13 -15 16 -8 4 -15 14 -15
23 0 14 2 14 11 1 8 -11 12 -12 16 -2 2 6 17 12 31 13 15 0 21 3 15 6 -7 2
-13 9 -13 14 0 6 5 7 10 4 9 -6 14 8 11 28 -2 11 17 9 24 -3 3 -5 14 -10 23
-10 16 1 16 2 0 14 -10 7 -18 16 -18 20 0 3 8 6 18 7 10 0 4 5 -13 11 -16 6
-38 21 -48 32 -11 12 -25 20 -33 18 -9 -2 -12 3 -8 13 6 14 18 19 37 16 5 -1
6 3 3 8 -3 5 -3 16 0 25 5 13 9 14 20 5 17 -14 19 2 2 20 -11 10 -10 11 5 6
16 -7 23 8 18 38 -1 4 8 3 19 -3 20 -11 30 3 10 15 -5 3 -10 11 -10 16 0 6 4
8 9 5 11 -7 23 22 14 36 -4 7 -1 8 6 3 7 -4 11 -16 8 -26 -3 -11 -1 -17 4 -13
5 3 9 10 9 16 0 6 8 17 18 24 14 10 20 10 34 -2 21 -20 33 -1 12 20 -14 14
-14 18 0 31 9 9 12 23 9 33 -6 14 -8 13 -14 -8 -4 -14 -7 -20 -8 -13 -1 6 -4
18 -7 26 -6 16 6 17 38 3 11 -5 24 0 39 15 14 14 16 20 7 17 -9 -4 -21 -1 -27
5 -20 20 -12 29 20 22 22 -5 29 -4 25 4 -5 7 1 11 15 11 18 0 19 2 9 15 -11
13 -10 14 4 9 9 -4 16 -3 15 2 -1 5 -1 16 0 24 1 11 4 11 13 2 16 -16 28 -15
28 2 0 8 6 17 13 19 7 3 5 6 -5 6 -10 1 -18 6 -18 11 0 16 15 12 46 -12 15
-13 25 -17 20 -10 -4 7 -26 24 -48 38 -22 14 -37 28 -33 32 4 4 10 1 12 -5 3
-7 17 -13 31 -12 25 0 25 1 7 10 -18 8 -18 9 5 8 48 -2 52 0 38 15 -7 7 -19
11 -25 9 -7 -3 -13 0 -13 5 0 6 10 13 23 15 12 3 1 3 -25 2 -26 -2 -50 1 -54
6 -3 5 -10 7 -15 4 -13 -8 -51 4 -44 15 8 13 -6 70 -16 64 -5 -3 -9 1 -9 9 0
8 -7 18 -16 21 -14 5 -16 1 -11 -24 6 -27 5 -29 -12 -18 -15 9 -23 9 -35 -1
-9 -7 -13 -18 -9 -25 4 -6 -1 -5 -10 3 -9 7 -17 10 -17 5 0 -4 -7 1 -15 12 -8
10 -15 14 -15 8 0 -14 24 -36 34 -29 3 3 2 0 -3 -6 -6 -8 -16 -7 -32 2 -22 11
-23 11 -11 -4 10 -12 11 -21 3 -34 -6 -10 -11 -12 -11 -5 0 21 -20 13 -20 -8
0 -23 0 -23 33 -11 21 8 24 7 23 -11 -1 -12 -8 -23 -16 -25 -13 -4 -13 -3 0 6
9 7 10 11 3 11 -6 0 -14 -4 -18 -10 -3 -5 -13 -6 -22 -3 -12 5 -15 2 -10 -9 4
-12 0 -15 -16 -11 -16 4 -18 2 -8 -5 7 -5 11 -14 7 -20 -3 -6 3 -12 16 -14 12
-2 23 -10 25 -18 4 -13 3 -13 -6 0 -9 13 -11 12 -11 -4 0 -15 -3 -16 -15 -6
-12 10 -15 10 -15 0 0 -8 -4 -9 -12 -3 -7 5 -24 6 -38 2 -14 -4 -18 -8 -10 -9
10 -1 9 -4 -5 -9 -17 -7 -15 -9 14 -16 24 -5 36 -3 42 6 7 11 9 10 9 -3 0 -12
8 -18 22 -18 12 0 18 -3 14 -7 -10 -11 -36 -12 -36 -2 0 14 -30 11 -30 -3 -1
-8 -6 -6 -14 4 -17 23 -27 12 -16 -18 8 -21 7 -24 -13 -24 -12 0 -28 -4 -35
-9 -10 -6 -6 -10 15 -14 15 -3 30 -1 31 4 2 5 9 9 15 9 5 0 7 -3 4 -7 -4 -3
-2 -12 4 -19 8 -10 3 -12 -28 -9 -31 4 -33 3 -13 -4 14 -5 19 -9 12 -10 -7 -1
-10 -6 -6 -12 4 -8 0 -8 -15 0 -11 7 -21 8 -21 4 0 -4 -5 -2 -12 5 -18 18 -30
14 -19 -6 9 -16 6 -18 -22 -14 -24 2 -28 1 -17 -7 8 -5 17 -8 20 -6 4 2 7 -2
7 -10 0 -8 -4 -15 -9 -15 -4 0 -8 -9 -8 -20 0 -12 6 -20 13 -19 24 3 37 -1 37
-12 0 -6 -7 -8 -16 -5 -9 4 -24 0 -33 -8 -14 -13 -16 -11 -15 25 0 30 -5 44
-20 55 -20 14 -20 14 12 26 17 7 32 16 32 20 0 11 -47 21 -59 13 -6 -3 -11 -2
-11 2 0 5 10 13 22 18 12 6 23 21 25 35 2 17 0 21 -6 11 -7 -11 -10 -11 -17 0
-4 7 -3 14 4 17 7 2 10 8 6 13 -3 5 2 9 11 9 9 0 13 5 10 10 -3 6 1 13 9 16 9
3 13 10 10 15 -3 5 2 12 11 15 12 5 13 10 4 20 -6 7 -8 17 -6 21 3 5 -3 10
-14 10 -11 1 -17 -2 -14 -8 5 -7 -38 -14 -47 -7 -2 1 -14 -4 -27 -11 -19 -11
-21 -15 -10 -23 11 -8 10 -8 -4 -4 -10 3 -21 6 -23 6 -2 0 -4 5 -4 10 0 6 6
10 14 10 8 0 17 7 20 16 3 8 10 13 16 9 10 -6 50 29 50 43 0 15 -44 33 -70 29
-17 -3 -26 -11 -28 -26 -2 -14 -9 -21 -17 -18 -7 3 -18 0 -24 -6 -8 -8 -11 -8
-11 0 0 7 5 15 11 18 6 4 8 13 5 21 -3 7 0 16 6 20 7 4 8 3 4 -4 -4 -7 -2 -12
3 -12 6 0 11 15 11 34 0 19 5 38 10 41 6 3 10 1 10 -4 0 -6 5 -11 11 -11 12 0
44 30 32 30 -4 0 -1 5 7 11 12 8 11 9 -5 7 -11 -2 -23 -7 -27 -13 -4 -5 -11 3
-17 18 -6 15 -15 27 -21 27 -5 0 -9 3 -9 8 3 20 -2 32 -16 32 -8 0 -15 4 -15
10 0 5 -3 9 -7 9 -5 -1 -16 -1 -25 0 -25 1 -23 31 2 31 11 0 20 6 20 13 1 6 7
1 15 -13 l14 -25 1 23 c0 13 4 20 10 17 6 -4 9 -14 6 -23 -3 -11 7 -26 25 -40
29 -23 29 -23 29 -3 0 12 6 21 13 21 8 0 14 7 14 15 0 8 -5 15 -11 15 -6 0 -4
5 4 10 13 8 12 10 -4 10 -14 0 -16 3 -7 14 14 16 21 75 11 81 -4 3 -4 22 0 42
8 43 7 90 -3 98 -4 3 -5 2 -2 -1 8 -12 -15 -44 -32 -44 -15 0 -14 2 1 19 15
17 15 19 1 25 -15 5 -15 9 2 36 19 33 32 37 52 18 10 -11 11 -10 6 4 -4 9 -16
19 -28 23 -14 4 -17 8 -9 12 6 2 12 9 12 14 0 6 -4 8 -8 5 -4 -2 -14 -1 -22 5
-13 7 -12 9 3 9 9 0 17 4 17 9 0 5 3 17 7 26 5 14 2 16 -17 10 -18 -6 -22 -4
-17 8 3 9 -1 18 -9 21 -9 3 -12 1 -9 -4 12 -19 -6 -31 -22 -14 -12 12 -18 13
-24 3 -4 -7 -5 -19 -1 -27 4 -12 -1 -14 -33 -8 -35 7 -65 26 -65 41 0 4 7 4
16 1 8 -3 13 -2 10 3 -3 5 6 9 19 9 20 0 23 -3 15 -13 -7 -8 -7 -15 -2 -19 16
-9 23 23 11 46 -9 17 -13 18 -21 7 -7 -10 -8 -9 -3 6 4 11 8 26 8 33 0 6 5 12
10 12 5 0 7 9 4 20 -3 12 1 23 10 29 10 5 12 11 5 15 -5 3 -12 -1 -16 -9 -3
-8 -11 -15 -17 -15 -7 0 -20 -6 -28 -14 -14 -13 -16 -11 -18 16 -2 23 1 29 13
24 8 -3 12 -2 9 4 -3 5 4 14 15 20 22 12 27 1 8 -20 -11 -12 -10 -12 3 -2 8 6
26 8 39 5 15 -4 21 -3 16 5 -3 6 -2 13 4 17 13 8 3 25 -15 25 -9 0 -12 -6 -9
-15 4 -8 1 -15 -4 -15 -6 0 -14 9 -17 20 -7 23 -25 27 -25 5 0 -8 -5 -15 -11
-15 -5 0 -7 5 -4 10 3 6 -1 10 -9 10 -9 0 -16 -8 -16 -18 0 -11 -9 -29 -20
-42 -25 -28 -26 -41 -2 -34 14 5 15 4 2 -5 -8 -6 -24 -11 -34 -11 -19 0 -19 0
0 21 18 20 18 21 1 31 -14 7 -15 13 -7 23 6 8 19 11 28 8 12 -3 13 -2 5 4 -10
7 -8 13 6 25 11 9 22 14 25 11 3 -4 6 -2 6 4 0 6 -7 13 -15 17 -8 3 -15 1 -15
-4 0 -5 -7 -16 -16 -24 -13 -14 -17 -14 -30 -2 -8 8 -14 18 -14 22 0 5 5 3 12
-4 18 -18 28 -14 25 11 -2 22 4 24 36 12 10 -4 17 -3 17 5 0 6 -4 9 -9 6 -5
-3 -12 1 -15 10 -3 8 -2 13 3 10 4 -3 8 8 7 24 -1 17 -6 30 -13 30 -6 0 -9 9
-6 20 3 11 9 17 14 14 5 -3 9 -1 9 4 0 6 -13 15 -30 21 -16 5 -30 15 -30 20 0
6 -7 11 -15 11 -8 0 -15 5 -15 11 0 6 7 8 16 5 10 -4 14 -1 12 6 -7 19 -47 18
-57 -1 -8 -14 -11 -14 -30 3 -30 27 -26 12 5 -19 14 -14 23 -29 20 -32 -3 -4
-12 0 -19 8 -6 8 -11 12 -10 10 5 -7 -51 -39 -59 -34 -15 8 -8 22 15 26 15 3
14 4 -5 2 -21 -1 -25 1 -17 11 6 7 16 11 24 8 8 -3 14 5 17 25 3 17 4 31 4 31
-1 0 -7 -4 -15 -9z m-314 -608 c20 -23 23 -24 24 -7 1 10 1 22 0 27 -2 13 16
7 32 -11 10 -10 14 -22 10 -27 -5 -4 0 -5 10 -2 9 4 17 3 18 -1 4 -39 3 -72
-3 -72 -4 0 -12 -9 -18 -21 -9 -15 -8 -24 1 -35 9 -11 9 -17 0 -28 -8 -10 -9
-16 -1 -21 5 -3 13 1 16 9 3 9 10 14 14 11 4 -3 7 10 5 28 -2 24 2 37 16 45
22 14 24 5 9 -34 -8 -20 -8 -30 1 -38 9 -8 10 -7 6 6 -5 15 10 35 42 53 16 9
8 -8 -17 -37 -13 -16 -13 -18 1 -24 8 -3 18 -12 21 -19 3 -9 0 -12 -10 -8 -7
3 -22 2 -31 -1 -15 -6 -15 -8 -3 -16 12 -8 10 -10 -8 -10 -12 0 -32 -12 -44
-26 -19 -21 -28 -24 -58 -19 -47 9 -73 24 -42 25 19 0 22 4 17 20 -6 18 -3 20
19 14 24 -6 25 -5 14 28 -6 18 -13 39 -15 47 -2 7 -10 10 -19 7 -8 -3 -12 -2
-9 3 8 14 -35 25 -48 12 -18 -18 -31 -13 -16 6 13 15 12 15 -8 4 -23 -12 -34
1 -12 15 6 3 9 15 6 25 -6 21 8 26 16 7 3 -8 6 -7 6 4 1 9 -3 20 -9 23 -5 3
-9 17 -8 30 1 13 5 22 8 20 3 -2 12 0 20 6 21 12 22 12 47 -18z m-685 -598
c10 -4 15 -12 12 -17 -4 -6 2 -7 17 -3 13 4 21 4 17 0 -4 -5 -2 -15 5 -23 6
-9 7 -13 1 -9 -6 4 -10 -3 -9 -16 1 -12 -2 -28 -8 -34 -6 -9 -5 -13 4 -13 8
-1 3 -7 -11 -15 -28 -16 -54 -20 -30 -5 8 5 11 10 5 10 -5 0 -3 5 5 10 12 8 9
10 -12 10 -15 0 -30 -4 -33 -10 -4 -6 1 -7 11 -3 14 5 15 3 5 -15 -7 -12 -17
-22 -23 -22 -9 0 -9 -3 0 -12 15 -15 16 -52 2 -43 -6 4 -8 10 -5 15 3 4 -2 13
-10 20 -14 11 -19 7 -16 -12 2 -12 -17 -10 -24 2 -5 8 -12 7 -22 -1 -12 -11
-13 -9 -8 13 7 26 -8 47 -20 28 -3 -5 -1 -10 6 -10 14 0 -17 -37 -42 -51 -12
-6 -19 -4 -23 7 -3 8 -2 13 2 10 4 -2 14 0 22 6 13 8 12 9 -2 5 -9 -3 -31 5
-49 19 -18 13 -29 24 -23 24 5 0 18 -7 28 -15 11 -8 31 -15 45 -15 23 1 24 2
9 11 -25 14 -22 28 4 21 15 -4 19 -2 13 7 -5 9 -1 12 11 11 11 -1 28 -2 39 -1
17 1 18 3 5 12 -13 9 -13 10 1 6 20 -7 62 21 53 34 -3 6 1 9 9 7 24 -5 23 16
-1 27 -11 5 -23 17 -25 26 -4 14 1 17 22 14 14 -2 34 -6 43 -10z m-334 -35
c-22 -18 -23 -19 -4 -33 12 -9 17 -20 13 -31 -4 -10 -1 -16 7 -16 14 0 41 -59
32 -68 -9 -9 -27 11 -22 24 5 12 0 12 -24 -1 -23 -12 -30 -13 -31 -3 0 7 -5
-2 -10 -19 -6 -20 -16 -33 -26 -33 -9 0 -25 -7 -35 -16 -16 -16 -18 -15 -26 7
l-9 24 -7 -23 c-4 -12 -14 -22 -22 -22 -19 0 -18 -14 4 -33 15 -14 20 -39 12
-67 -4 -14 -52 110 -56 145 -3 22 -9 55 -14 74 l-9 34 24 -23 c28 -26 34 -17
8 12 -16 18 -16 18 2 12 29 -12 8 14 -27 32 -24 12 -28 18 -17 25 8 5 15 4 17
-1 2 -5 13 -5 28 1 35 13 36 12 28 -13 -6 -20 -5 -21 10 -9 9 7 16 10 16 6 0
-4 7 -2 15 5 8 7 15 9 15 6 0 -4 9 -2 20 4 11 6 20 7 20 2 0 -15 45 -8 58 10
7 10 18 16 23 12 5 -3 -1 -14 -13 -24z m1212 10 c0 -5 7 -7 15 -4 21 8 45 -44
25 -56 -7 -4 -10 -15 -7 -24 5 -13 11 -15 26 -6 12 6 22 6 26 1 8 -14 -26 -29
-51 -22 -13 4 -20 13 -18 24 2 13 -2 17 -13 13 -8 -3 -28 3 -44 15 -16 11 -29
16 -29 11 0 -6 7 -13 15 -16 13 -5 14 -9 3 -28 -7 -13 -11 -29 -9 -36 1 -8 -7
-16 -19 -19 -15 -4 -19 -11 -15 -24 5 -15 3 -17 -11 -12 -11 4 -15 3 -11 -5 4
-6 -7 -20 -25 -33 -18 -12 -30 -19 -25 -14 4 5 -1 17 -10 27 -13 15 -14 19 -3
16 7 -2 16 5 18 15 2 10 -2 17 -12 17 -8 0 -20 9 -26 20 -11 20 -10 20 24 6
35 -15 36 -14 36 8 0 19 4 22 28 18 23 -3 28 0 28 17 0 12 -3 21 -6 21 -3 0
-5 11 -5 24 0 20 3 22 27 15 15 -4 32 -10 38 -14 6 -4 10 6 10 24 0 17 5 31
10 31 6 0 10 -4 10 -10z m-1007 -212 c3 -10 7 -10 20 0 14 12 19 12 32 -2 9
-9 25 -16 35 -16 10 0 27 -14 37 -30 9 -17 22 -29 28 -27 5 2 21 0 35 -5 l25
-9 -23 23 c-30 33 -28 47 3 18 14 -13 25 -29 25 -37 0 -11 12 -17 31 -15 4 1
6 -6 5 -16 -1 -19 -24 -37 -33 -28 -4 3 -1 6 5 6 7 0 12 5 12 11 0 8 -5 8 -15
-1 -29 -24 -18 -41 24 -34 30 5 39 3 44 -10 5 -13 2 -15 -18 -10 -14 3 -25 2
-25 -4 0 -5 -7 -12 -15 -16 -8 -3 -14 0 -12 6 1 6 -9 15 -23 19 -14 4 -19 7
-12 8 11 1 18 31 6 31 -9 0 -33 -27 -28 -33 3 -2 -2 -7 -11 -10 -14 -6 -14 -4
0 23 14 26 14 30 -2 39 -10 5 -18 18 -18 28 0 11 -7 17 -17 17 -11 -1 -15 3
-11 10 4 6 -1 5 -9 -2 -9 -8 -26 -12 -37 -10 -10 2 -32 -8 -47 -22 -27 -25
-27 -25 -21 -2 3 12 1 22 -4 22 -4 0 -6 6 -3 14 4 9 -3 16 -18 19 -17 4 -15 5
7 4 18 -1 29 -7 28 -14 -2 -8 4 -10 14 -6 11 4 13 8 5 11 -7 2 -12 10 -12 19
0 12 -8 13 -42 8 -59 -9 -88 -24 -81 -43 4 -10 2 -13 -5 -8 -7 4 -12 12 -12
17 0 14 26 39 39 39 6 0 11 4 11 10 0 5 13 7 32 3 22 -4 29 -3 24 5 -4 7 -1
12 8 12 8 0 16 -6 19 -12z m-1907 -693 c-22 -19 -34 -35 -28 -35 6 0 10 -6 8
-12 -3 -7 -7 -28 -10 -46 -6 -32 -5 -32 19 -16 23 15 24 15 21 -13 -2 -15 -4
-34 -5 -40 -1 -18 -21 -16 -21 1 0 7 -6 19 -14 26 -8 6 -17 21 -19 33 -4 18
-5 17 -6 -5 0 -16 6 -31 15 -36 14 -8 14 -13 5 -28 -7 -11 -10 -12 -8 -4 4 17
-8 31 -43 47 -18 9 -20 12 -7 12 19 1 20 3 11 24 -3 9 -14 13 -27 10 -16 -3
-18 -2 -8 5 9 7 10 11 2 17 -16 9 -41 -13 -41 -37 0 -14 5 -18 15 -14 8 3 15
1 15 -4 0 -6 -8 -10 -17 -10 -20 1 -64 30 -44 30 8 0 10 7 6 20 -5 14 -2 20 9
20 9 0 16 4 16 9 0 14 44 21 53 8 5 -8 7 -5 4 8 -2 11 -9 19 -15 18 -7 -2 -12
1 -12 6 0 6 9 9 21 8 22 -1 44 -41 33 -59 -3 -5 3 -4 14 3 12 7 18 17 16 21
-10 15 7 50 21 44 9 -3 12 0 8 10 -4 10 2 14 23 14 l29 -1 -39 -34z m126 -86
c14 -8 18 -17 14 -34 -5 -19 -3 -22 14 -18 12 3 20 0 20 -7 0 -6 7 -18 15 -26
13 -14 15 -13 15 8 0 24 16 48 32 48 5 0 4 -9 -2 -20 -8 -15 -8 -20 1 -20 8 0
8 -4 -1 -15 -18 -22 -4 -62 25 -69 14 -4 25 -12 25 -18 0 -6 -3 -9 -6 -6 -3 4
-18 3 -33 -2 -15 -4 -34 -4 -42 0 -11 7 -15 2 -14 -17 0 -14 -6 -28 -13 -30
-7 -3 -12 -1 -11 4 4 22 -2 44 -11 38 -5 -3 -10 -2 -10 4 0 5 4 13 10 16 6 4
5 13 -2 25 -9 14 -16 16 -25 8 -9 -7 -13 -7 -13 1 0 7 -5 9 -12 5 -6 -4 -4 3
5 17 19 26 22 43 8 34 -6 -3 -14 3 -20 12 -9 15 -10 16 -11 2 0 -22 -35 -51
-65 -54 -23 -3 -24 -1 -13 18 7 12 12 25 13 29 0 3 4 10 9 15 5 5 6 -6 2 -26
-5 -29 -4 -32 9 -21 8 7 14 18 14 24 -4 22 14 66 30 76 20 12 19 12 43 -1z
m4081 -165 c2 -27 5 -29 45 -26 49 3 57 -13 11 -23 -28 -6 -30 -9 -16 -23 14
-14 18 -13 41 2 14 9 26 12 26 6 0 -5 -4 -10 -10 -10 -5 0 -10 -9 -10 -20 0
-16 -5 -19 -30 -13 -23 4 -30 2 -30 -10 0 -9 7 -20 16 -25 9 -5 12 -12 7 -15
-6 -4 -16 5 -23 18 -7 14 -17 25 -22 25 -5 0 -6 -4 -3 -10 3 -5 -5 -22 -19
-37 -15 -15 -26 -31 -26 -35 0 -5 -4 -8 -10 -8 -13 0 -1 30 24 59 19 22 19 23
3 18 -10 -4 -22 -7 -27 -7 -4 0 -10 -13 -13 -30 -5 -21 -12 -30 -26 -30 -11 0
-23 -4 -26 -10 -9 -15 -22 -12 -22 4 0 9 7 12 16 8 13 -4 12 -1 -3 16 -23 26
-11 29 17 5 19 -17 20 -17 9 4 -7 12 -17 23 -24 26 -8 3 -3 9 12 15 l25 11
-24 0 c-13 1 -39 -9 -58 -20 -26 -16 -37 -19 -46 -10 -8 8 -5 11 10 11 12 0
25 5 28 10 4 6 -6 10 -24 10 -30 0 -49 15 -36 28 4 4 10 1 12 -5 8 -21 20 -15
28 14 6 25 8 26 19 11 12 -16 14 -15 26 10 7 15 15 22 17 15 3 -7 11 -13 18
-13 7 0 16 6 19 13 4 6 4 2 2 -10 -2 -13 0 -23 5 -23 5 0 9 5 9 12 0 9 3 9 12
0 22 -22 27 -12 13 28 -15 44 -11 49 17 23 17 -15 18 -15 18 9 0 24 9 42 17
34 2 -2 5 -17 6 -32z m-1435 -171 c0 -5 3 -17 7 -27 6 -13 4 -21 -3 -24 -14
-4 -16 -22 -2 -22 5 0 25 14 45 31 20 18 38 29 41 27 3 -3 -9 -17 -25 -31 -16
-13 -27 -28 -23 -31 3 -4 -1 -4 -11 0 -10 3 -17 1 -17 -5 0 -18 40 -13 70 9
27 19 28 19 23 1 -3 -11 0 -28 6 -38 9 -15 10 -14 11 14 0 17 5 35 11 39 8 4
9 -3 4 -25 -6 -28 -4 -31 17 -32 13 0 17 -3 11 -6 -21 -8 -16 -33 5 -26 15 6
15 5 4 -10 -8 -9 -11 -21 -7 -27 3 -6 -3 -10 -16 -10 -17 0 -20 -3 -12 -11 14
-14 -34 -89 -56 -89 -14 0 -14 1 -1 10 8 5 11 10 7 10 -5 0 1 14 14 31 16 24
19 33 10 42 -7 7 -12 8 -11 2 4 -20 -13 -55 -25 -55 -7 0 -16 -6 -18 -12 -4
-9 -6 -8 -6 2 -1 9 3 20 9 26 5 5 7 20 3 33 -5 20 -10 22 -39 18 -19 -3 -36
-1 -39 4 -6 9 21 14 57 11 11 -1 15 3 12 13 -4 8 -9 15 -13 16 -24 3 -44 9
-49 15 -4 4 8 4 26 1 25 -5 32 -3 32 9 0 10 -6 14 -14 11 -18 -7 -86 13 -86
25 0 5 7 11 16 15 13 5 13 7 2 14 -10 7 -9 9 5 9 9 0 17 5 17 11 0 5 -4 7 -10
4 -14 -9 -13 8 2 23 14 14 19 15 16 5z m1246 -68 c-7 -18 0 -19 27 -4 12 6 27
8 36 5 13 -5 13 -9 2 -23 -15 -18 -17 -18 39 4 16 6 16 6 0 -10 -9 -9 -21 -17
-26 -17 -5 0 -21 -11 -35 -25 -14 -14 -45 -31 -68 -38 -47 -14 -64 -42 -32
-54 29 -10 42 -24 37 -38 -8 -20 -64 36 -64 64 0 11 -6 21 -12 21 -8 1 -7 6 4
14 16 12 16 14 0 30 -16 17 -16 18 3 8 17 -9 20 -7 20 12 0 13 -6 23 -14 22
-8 -1 -15 5 -17 12 -1 7 0 8 3 2 2 -5 9 -8 14 -4 5 3 19 7 31 9 13 3 24 9 26
15 2 5 10 10 18 10 8 0 11 -6 8 -15z m7914 -19 c6 -4 21 -2 32 4 18 9 17 5 -7
-29 -16 -23 -32 -36 -37 -31 -5 6 -4 16 4 25 7 8 10 19 6 23 -4 4 -13 0 -19
-9 -7 -9 -17 -14 -24 -12 -6 2 -14 -1 -18 -6 -5 -10 9 -16 18 -8 2 1 12 -4 21
-12 16 -13 16 -15 1 -23 -8 -5 -13 -13 -10 -18 3 -5 1 -11 -5 -15 -5 -3 -10
-1 -10 4 0 20 -19 11 -26 -11 -4 -13 -14 -29 -23 -36 -11 -10 -12 -11 -1 -6 8
5 5 -4 -8 -21 -22 -27 -22 -49 -1 -28 6 6 18 9 25 6 8 -3 18 5 23 18 7 18 9 9
5 -34 -2 -37 0 -56 6 -52 6 3 13 -1 16 -9 3 -9 10 -16 16 -16 5 0 6 5 2 12 -4
6 -8 22 -10 35 -2 23 -1 24 15 9 22 -20 41 -21 41 -1 0 8 -6 12 -13 9 -13 -5
-15 0 -18 51 -1 15 -6 22 -13 18 -7 -4 -7 -1 1 7 9 10 14 10 25 -1 7 -8 13
-20 13 -26 0 -7 4 -12 10 -10 16 4 5 41 -21 65 -28 27 -29 31 -8 60 18 26 39
30 26 5 -14 -26 -8 -64 11 -75 22 -12 23 14 2 36 -17 17 -20 30 -5 21 6 -3 10
2 10 12 1 17 2 17 15 -1 8 -11 15 -15 15 -9 0 6 6 13 13 16 10 4 13 -2 9 -18
-2 -14 -9 -22 -17 -19 -8 3 -12 -2 -12 -13 3 -35 22 -32 32 5 10 36 32 48 60
33 6 -3 14 -6 19 -6 5 0 11 -6 14 -14 3 -8 0 -11 -6 -7 -6 4 -8 -2 -5 -14 4
-16 0 -20 -17 -20 -18 0 -21 4 -18 25 4 17 1 25 -8 25 -34 0 -2 -60 33 -62 20
-2 20 -3 4 -24 -9 -12 -18 -20 -21 -19 -9 5 -23 -7 -48 -39 -23 -30 -28 -46
-13 -46 5 0 12 11 15 25 3 13 16 30 27 36 13 7 19 7 15 1 -3 -6 -1 -14 5 -18
6 -3 15 0 20 7 11 18 10 0 -1 -26 -5 -11 -9 -15 -9 -9 -1 7 -8 15 -17 18 -14
5 -15 4 -4 -9 8 -10 9 -15 1 -15 -6 0 -11 -7 -11 -15 0 -9 6 -12 15 -9 9 4 15
0 15 -9 0 -9 10 -17 23 -19 12 -2 21 -9 19 -17 -2 -8 3 -11 13 -8 9 4 15 1 15
-7 0 -8 6 -16 13 -19 8 -3 4 -12 -12 -28 -18 -16 -23 -18 -18 -6 3 9 1 19 -5
23 -6 4 -8 3 -4 -4 3 -6 2 -13 -4 -17 -6 -3 -10 3 -10 15 0 13 -5 20 -12 17
-7 -2 -11 -11 -8 -18 2 -8 4 -34 3 -57 -2 -36 1 -43 14 -38 11 5 14 2 9 -9 -3
-9 -2 -14 2 -11 5 3 16 -3 24 -14 14 -16 16 -27 9 -59 -1 -2 -10 7 -22 20
l-20 24 6 -25 c4 -16 3 -20 -3 -12 -7 11 -11 11 -19 0 -6 -7 -10 -20 -10 -28
-1 -8 -4 -23 -8 -32 -5 -13 -2 -18 11 -18 20 0 11 -13 -11 -16 -8 -1 -13 2 -9
7 9 15 -14 10 -31 -7 -9 -9 -18 -14 -21 -11 -3 2 9 16 26 30 35 30 37 39 13
58 -16 13 -17 12 -4 -3 15 -20 2 -25 -16 -7 -9 9 -10 7 -6 -10 3 -11 1 -21 -5
-21 -12 0 -24 29 -16 41 3 5 2 18 -1 30 -5 16 -10 18 -21 8 -7 -6 -11 -15 -8
-20 3 -5 3 -9 0 -9 -2 0 -13 -3 -23 -7 -17 -7 -17 -6 0 11 20 21 15 35 -6 17
-18 -14 -42 11 -33 34 8 21 -23 32 -36 14 -8 -11 -9 -10 -4 4 6 20 -19 24 -28
5 -3 -7 -3 -3 0 9 4 19 2 22 -13 16 -10 -3 -23 -10 -28 -14 -6 -4 -18 -1 -28
6 -13 9 -15 15 -6 20 6 4 15 1 20 -6 5 -8 9 -12 9 -9 7 39 6 69 -1 64 -5 -3
-9 0 -9 6 0 6 7 13 15 16 8 4 13 9 10 13 -2 4 2 8 10 8 8 0 11 -5 8 -10 -4 -6
3 -8 16 -4 20 5 21 2 17 -24 -2 -16 0 -32 5 -35 5 -3 9 -2 8 3 -4 26 1 35 15
24 11 -10 19 -8 35 5 11 10 18 21 15 26 -3 4 0 8 5 8 6 0 11 4 11 10 0 5 -7 7
-15 3 -12 -4 -15 0 -11 20 3 19 1 24 -10 20 -8 -3 -14 1 -14 8 0 9 -3 10 -8 4
-12 -17 -42 -14 -42 4 -1 14 -2 14 -14 -1 -7 -10 -16 -15 -19 -11 -4 3 -2 12
4 19 8 9 5 11 -11 7 -11 -3 -27 -15 -35 -26 -17 -24 -20 -51 -6 -42 5 3 12 1
16 -5 4 -6 -4 -10 -19 -10 -13 0 -33 -2 -43 -5 -11 -3 -9 -1 5 6 12 7 22 18
22 26 0 8 -4 12 -9 9 -5 -4 -12 0 -14 6 -4 10 -8 9 -16 -2 -6 -8 -11 -11 -11
-7 0 5 9 22 21 38 11 16 17 29 13 29 -5 0 -3 5 4 12 9 9 15 8 25 -7 14 -18 37
-14 37 8 0 7 -4 6 -10 -3 -14 -23 -23 -4 -10 22 10 19 10 21 -1 11 -20 -20
-26 -15 -21 17 2 17 8 30 13 30 5 0 9 11 9 24 0 13 9 35 20 49 21 27 26 42 10
32 -5 -3 -3 10 6 30 13 32 13 36 -1 41 -8 3 -13 9 -10 14 5 9 77 6 93 -4z
m-142 -49 c16 6 19 -12 4 -22 -5 -3 -10 -14 -9 -23 0 -14 2 -13 9 3 5 11 9 14
9 7 1 -7 -22 -46 -49 -87 -28 -41 -47 -75 -42 -75 5 0 14 11 20 25 7 14 19 28
27 31 8 4 13 10 10 14 -3 4 2 13 10 20 10 9 15 9 15 1 0 -6 -4 -11 -9 -11 -4
0 -7 -10 -7 -22 1 -13 -4 -36 -11 -51 -8 -15 -12 -31 -9 -35 7 -12 -22 -44
-34 -37 -6 4 -18 -1 -26 -11 -12 -17 -13 -16 -3 12 7 22 6 39 -2 60 -10 23
-13 25 -16 11 -3 -10 1 -25 8 -33 11 -13 8 -20 -19 -45 -21 -19 -32 -25 -32
-16 0 8 10 18 23 21 20 6 21 7 4 17 -9 5 -22 7 -27 4 -15 -9 -12 4 4 20 7 8
16 11 20 8 3 -4 6 -1 6 7 0 9 -9 11 -30 7 -30 -7 -39 -1 -45 33 -5 27 14 26
24 -2 5 -13 10 -17 14 -11 9 14 -9 63 -22 63 -5 0 -8 8 -6 18 2 9 4 19 4 21 1
3 15 -8 32 -25 18 -16 30 -24 27 -19 -2 6 -11 25 -18 43 -8 17 -18 32 -22 32
-4 0 -8 7 -8 15 0 21 13 19 35 -5 10 -11 23 -20 28 -20 6 0 3 8 -6 18 -10 10
-17 23 -17 29 0 14 64 27 68 14 2 -6 10 -7 18 -4 19 7 17 -7 -6 -37 -11 -14
-20 -19 -20 -12 0 7 -5 10 -11 7 -13 -9 -7 -15 20 -20 12 -2 19 0 16 4 -3 5 2
12 11 15 9 3 15 16 14 28 -3 31 1 47 7 26 2 -10 10 -15 19 -11z m-190 -24 c-3
-10 -8 -36 -13 -58 -8 -46 -7 -41 -18 -78 -4 -17 -10 -24 -15 -18 -9 15 -36 4
-38 -14 -1 -8 -3 -22 -4 -30 -1 -8 -4 -12 -8 -10 -3 2 -11 -9 -17 -26 -12 -31
0 -40 16 -11 6 9 11 11 11 5 0 -21 20 -15 31 10 9 21 9 20 4 -5 -3 -14 -7 -32
-10 -40 -3 -8 5 -26 19 -41 13 -14 26 -22 28 -16 2 7 10 4 18 -7 9 -11 10 -15
3 -10 -7 4 -13 2 -13 -3 0 -6 -7 -11 -16 -11 -8 0 -13 -4 -10 -8 7 -12 -29
-31 -42 -23 -12 7 -11 28 2 49 4 7 5 16 2 19 -3 4 -6 1 -6 -6 0 -7 -6 -11 -12
-8 -13 4 -48 -39 -48 -59 0 -6 13 -9 30 -6 30 4 30 4 19 -22 -12 -25 -29 -35
-29 -17 0 5 -12 14 -27 19 -16 6 -22 11 -15 11 18 1 15 28 -5 35 -9 4 -20 1
-25 -6 -4 -7 -8 -9 -8 -5 0 5 9 21 20 37 11 15 17 30 14 33 -3 3 -3 11 1 18 6
8 14 5 27 -12 11 -13 17 -18 13 -12 -3 7 -1 22 5 33 9 16 8 18 -5 14 -11 -5
-15 1 -15 20 0 14 5 26 10 26 6 0 10 11 10 24 0 23 40 82 67 99 7 4 13 15 13
23 0 12 -4 12 -25 -2 -35 -23 -31 -11 10 32 40 41 43 48 15 39 -23 -7 -25 0
-7 20 18 21 50 19 43 -2z m-666 -208 c0 -14 5 -25 11 -25 6 0 8 7 5 16 -3 8
-2 12 3 9 5 -3 12 -1 16 5 4 6 11 5 19 -3 8 -6 12 -15 9 -20 -2 -4 3 -10 11
-13 21 -8 21 -24 0 -24 -10 0 -14 -6 -11 -14 3 -7 -6 -24 -21 -37 -16 -14 -22
-24 -14 -27 7 -2 10 -8 6 -13 -8 -14 -24 -11 -24 5 0 8 -4 17 -9 20 -14 9 -7
-16 13 -46 22 -34 19 -70 -4 -47 -8 8 -32 14 -53 14 -26 0 -36 4 -32 12 2 7 0
13 -5 13 -6 0 -10 -9 -10 -20 0 -11 4 -20 9 -20 5 0 11 -7 15 -15 4 -13 2 -14
-14 -5 -11 6 -23 23 -27 37 -6 25 -7 25 -13 8 -4 -11 -3 -26 2 -32 7 -9 7 -13
0 -13 -6 0 -14 5 -17 10 -3 6 -12 10 -18 10 -8 0 -8 -3 -2 -8 6 -4 11 -14 13
-22 3 -11 -1 -11 -16 3 -10 9 -26 17 -35 17 -11 0 -14 5 -10 18 4 13 3 14 -6
6 -6 -6 -13 -27 -14 -47 -2 -20 -7 -40 -12 -44 -4 -5 -5 0 -2 10 4 11 1 20 -8
23 -17 7 -21 80 -5 104 5 8 10 11 10 6 0 -5 6 -3 14 3 11 9 15 9 19 -1 4 -10
8 -10 16 2 5 8 7 18 4 24 -3 5 -1 6 5 2 7 -4 12 -1 12 9 0 9 5 13 10 10 9 -6
14 8 11 28 0 4 8 7 19 7 13 0 20 7 20 19 0 11 5 23 11 27 8 4 7 9 -2 16 -11 7
-9 8 5 6 11 -2 26 -18 35 -35 21 -43 31 -41 31 5 0 21 3 42 7 45 13 14 23 6
23 -18z m215 -218 c-5 -18 -1 -26 19 -35 15 -6 25 -17 24 -23 -6 -24 20 -19
26 6 4 14 11 25 17 25 6 0 8 -9 5 -20 -3 -11 -9 -30 -12 -42 -5 -15 -3 -20 8
-16 8 3 22 0 33 -8 10 -8 14 -14 9 -14 -6 0 -15 5 -21 11 -7 7 -12 6 -16 -5
-3 -8 1 -17 9 -20 8 -3 14 -11 14 -17 0 -8 -4 -9 -13 0 -8 6 -16 8 -20 5 -3
-3 -10 3 -16 15 -15 28 -49 24 -47 -6 1 -25 11 -30 20 -10 4 6 4 1 2 -12 -3
-14 0 -31 6 -38 8 -9 7 -13 -2 -13 -10 0 -10 -3 -1 -14 9 -11 9 -15 -1 -19
-10 -3 -10 -7 -1 -17 14 -15 -5 -39 -28 -37 -8 1 -14 -2 -14 -8 0 -5 3 -9 8
-8 4 2 7 -11 7 -27 0 -16 -5 -30 -11 -30 -5 0 -9 10 -7 21 2 13 -5 26 -15 33
-15 9 -21 7 -37 -14 -11 -14 -18 -31 -17 -39 1 -7 -6 -15 -16 -17 -25 -3 -14
26 25 68 16 18 25 34 19 36 -17 6 -13 32 5 32 10 0 14 6 10 15 -3 8 -1 15 4
15 6 0 10 -5 10 -11 0 -6 7 -9 15 -5 8 3 15 0 15 -6 0 -6 3 -8 7 -5 11 11 -30
49 -49 44 -14 -4 -15 -2 -6 13 7 10 18 16 25 13 21 -8 16 51 -8 81 -11 14 -17
31 -13 37 5 8 3 9 -6 4 -10 -6 -12 -2 -7 16 4 13 7 31 8 39 0 10 3 8 9 -5 8
-20 9 -20 9 1 1 19 9 34 18 34 2 0 1 -10 -2 -23z m769 -73 c3 -9 10 -12 16 -9
5 3 10 -1 10 -9 0 -9 7 -16 15 -16 11 0 10 -6 -7 -25 -17 -20 -28 -24 -62 -20
-36 3 -38 2 -19 -8 21 -12 23 -15 23 -37 0 -5 6 -10 13 -10 18 0 52 -69 49
-100 -2 -25 -30 -55 -41 -44 -3 3 2 11 12 18 22 17 22 30 0 47 -16 13 -17 12
-4 -3 15 -20 2 -25 -16 -7 -9 9 -10 7 -6 -10 3 -12 1 -21 -6 -21 -12 0 -14 11
-11 48 2 27 -25 40 -52 23 -15 -9 -22 -9 -34 4 -8 8 -13 19 -10 23 3 4 1 25
-4 46 l-8 38 34 -4 c34 -4 45 5 22 16 -7 4 -3 4 10 2 17 -3 22 1 22 17 0 18 2
19 11 7 8 -11 9 -8 4 15 -5 26 -2 31 14 32 11 1 22 -5 25 -13z m-281 -25 c15
-17 27 -36 27 -41 0 -7 5 -6 14 1 11 9 15 8 20 -6 4 -10 1 -20 -9 -25 -8 -5
-15 -20 -15 -34 0 -14 -4 -23 -9 -19 -5 3 -12 -4 -16 -15 -3 -11 -10 -20 -14
-20 -5 0 -6 -12 -3 -26 2 -14 10 -23 17 -20 6 2 18 -4 26 -15 16 -23 32 -24
49 -4 14 17 4 55 -16 55 -8 0 -14 4 -14 10 0 6 9 6 23 1 12 -4 28 -6 35 -4 6
3 12 -3 12 -12 0 -9 6 -15 13 -13 6 2 13 1 14 -2 1 -3 7 -18 13 -34 9 -26 9
-28 -9 -23 -15 3 -17 0 -13 -17 4 -21 4 -21 -12 -1 -17 20 -17 20 -13 -2 3
-15 1 -20 -8 -17 -7 3 -16 0 -21 -7 -5 -8 -3 -10 6 -4 8 5 11 4 7 -3 -4 -5
-17 -8 -29 -4 -14 3 -19 1 -14 -6 3 -6 2 -13 -3 -16 -5 -3 -12 1 -15 10 -3 8
-9 13 -14 11 -4 -3 -16 1 -27 9 -10 8 -14 14 -9 14 6 0 15 -5 22 -12 7 -7 12
-8 12 -2 0 5 -12 17 -27 25 -25 14 -33 15 -60 10 -5 -1 -1 -6 7 -12 13 -9 13
-10 0 -6 -8 2 -13 11 -11 18 2 8 5 25 6 37 1 13 8 28 16 32 7 5 10 12 6 16
-10 10 13 35 26 27 6 -3 7 -1 3 5 -4 6 -14 8 -23 5 -13 -5 -15 -2 -10 11 4 10
7 26 7 37 0 15 5 17 30 13 19 -4 30 -2 30 5 0 10 -16 15 -47 14 -7 -1 -13 6
-13 14 0 8 4 12 9 8 20 -12 21 15 1 32 -11 10 -20 21 -20 25 0 16 16 7 43 -23z
m-785 -92 c3 -12 -3 -17 -20 -17 -21 0 -20 -2 8 -16 31 -15 32 -15 67 20 23
22 42 34 52 30 8 -3 15 -8 15 -11 0 -3 -6 -3 -14 0 -17 7 -51 -28 -41 -42 3
-6 -2 -11 -13 -11 -26 0 -34 -11 -21 -27 16 -19 30 -16 22 5 -3 9 -3 14 2 10
4 -4 13 -1 19 7 6 8 21 16 33 18 11 2 28 9 37 16 9 7 16 10 16 5 0 -10 -65
-54 -79 -54 -5 0 -11 -7 -15 -15 -3 -8 -13 -15 -23 -15 -16 -1 -16 -2 2 -16
19 -15 19 -15 -10 -9 -30 6 -30 6 -6 -7 32 -17 37 -47 7 -42 -11 2 -15 2 -8
-2 6 -3 12 -10 12 -15 0 -6 -6 -9 -12 -7 -25 4 -60 -14 -54 -28 6 -16 4 -17
-18 -8 -22 8 -20 21 4 29 21 7 24 34 5 48 -6 4 -1 9 11 13 15 4 20 11 17 25
-3 10 0 19 6 19 5 0 8 6 5 14 -6 16 -52 27 -60 15 -3 -5 -11 -9 -17 -8 -9 0
-9 2 1 6 6 2 12 18 12 34 0 16 5 29 10 29 6 0 10 7 10 16 0 21 34 14 38 -9z
m-1440 -273 c43 -5 52 -9 52 -25 0 -19 -7 -20 -176 -19 -165 2 -177 3 -181 21
-3 12 -14 19 -29 19 -13 0 -24 4 -24 8 0 9 264 6 358 -4z m1368 -39 c-4 -10 1
-15 15 -15 15 0 19 5 15 15 -7 18 10 20 17 3 4 -10 8 -9 17 2 9 12 11 9 7 -17
-3 -25 -1 -30 9 -22 15 12 27 -3 18 -24 -11 -29 -74 -25 -74 5 0 7 6 6 15 -2
9 -7 18 -10 22 -6 3 3 1 6 -6 6 -7 0 -9 5 -6 10 10 16 -22 11 -39 -6 -20 -20
-21 -44 0 -44 9 0 12 5 8 12 -4 7 -3 8 4 4 6 -4 9 -13 5 -22 -4 -12 -1 -13 21
-5 21 9 27 7 36 -9 6 -11 20 -20 31 -20 11 0 18 -4 14 -9 -3 -5 3 -12 12 -14
14 -4 13 -5 -4 -6 -13 0 -23 4 -23 9 0 6 -6 5 -14 -2 -16 -15 -10 -38 10 -38
8 0 11 -6 8 -15 -4 -10 -13 -13 -25 -10 -23 8 -25 -8 -4 -25 8 -7 12 -17 9
-22 -3 -5 -13 -1 -21 9 -8 10 -12 13 -9 6 4 -6 1 -15 -5 -19 -8 -4 -9 -3 -5 4
4 8 0 12 -11 12 -17 1 -17 1 0 11 9 5 17 16 17 24 0 7 6 16 13 19 9 5 9 7 -1
12 -10 5 -9 10 4 25 16 18 16 21 2 35 -12 12 -20 13 -36 5 -10 -6 -22 -8 -25
-4 -4 3 -9 -2 -13 -11 -3 -9 -11 -16 -16 -16 -6 0 -8 7 -4 15 3 10 -1 15 -11
15 -13 0 -14 3 -5 12 16 16 15 31 0 22 -10 -5 -10 -4 -2 5 18 20 5 61 -19 58
-36 -4 -29 21 10 31 21 5 40 10 42 11 2 1 1 -6 -3 -14z m1217 -72 c-6 -2 -9
-13 -6 -23 3 -11 -2 -26 -10 -34 -15 -16 -12 -60 4 -51 4 3 18 -4 29 -15 18
-18 24 -19 38 -9 14 11 15 11 5 -1 -7 -8 -13 -26 -13 -41 0 -15 -5 -31 -10
-34 -8 -5 -8 -11 0 -20 8 -9 5 -14 -11 -18 -16 -4 -19 -2 -15 11 3 9 -5 4 -19
-11 -14 -15 -25 -39 -25 -52 0 -13 -4 -26 -8 -29 -4 -2 -6 12 -4 32 3 36 2 36
-11 13 -9 -15 -17 -20 -21 -12 -4 6 0 18 8 27 9 8 16 22 16 30 0 8 5 12 10 9
6 -3 10 1 10 9 0 10 -6 13 -15 10 -8 -4 -15 -1 -15 5 0 6 4 11 8 11 12 0 11
32 0 47 -5 7 -6 18 -2 25 5 10 4 10 -6 2 -6 -7 -13 -24 -13 -38 -2 -33 -17
-34 -17 -2 0 13 -6 26 -12 29 -8 3 -3 9 12 14 l24 10 -21 12 c-31 16 -43 14
-36 -6 5 -14 3 -15 -6 -7 -10 9 -10 16 1 34 10 18 10 24 1 27 -17 6 -16 20 2
27 8 3 14 2 13 -2 -1 -4 2 -18 6 -32 l9 -25 8 23 c5 12 14 22 20 22 8 0 8 -5
-2 -16 -10 -13 -10 -17 2 -25 21 -13 27 -11 39 10 13 25 13 34 0 26 -6 -3 0
11 12 31 14 23 24 32 26 24 3 -8 0 -16 -5 -17z m-2344 0 c23 5 31 3 31 -7 0
-9 7 -12 20 -9 19 5 20 0 20 -77 0 -65 -3 -80 -12 -72 -7 6 -29 15 -48 21 -27
8 -29 10 -7 7 15 -2 30 1 33 6 3 4 2 8 -3 7 -4 -1 -25 -1 -45 0 l-38 1 0 73
c0 45 4 67 9 58 6 -9 19 -12 40 -8z m-4748 -265 c-34 -82 -45 -120 -40 -138
l7 -25 1 26 c1 24 6 27 41 31 23 2 45 1 50 -2 4 -3 -15 -32 -44 -66 -28 -33
-61 -73 -74 -90 -16 -22 -24 -26 -30 -16 -7 10 -17 4 -40 -23 -30 -34 -35 -49
-36 -126 0 -18 -4 -25 -13 -22 -7 3 -11 8 -9 12 3 4 -4 7 -15 7 -10 0 -19 -5
-19 -10 0 -17 -18 8 -21 29 -2 11 3 38 11 60 7 22 14 48 15 57 1 10 5 21 8 24
4 4 5 -7 2 -25 -4 -36 13 -52 30 -28 7 9 14 14 17 12 3 -3 19 9 35 28 16 18
34 32 40 30 6 -2 15 1 19 8 5 9 2 10 -10 6 -13 -5 -16 -3 -14 11 2 9 9 16 15
15 6 -1 8 9 5 23 l-4 24 -19 -21 c-10 -11 -15 -28 -12 -36 5 -11 3 -14 -6 -9
-7 5 -11 17 -8 27 3 11 1 19 -4 19 -5 0 -9 -16 -9 -36 0 -24 4 -33 12 -28 7 5
8 3 4 -5 -5 -7 -14 -10 -21 -7 -8 3 -16 0 -19 -7 -3 -9 -5 -9 -5 0 -1 6 4 15
9 18 6 3 10 11 10 17 0 6 -9 3 -20 -7 -19 -18 -20 -17 -20 2 0 11 -7 26 -15
33 -12 10 -13 7 -5 -19 5 -17 5 -31 1 -31 -6 0 -18 48 -35 140 -1 7 57 17 72
12 6 -2 12 -17 12 -34 0 -17 4 -27 10 -23 6 3 10 17 10 31 0 35 30 32 31 -3 1
-22 3 -24 6 -7 2 12 12 24 22 27 9 2 25 26 36 53 26 70 73 174 79 174 2 0 -17
-51 -43 -112z m262 -107 c11 -1 17 -10 18 -28 l2 -28 4 28 c4 25 8 27 54 27
47 0 49 -1 50 -27 l1 -28 7 30 c4 20 12 30 24 29 9 -1 30 -2 46 -3 22 -1 31
-7 34 -23 4 -20 4 -19 6 5 2 38 25 34 50 -9 12 -20 16 -34 10 -32 -7 2 -24 -6
-37 -19 -14 -13 -28 -20 -31 -15 -3 5 -17 15 -31 21 -22 11 -21 10 5 -12 l30
-25 -25 -22 c-41 -35 -89 -53 -106 -39 -9 7 -14 8 -14 1 0 -6 -15 -9 -35 -7
-24 2 -33 0 -28 -8 4 -7 -1 -6 -10 2 -11 9 -17 10 -17 2 0 -6 -5 -11 -11 -11
-5 0 -8 4 -4 9 13 22 -17 21 -36 -1 -11 -13 -18 -18 -15 -12 3 7 -27 10 -89
11 -62 0 -92 -3 -88 -10 3 -5 1 -7 -4 -4 -6 4 -16 0 -23 -8 -7 -8 -21 -15 -31
-15 -10 0 -21 -4 -24 -10 -3 -5 -12 -10 -18 -10 -17 1 22 30 56 42 31 12 34
20 10 39 -16 13 -17 12 -4 -3 12 -16 11 -18 -13 -16 -25 2 -35 13 -18 20 4 2
18 18 31 36 12 18 27 29 33 26 7 -4 8 -2 4 4 -4 6 3 25 16 42 20 27 23 29 30
13 5 -14 7 -12 7 9 1 17 7 28 19 30 14 3 107 2 165 -1z m-1352 -33 l1 -33 7
30 c6 29 8 30 60 30 47 -1 57 -5 77 -30 26 -33 25 -36 -18 -51 -23 -7 -45 -7
-82 3 -50 13 -134 18 -124 8 3 -3 33 -8 68 -10 60 -5 120 -24 76 -25 -12 0
-16 -5 -12 -15 3 -8 1 -15 -5 -15 -5 0 -12 7 -16 16 -3 9 -8 11 -12 6 -3 -6
-20 -12 -36 -14 -17 -2 -33 -7 -37 -13 -5 -6 -12 -4 -18 5 -9 13 -10 13 -10
-1 0 -11 -9 -15 -35 -13 -19 2 -35 -1 -35 -7 0 -6 -9 -8 -20 -4 -15 5 -18 3
-14 -9 3 -9 1 -16 -5 -16 -6 0 -11 5 -11 12 0 6 -7 3 -16 -8 -8 -10 -13 -13
-9 -6 7 14 -21 17 -30 2 -3 -5 -14 -10 -23 -10 -11 0 -13 3 -6 8 6 4 15 18 19
31 5 18 9 20 16 10 6 -11 9 -9 9 8 0 12 -4 25 -10 28 -5 3 -10 1 -10 -5 0 -6
-5 -8 -12 -4 -7 4 -8 3 -4 -4 4 -7 5 -12 2 -12 -2 0 -12 -3 -21 -6 -13 -5 -9
8 15 57 18 35 36 69 41 75 5 6 57 11 124 12 l115 2 1 -32z m709 -44 c11 -26
20 -56 20 -68 0 -12 6 -28 13 -35 10 -11 8 -12 -9 -3 -26 14 -77 -6 -69 -26 3
-7 0 -10 -6 -7 -6 4 -8 13 -5 20 6 17 -20 40 -29 25 -3 -5 -1 -10 4 -10 6 0
11 -4 11 -8 0 -5 -7 -9 -15 -9 -8 0 -12 4 -9 8 8 14 -16 20 -33 9 -17 -11 -17
-11 1 -6 16 6 17 4 5 -10 -12 -14 -14 -14 -26 2 -9 13 -10 21 -2 31 6 7 8 13
3 13 -16 1 70 72 98 82 17 6 25 15 21 24 -3 8 -3 14 0 14 4 0 15 -21 27 -46z
m945 -14 c3 -5 11 -10 16 -10 6 0 7 5 3 12 -4 7 -3 8 5 4 6 -4 9 -12 5 -17 -3
-6 1 -18 8 -27 26 -29 27 -38 8 -39 -10 -1 -25 6 -32 14 -11 14 -10 16 10 11
12 -4 20 -3 17 2 -3 4 -13 10 -23 12 -21 6 -26 -18 -8 -41 7 -9 7 -12 1 -9 -6
4 -17 3 -25 -2 -9 -5 -19 -5 -27 2 -9 7 -18 7 -30 -3 -11 -10 -14 -10 -9 -1
12 20 -19 14 -45 -9 -22 -18 -22 -19 -2 -10 16 8 22 7 27 -4 3 -8 16 -20 30
-26 25 -12 36 -34 29 -56 -5 -15 -39 -17 -48 -3 -8 13 -56 4 -67 -12 -6 -11
-8 -11 -8 0 0 7 7 15 15 18 15 6 48 64 41 71 -2 3 -13 0 -24 -6 -28 -15 -29
-14 -29 14 0 15 4 24 11 22 6 -2 29 11 50 30 43 36 56 39 74 21 7 -7 12 -8 12
-2 0 6 -5 15 -11 21 -12 12 -4 33 11 33 5 0 12 -4 15 -10z"/>
<path d="M627 4250 c-3 -12 -14 -20 -29 -21 -12 0 -17 -3 -10 -6 15 -6 16 -33
1 -33 -6 0 -9 -6 -6 -14 8 -21 -23 -25 -54 -7 -16 9 -33 11 -45 6 -17 -7 -15
-9 11 -14 27 -6 28 -8 11 -17 -11 -7 -14 -14 -8 -18 5 -3 15 1 22 9 7 8 17 15
23 15 5 0 3 -8 -6 -18 -10 -10 -17 -25 -16 -33 0 -8 4 -4 9 9 5 12 20 26 34
32 13 5 27 14 31 20 12 19 26 0 15 -21 -6 -10 -7 -18 -3 -17 5 2 21 -7 37 -19
19 -16 24 -23 13 -23 -9 0 -28 -5 -42 -12 l-26 -12 33 -13 c18 -8 28 -17 23
-21 -6 -4 -11 -20 -12 -35 -1 -21 3 -27 13 -23 9 4 14 -2 14 -16 0 -15 3 -18
13 -10 6 5 31 13 55 17 23 4 42 11 42 16 0 5 -4 9 -9 9 -4 0 -6 11 -3 25 2 14
11 25 18 25 8 0 14 6 14 13 0 7 9 13 20 13 11 0 20 -4 20 -8 0 -4 5 -8 11 -8
7 0 8 7 4 18 -4 9 -7 25 -7 35 1 19 -9 22 -25 6 -15 -15 -27 39 -12 57 16 19
-12 19 -50 0 -19 -10 -38 -12 -63 -7 -23 5 -40 5 -47 -2 -6 -6 -12 2 -17 27
-8 46 -2 53 33 37 l28 -13 -23 22 c-18 17 -21 25 -11 36 9 11 8 14 -4 14 -8 0
-17 -9 -20 -20z"/>
<path d="M12782 2695 c-6 -14 -19 -25 -28 -25 -12 0 -15 -6 -11 -21 4 -17 3
-18 -9 -8 -9 7 -12 20 -8 32 4 12 1 23 -7 28 -17 11 -30 11 -27 2 5 -18 -14
-51 -33 -59 -19 -9 -20 -11 -5 -23 14 -11 16 -11 16 2 0 26 20 30 56 11 31
-17 43 -41 28 -57 -11 -11 -34 5 -34 23 0 11 -5 22 -11 25 -14 9 -48 -22 -47
-43 0 -10 -3 -25 -7 -34 -5 -13 -2 -18 10 -18 13 0 15 -3 6 -13 -11 -14 -5
-27 11 -27 5 0 6 5 3 10 -3 6 1 10 9 10 9 0 16 -4 16 -10 0 -13 27 -13 35 0 4
6 1 18 -7 27 -11 15 -10 16 11 10 17 -4 21 -3 13 5 -6 6 -8 18 -3 27 14 27 23
79 11 61 -8 -12 -10 -11 -10 8 0 14 6 22 17 22 9 0 13 3 10 6 -3 4 -2 15 4 26
6 11 9 22 6 24 -2 2 -9 -7 -15 -21z"/>
<path d="M1095 612 c3 -8 5 -18 5 -24 0 -6 6 -8 13 -5 45 19 47 19 47 2 0 -9
5 -13 11 -9 7 4 10 -1 7 -12 -2 -11 -10 -19 -18 -19 -8 0 -14 6 -13 12 2 9
-10 12 -37 11 -29 -1 -40 -6 -40 -17 -1 -14 -3 -13 -14 2 -8 10 -17 14 -20 9
-5 -9 16 -24 36 -26 4 -1 12 -6 19 -13 10 -10 6 -12 -17 -10 -21 1 -28 -2 -26
-13 1 -9 -5 -6 -17 8 l-20 23 -20 -23 c-13 -14 -17 -24 -11 -28 6 -4 12 -16
13 -27 0 -11 7 -20 14 -20 8 0 9 5 4 11 -5 6 -6 18 -2 26 7 18 52 22 64 6 6
-7 7 -4 3 7 -4 14 1 17 28 17 41 0 68 9 61 20 -3 5 3 7 12 6 24 -4 28 -23 6
-29 -14 -4 -13 -5 5 -6 29 -1 39 25 18 48 -13 14 -14 21 -5 27 8 4 10 3 5 -4
-4 -7 -3 -12 2 -12 5 0 14 -11 20 -25 10 -21 9 -31 -5 -53 -16 -24 -16 -25 -1
-14 10 8 18 9 22 3 7 -11 37 -3 49 13 6 8 10 7 14 -1 7 -19 19 -16 19 6 0 11
-5 17 -13 14 -7 -3 -20 0 -28 7 -12 10 -15 10 -15 -3 0 -9 -5 -19 -10 -22 -7
-4 -9 3 -6 19 3 14 -2 30 -10 37 -17 14 -19 32 -1 26 6 -2 11 -10 9 -16 -1 -6
2 -11 8 -11 6 0 10 7 10 15 0 8 -5 15 -11 15 -6 0 -8 9 -4 23 6 20 5 21 -8 5
-15 -19 -33 -25 -22 -8 4 6 -1 7 -12 3 -15 -6 -16 -4 -6 9 11 12 9 17 -12 28
-14 7 -28 10 -31 7 -4 -4 4 -10 16 -15 16 -6 20 -11 11 -16 -6 -4 -18 -3 -25
3 -7 6 -22 8 -32 4 -16 -5 -17 -4 -7 8 9 11 7 14 -13 14 -16 0 -23 -4 -19 -13z"/>
<path d="M130 470 c-8 -5 -18 -6 -22 -4 -4 3 -8 0 -8 -5 0 -12 12 -15 44 -11
11 1 15 -3 12 -9 -4 -6 0 -11 8 -11 8 0 18 -5 22 -12 5 -8 2 -9 -9 -5 -10 3
-17 3 -17 -1 0 -4 -9 -13 -20 -20 -17 -11 -24 -10 -43 4 -12 9 -15 14 -7 11
11 -3 16 2 16 14 0 12 -4 15 -10 9 -14 -14 -29 -12 -20 3 5 8 2 7 -9 -2 -10
-8 -20 -11 -24 -7 -3 3 -1 6 5 6 7 0 12 5 12 11 0 8 -5 8 -15 -1 -8 -7 -15
-16 -15 -21 0 -5 7 -9 15 -9 8 0 15 -4 15 -9 0 -14 -22 -26 -42 -23 -11 2 -18
-3 -18 -13 0 -12 6 -15 20 -10 11 3 29 3 41 0 16 -5 18 -10 8 -21 -13 -16 -44
-20 -34 -4 10 16 -11 12 -25 -5 -10 -11 -10 -18 -1 -29 9 -11 9 -15 -1 -18 -8
-3 -6 -7 6 -11 9 -4 15 -3 11 2 -3 5 -1 12 5 16 6 4 7 11 4 17 -5 7 -2 8 5 3
7 -4 11 -18 8 -31 -5 -30 -3 -30 17 1 9 14 12 24 7 23 -18 -6 -12 14 13 42 22
25 29 28 55 20 20 -5 35 -4 48 4 15 11 23 10 45 -4 33 -20 29 -29 -10 -24 -22
2 -28 -1 -29 -16 -2 -23 12 -27 21 -5 4 11 14 13 37 8 28 -5 31 -4 26 11 -4
10 -7 24 -7 32 0 8 -10 14 -24 14 -31 0 -56 9 -56 21 0 5 12 4 26 -1 16 -7 23
-7 19 0 -3 6 -12 10 -19 10 -7 0 -26 15 -43 34 -20 24 -34 32 -43 26z"/>
</g>
</svg>
