<?xml version="1.0" standalone="no"?>
<!DOCTYPE svg PUBLIC "-//W3C//DTD SVG 20010904//EN"
 "http://www.w3.org/TR/2001/REC-SVG-20010904/DTD/svg10.dtd">
<svg version="1.0" xmlns="http://www.w3.org/2000/svg"
 width="1322.000000pt" height="600.000000pt" viewBox="0 0 1322.000000 600.000000"
 preserveAspectRatio="xMidYMid meet">

<g transform="translate(0.000000,600.000000) scale(0.100000,-0.100000)"
fill="#000000" stroke="none">
<path d="M0 3000 l0 -3000 6610 0 6610 0 0 3000 0 3000 -6610 0 -6610 0 0
-3000z m8272 2654 c35 -8 118 -29 185 -46 l121 -30 7 -152 c4 -83 5 -187 3
-231 l-3 -80 -290 -56 c-617 -120 -775 -149 -910 -169 -197 -29 -519 -88
-1035 -190 -618 -122 -644 -127 -652 -123 -5 2 -8 113 -8 247 l0 242 238 57
c758 182 1333 321 1757 427 264 65 490 119 502 119 12 1 50 -6 85 -15z m575
-120 c-3 -3 -12 -4 -19 -1 -8 3 -5 6 6 6 11 1 17 -2 13 -5z m173 -70 c96 -25
260 -69 365 -96 104 -27 191 -51 193 -53 4 -3 -69 -20 -153 -34 -45 -8 -538
-105 -592 -116 l-23 -5 0 180 c0 168 1 181 18 176 9 -3 96 -26 192 -52z m103
-1 c-7 -2 -19 -2 -25 0 -7 3 -2 5 12 5 14 0 19 -2 13 -5z m64 -19 c-3 -3 -12
-4 -19 -1 -8 3 -5 6 6 6 11 1 17 -2 13 -5z m862 -292 c60 -16 65 -20 74 -52 5
-19 7 -162 5 -317 -2 -218 -6 -285 -16 -295 -11 -11 -13 -4 -7 43 12 99 -14
135 -36 49 -9 -34 -16 -47 -23 -40 -17 17 -27 11 -16 -9 5 -11 10 -28 9 -38 0
-14 -2 -13 -10 6 -5 13 -11 105 -14 205 -3 99 -8 200 -11 224 -4 26 -2 42 4
42 6 0 2 23 -9 56 -21 60 -34 144 -21 144 4 -1 36 -8 71 -18z m-4545 -77 c-7
-17 -40 -29 -55 -19 -7 4 -9 3 -6 -3 4 -6 -13 -16 -39 -23 -42 -12 -47 -12
-67 8 -12 12 -16 22 -10 22 7 0 14 -4 17 -9 7 -11 46 -2 46 10 0 4 -12 10 -27
12 -16 2 -5 3 23 2 41 -2 102 5 121 14 1 1 0 -6 -3 -14z m3526 -65 c0 -11 3
-19 8 -19 4 1 16 1 27 0 17 -1 18 -3 5 -11 -12 -8 -11 -10 7 -10 12 0 23 6 26
13 2 6 10 -15 17 -48 l13 -60 13 40 c7 22 13 32 13 22 1 -10 6 -15 11 -12 6 3
10 -2 10 -12 1 -17 2 -17 15 1 14 18 15 14 15 -46 0 -37 -4 -69 -9 -72 -4 -3
-7 -40 -6 -83 1 -70 -1 -79 -21 -96 -15 -12 -25 -33 -29 -65 -4 -26 -17 -63
-30 -83 -13 -20 -28 -53 -34 -73 -5 -21 -22 -54 -37 -73 l-27 -36 24 -18 c13
-10 35 -19 49 -21 22 -3 25 -7 24 -51 -1 -26 -4 -50 -8 -54 -3 -3 -6 -16 -6
-27 0 -17 2 -18 10 -6 16 25 12 -103 -5 -143 -8 -20 -12 -49 -9 -68 6 -38 6
-34 2 -107 -2 -28 0 -52 5 -52 4 0 7 3 8 8 3 27 9 44 23 58 9 8 16 19 16 24 0
5 6 7 14 4 7 -3 27 7 42 21 16 15 36 32 45 39 31 21 53 80 54 141 1 54 12 120
31 198 4 19 3 27 -7 27 -11 0 -11 2 1 10 12 8 12 10 -5 10 -17 1 -18 2 -5 13
21 17 23 28 22 153 0 106 -1 113 -26 137 -33 33 -30 72 4 72 22 0 23 5 26 78
2 42 0 77 -4 77 -4 0 -6 15 -6 33 1 17 2 58 3 90 1 35 5 56 11 52 21 -13 48
-165 29 -165 -5 0 -9 -33 -9 -74 0 -75 10 -93 43 -81 9 4 12 -30 14 -147 2
-170 5 -207 18 -228 5 -8 11 -103 13 -211 l4 -195 -67 -18 c-115 -32 -229
-136 -299 -273 -14 -29 -28 -53 -31 -53 -9 0 -26 83 -19 99 7 17 10 52 18 181
4 74 4 74 -5 20 -15 -84 -18 -89 -35 -66 -13 18 -14 18 -14 2 0 -9 -4 -15 -10
-11 -5 3 -7 12 -4 19 5 14 -23 43 -33 33 -3 -4 0 -13 6 -21 7 -8 10 -19 7 -25
-7 -11 18 -63 30 -61 5 1 11 -7 15 -17 11 -26 11 -123 0 -123 -19 0 -38 46
-33 82 3 29 -4 52 -34 106 l-37 70 28 26 c22 21 31 24 42 14 22 -18 52 16 35
40 -7 9 -20 30 -30 47 -32 55 -80 97 -102 90 -11 -4 -20 -2 -20 4 0 17 51 119
66 132 8 6 14 15 14 20 0 5 12 21 26 37 21 22 28 41 31 87 l5 58 -64 -7 c-35
-4 -80 -10 -100 -13 l-38 -6 0 321 c0 205 4 323 10 327 6 3 42 8 82 11 39 2
74 6 76 9 3 3 16 5 29 5 16 0 23 -6 23 -20z m-3512 -171 c1 -96 0 -184 -3
-197 -6 -23 -6 -23 -45 10 -22 18 -40 41 -40 51 0 10 4 16 9 12 17 -10 21 11
9 43 -7 17 -21 34 -32 37 -19 6 -19 8 -3 12 23 6 22 18 -6 40 -12 10 -29 32
-36 50 -7 18 -26 38 -42 45 -16 7 -29 15 -29 19 0 7 191 58 205 55 6 -2 11
-71 13 -177z m3066 114 c13 -32 5 -614 -7 -618 -14 -5 -363 -49 -517 -65 -58
-6 -120 -13 -137 -17 l-33 -5 0 119 c0 66 -3 181 -7 256 l-6 136 -29 6 c-16 4
-46 4 -68 0 l-40 -7 0 -262 0 -263 -162 -19 -162 -19 3 -120 c1 -66 4 -253 5
-415 3 -246 19 -678 29 -795 3 -29 5 -30 68 -35 44 -3 85 1 132 13 37 10 73
17 79 15 8 -3 10 -72 9 -228 -1 -124 -4 -227 -7 -229 -2 -3 -11 4 -19 15 -19
25 -19 14 0 -22 15 -29 19 -47 30 -135 l6 -46 69 -2 70 -2 1 203 c0 112 0 256
-1 321 l-1 117 39 0 c24 0 49 -8 65 -20 34 -27 151 -27 250 0 39 10 106 24
147 30 41 7 93 18 115 26 57 20 65 18 65 -16 0 -16 4 -30 8 -30 7 0 4 -581 -3
-588 -3 -4 -137 -22 -187 -26 -16 -2 -47 -4 -70 -6 l-43 -3 50 -6 c28 -4 56
-2 63 3 7 5 12 4 12 -3 0 -6 5 -11 11 -11 5 0 8 3 6 8 -4 5 95 7 167 3 5 -1 6
-30 2 -67 -4 -37 -4 -169 0 -294 l7 -228 106 -31 c58 -17 124 -40 146 -51 22
-11 51 -20 65 -20 30 0 122 -25 408 -111 173 -52 212 -67 212 -81 0 -13 -8
-18 -27 -19 -24 -2 -25 -2 -5 -6 18 -4 22 -11 22 -38 0 -33 -1 -34 -37 -28
-31 5 -35 4 -30 -10 8 -22 3 -21 -19 0 -13 13 -19 14 -22 5 -5 -15 -32 -16
-32 -1 0 5 -3 8 -7 6 -5 -3 -17 -1 -28 3 -15 5 -8 9 28 14 31 5 53 3 62 -4 8
-7 15 -7 19 -1 4 5 18 8 32 5 18 -3 25 -1 22 8 -6 17 -49 23 -58 8 -4 -7 -14
-8 -31 -1 -23 8 -64 4 -129 -14 -24 -7 -24 -7 -5 8 20 16 20 16 -5 16 -14 0
-42 -3 -62 -8 -31 -7 -38 -6 -38 6 0 12 -3 13 -13 4 -11 -8 -13 -5 -9 19 6 44
-13 37 -27 -10 -13 -45 -16 -46 -37 -25 -9 8 -26 15 -39 15 -17 0 -22 5 -19
18 2 9 0 24 -6 32 -9 13 -13 11 -29 -9 l-19 -25 5 30 c4 22 3 26 -6 18 -13
-12 -58 -7 -67 8 -8 13 -34 -11 -28 -26 7 -17 -27 -30 -37 -15 -4 7 -14 9 -23
6 -13 -5 -15 0 -10 27 6 38 -9 56 -24 30 -8 -15 -11 -12 -17 14 -7 34 -14 39
-32 21 -8 -8 -11 -6 -10 6 1 10 -3 20 -9 22 -18 6 -54 -33 -54 -58 0 -24 0
-24 -25 5 -25 29 -26 29 -40 10 -14 -18 -16 -18 -28 -2 -8 10 -24 15 -40 14
-15 -2 -27 1 -27 5 0 5 -4 9 -10 9 -5 0 -10 -7 -10 -15 0 -8 -7 -15 -15 -15
-9 0 -12 6 -9 15 4 8 1 15 -6 15 -6 0 -9 4 -5 9 3 5 1 12 -5 16 -5 3 -10 1
-10 -6 0 -10 -3 -10 -12 -1 -17 17 -28 15 -22 -6 5 -14 4 -14 -4 -3 -7 10 -7
21 -1 32 18 35 11 52 -19 47 -25 -4 -28 -1 -24 19 2 12 10 28 18 34 17 14 18
36 2 41 -19 7 -40 -20 -33 -41 3 -11 2 -22 -4 -25 -5 -3 -7 -15 -4 -25 3 -10
0 -22 -6 -25 -6 -4 -11 -1 -11 7 0 8 -11 22 -25 31 -30 20 -30 20 -33 -1 -12
-101 -20 -122 -42 -108 -6 4 -5 13 2 25 14 22 7 33 -25 35 -14 1 -23 9 -25 23
-2 12 -9 19 -16 16 -8 -3 -15 5 -19 23 -3 15 -12 37 -20 47 -13 18 -14 18 -20
-3 -4 -16 -2 -21 8 -17 15 5 25 -12 17 -31 -2 -7 -10 -13 -17 -13 -7 0 -16
-15 -20 -32 -6 -29 -8 -31 -15 -13 -5 11 -6 34 -3 51 3 18 0 35 -6 38 -7 5
-12 -3 -12 -21 -1 -15 -2 -40 -3 -55 0 -15 -4 -28 -8 -28 -5 0 -13 0 -18 0 -6
0 -8 11 -4 24 7 28 -13 96 -27 96 -6 0 -7 -9 -4 -20 4 -11 2 -20 -4 -20 -6 0
-11 -7 -11 -15 0 -17 -45 -21 -55 -4 -4 6 -14 8 -23 4 -8 -3 -19 0 -23 6 -4 7
-19 13 -33 15 -27 3 -29 -2 -28 -58 0 -16 -3 -28 -8 -28 -12 0 -19 26 -13 49
4 16 2 20 -10 16 -8 -4 -17 1 -20 9 -4 9 -13 13 -22 10 -8 -3 -15 -2 -15 4 0
6 6 13 13 15 7 3 4 6 -7 6 -13 1 -17 6 -13 21 3 10 0 21 -6 23 -6 2 -7 8 -3
15 8 13 36 5 33 -10 -1 -6 4 -13 11 -15 7 -3 12 3 12 15 0 11 -6 24 -12 28
-27 19 -78 1 -78 -28 0 -10 5 -16 10 -13 6 3 10 1 10 -6 0 -6 -10 -9 -23 -7
-24 5 -26 0 -28 -44 0 -15 -3 -15 -19 -6 -23 15 -30 9 -34 -28 -2 -15 -9 -30
-15 -32 -7 -2 -12 2 -10 9 1 8 1 22 0 31 -1 24 -31 11 -31 -13 0 -10 -4 -19
-10 -19 -16 0 -27 63 -20 127 5 51 3 60 -8 51 -10 -9 -16 -8 -23 3 -7 11 -9 9
-9 -8 0 -12 8 -26 17 -32 16 -8 15 -11 -7 -29 l-25 -20 -6 56 c-4 36 -7 46 -9
27 -1 -16 -2 -33 -1 -38 3 -17 -28 -5 -34 14 -4 12 -12 18 -21 15 -9 -4 -14 2
-14 17 0 21 0 21 -17 -3 -10 -14 -17 -28 -15 -32 1 -5 -3 -8 -8 -8 -6 0 -10
12 -10 26 0 14 -4 23 -10 19 -6 -4 -10 5 -10 19 0 14 -4 26 -10 26 -5 0 -10
-9 -10 -21 0 -22 -22 -49 -39 -49 -6 0 -11 12 -12 28 0 15 -3 22 -5 15 -8 -18
-34 -4 -34 18 0 10 -4 19 -9 19 -12 0 -22 -30 -14 -43 4 -6 0 -8 -9 -4 -22 8
-29 -2 -17 -26 8 -15 8 -18 -1 -12 -9 5 -9 3 -2 -11 5 -11 7 -25 4 -33 -3 -9
0 -11 7 -7 14 9 10 -16 -4 -26 -7 -5 -6 -8 0 -8 6 0 12 -12 13 -27 1 -16 -2
-23 -6 -17 -4 6 -17 14 -30 18 -12 4 -27 16 -32 27 -6 10 -18 19 -27 19 -13 0
-15 8 -10 45 8 56 -7 59 -21 5 -9 -36 -8 -42 9 -51 21 -11 22 -36 1 -58 -11
-11 -25 -12 -85 -1 -40 7 -79 12 -87 12 -8 0 -31 5 -50 11 -19 6 -45 10 -57 8
-13 -1 -23 3 -23 9 0 7 -8 9 -19 5 -16 -5 -391 44 -458 60 -16 4 -23 13 -23
30 0 27 -27 35 -36 12 -3 -8 -17 -12 -37 -10 -29 2 -30 2 -7 -6 42 -15 -1 -12
-142 9 -244 37 -363 58 -338 60 18 2 20 4 7 7 -9 2 -15 9 -12 14 7 11 -35 12
-62 2 -16 -6 -15 -8 7 -15 14 -4 -2 -4 -35 -1 -61 6 -111 22 -69 23 11 0 61
20 111 45 l91 45 -6 165 c-4 148 -3 165 12 171 9 3 74 -1 144 -9 70 -9 201
-23 292 -32 231 -22 351 -34 455 -46 180 -20 473 -49 595 -59 69 -6 193 -17
275 -25 250 -24 685 -57 698 -52 7 2 -28 8 -78 12 -70 7 -82 10 -55 15 26 4 2
9 -87 18 -67 7 -135 17 -151 21 -16 5 -105 12 -197 16 -160 7 -302 21 -242 24
l28 1 -4 85 c-3 70 -2 85 11 85 12 0 13 11 9 58 -4 31 -7 158 -8 282 -1 124
-4 215 -6 203 -9 -49 -19 -20 -17 50 2 39 4 110 5 157 2 77 3 80 9 35 4 -27 8
351 8 842 2 702 5 892 15 896 6 3 1 6 -13 7 -14 1 92 22 235 46 373 64 363 62
445 85 159 43 195 50 310 55 47 2 103 8 125 13 59 13 62 13 69 -6z m-3254 -75
c0 -13 -23 -9 -41 8 -10 9 -15 22 -12 30 4 11 10 9 29 -8 13 -13 24 -26 24
-30z m3927 -76 c-17 -21 -9 -135 10 -149 22 -17 10 -27 -16 -13 -19 10 -21 19
-21 117 0 60 5 122 13 142 l12 34 6 -59 c3 -34 1 -65 -4 -72z m-4048 85 c6 -8
8 -17 4 -20 -3 -4 1 -7 10 -7 9 0 19 -5 23 -11 5 -9 -1 -10 -20 -5 -17 4 -25
3 -22 -3 4 -5 -2 -14 -11 -20 -13 -8 -14 -10 -3 -11 11 0 11 -3 2 -12 -7 -7
-12 -20 -12 -30 0 -10 -4 -18 -10 -18 -5 0 -10 17 -10 39 0 29 6 42 23 54 19
13 20 18 9 36 -13 23 -1 29 17 8z m-149 -17 c-6 -11 -13 -20 -15 -20 -3 0 -5
9 -5 20 0 11 7 20 15 20 13 0 14 -4 5 -20z m-60 6 c0 -3 -4 -8 -10 -11 -5 -3
-10 -1 -10 4 0 6 5 11 10 11 6 0 10 -2 10 -4z m4430 -26 c0 -16 -4 -30 -8 -30
-5 0 -7 14 -4 30 2 17 6 30 8 30 2 0 4 -13 4 -30z m-4320 -4 c0 -8 -4 -18 -10
-21 -5 -3 -10 3 -10 14 0 12 5 21 10 21 6 0 10 -6 10 -14z m260 4 c0 -5 -4
-10 -10 -10 -5 0 -10 5 -10 10 0 6 5 10 10 10 6 0 10 -4 10 -10z m-580 -32 c0
-7 -4 -19 -9 -27 -11 -17 -25 3 -17 24 7 18 26 20 26 3z m166 -43 c-4 -14 -11
-25 -16 -25 -10 0 -4 43 8 65 9 15 14 -14 8 -40z m294 11 c0 -8 -4 -16 -10
-18 -5 -1 -12 -23 -14 -48 -2 -25 -4 -49 -5 -53 -1 -5 -7 -2 -15 5 -14 14 -9
89 8 116 10 17 36 15 36 -2z m-349 -29 c-8 -8 -11 -7 -11 4 0 20 13 34 18 19
3 -7 -1 -17 -7 -23z m169 19 c0 -7 -7 -19 -15 -26 -16 -13 -20 -3 -9 24 8 20
24 21 24 2z m-314 -74 c-3 -25 -13 -55 -20 -67 -8 -12 -16 -37 -18 -56 -5 -58
-23 -28 -22 38 0 45 6 68 18 82 10 11 15 24 12 30 -4 6 -2 20 5 32 11 21 12
21 21 4 6 -9 8 -38 4 -63z m5622 -103 l27 -2 -27 -4 c-16 -2 -28 -11 -28 -19
0 -15 21 -19 36 -6 5 5 20 6 34 2 25 -8 24 -8 -8 -15 -18 -4 -30 -10 -27 -13
6 -7 63 -9 63 -2 -1 20 6 26 37 26 19 0 30 -3 24 -7 -8 -5 -8 -8 0 -13 13 -8
34 2 27 13 -3 4 -1 13 5 21 6 11 9 9 9 -11 0 -31 -21 -52 -44 -43 -9 4 -16 1
-16 -6 0 -8 12 -11 34 -8 27 3 36 0 39 -13 3 -10 0 -22 -6 -28 -8 -8 -8 -11 1
-11 15 0 31 31 24 49 -3 8 1 12 9 9 8 -3 15 -18 15 -34 1 -16 4 -101 8 -189 3
-88 7 -249 7 -357 0 -134 4 -198 11 -198 7 0 7 -4 0 -13 -11 -13 -8 -60 5 -80
3 -6 1 -7 -5 -4 -6 5 -8 0 -5 -13 3 -11 11 -20 18 -20 11 0 11 -8 4 -32 -12
-42 -11 -42 4 -31 6 6 22 13 34 16 21 5 22 2 20 -34 -1 -27 -6 -38 -15 -34 -7
3 -10 0 -7 -5 3 -6 15 -10 27 -10 13 0 18 -5 15 -14 -3 -7 0 -19 6 -25 6 -6 7
-11 1 -11 -6 0 -15 5 -22 12 -7 7 -12 9 -12 6 0 -4 -13 -3 -30 2 -35 10 -39 1
-10 -18 12 -7 18 -17 15 -22 -3 -5 2 -13 11 -18 12 -7 8 -9 -17 -10 -18 0 -45
-10 -60 -21 -16 -12 -34 -21 -40 -21 -20 0 -48 31 -42 46 6 17 2 17 -31 4 -30
-11 -34 -3 -8 16 15 12 15 12 -5 7 -14 -3 -23 -13 -23 -25 0 -11 -4 -16 -11
-12 -6 3 -8 17 -5 29 3 13 1 27 -5 30 -7 5 -4 14 7 26 21 24 13 34 -15 19 -12
-6 -21 -8 -21 -5 0 11 28 35 42 36 7 0 5 4 -6 8 -17 7 -17 8 -2 24 10 9 23 17
29 17 7 0 6 -4 -3 -10 -11 -7 -5 -10 25 -10 31 0 37 -3 25 -11 -13 -9 -13 -10
0 -6 24 6 18 32 -7 31 -26 -1 -31 11 -8 20 8 3 15 10 15 16 0 6 -5 8 -11 5
-19 -12 -47 28 -38 53 8 20 6 21 -11 12 -28 -15 -40 -12 -40 10 0 11 5 20 11
20 6 0 8 9 4 20 -4 14 -2 20 8 20 21 0 46 32 30 37 -7 3 -13 11 -13 19 0 8 -4
14 -10 14 -5 0 -7 -6 -4 -14 3 -8 -3 -16 -15 -19 -14 -3 -21 0 -21 9 0 8 4 14
10 14 5 0 7 7 4 15 -4 8 -10 12 -15 9 -5 -3 -9 4 -9 16 0 12 -4 18 -10 15 -6
-3 -10 4 -10 17 0 18 -2 20 -10 8 -5 -8 -10 -10 -11 -5 0 6 -5 -1 -9 -15 -4
-14 -8 191 -7 455 1 264 3 438 4 388 l4 -93 27 -1z m-4952 134 c-3 -4 -6 0 -6
8 0 11 -2 11 -9 1 -6 -10 -11 -9 -22 4 -12 16 -12 17 4 11 10 -4 17 -2 17 6 0
7 5 4 11 -6 6 -10 8 -21 5 -24z m-1246 -2 c0 -20 -13 -35 -23 -25 -7 8 4 44
14 44 5 0 9 -9 9 -19z m1120 3 c0 -11 -5 -14 -16 -10 -9 3 -18 6 -20 6 -3 0
-2 5 1 10 10 16 35 12 35 -6z m-949 -31 c0 -10 3 -37 5 -60 3 -23 0 -44 -6
-48 -6 -3 -10 4 -11 17 0 13 -3 42 -5 66 -3 26 -1 42 5 42 6 0 11 -8 12 -17z
m266 -5 c-3 -8 -6 -5 -6 6 -1 11 2 17 5 13 3 -3 4 -12 1 -19z m444 -21 c-8 -8
-11 -5 -11 9 0 27 14 41 18 19 2 -9 -1 -22 -7 -28z m209 10 c0 -26 -16 -54
-26 -45 -10 10 6 79 17 73 5 -4 9 -16 9 -28z m-1226 -2 c3 -8 1 -15 -4 -15 -6
0 -10 7 -10 15 0 8 2 15 4 15 2 0 6 -7 10 -15z m222 -2 c-3 -10 -7 -36 -10
-58 -5 -38 -5 -38 6 -12 7 15 14 27 17 27 9 0 41 -115 42 -147 0 -24 3 -22 17
17 13 36 17 40 20 22 2 -12 -4 -36 -12 -54 -20 -39 -20 -38 3 -38 10 0 22 10
26 23 6 17 10 8 14 -38 9 -89 4 -99 -60 -106 -30 -3 -146 -24 -259 -47 -113
-22 -245 -48 -295 -57 -49 -9 -98 -18 -108 -21 -16 -5 -18 -2 -12 18 4 12 26
57 50 99 45 81 59 127 45 149 -7 11 -11 8 -21 -13 -7 -15 -19 -26 -27 -25 -9
2 -16 -7 -19 -22 -2 -13 -10 -34 -18 -47 -8 -12 -15 -29 -15 -37 0 -12 -33
-93 -47 -115 -1 -2 -9 1 -16 8 -9 7 -14 29 -13 57 1 25 -2 48 -6 50 -4 2 -6
17 -6 33 1 22 5 27 18 24 10 -3 20 2 24 12 3 9 10 13 16 10 9 -6 12 7 14 70 1
30 17 50 26 35 5 -8 12 0 20 24 13 42 20 47 72 56 31 6 38 4 39 -9 0 -10 2
-12 6 -3 2 6 11 12 19 12 8 0 14 5 14 10 0 6 7 10 15 10 10 0 15 -11 16 -37 1
-21 5 -51 10 -68 6 -21 7 -8 4 41 -5 66 -3 72 16 77 14 4 23 -1 29 -16 l9 -22
0 23 c1 12 7 25 14 28 7 2 13 17 12 32 -2 16 0 19 2 7 3 -11 14 -32 24 -46 13
-19 20 -46 21 -91 1 -56 2 -58 5 -15 2 26 9 47 15 47 7 0 9 -16 6 -43 -3 -23
-2 -51 2 -62 6 -15 9 -7 15 30 4 28 11 66 16 85 5 19 9 49 10 65 1 49 17 0 20
-60 l2 -50 8 64 c4 35 10 66 13 68 3 3 8 -18 12 -47 4 -28 10 -46 14 -40 5 8
10 9 14 2 3 -6 2 -13 -4 -17 -5 -3 -10 -11 -10 -16 0 -6 4 -8 9 -4 6 3 15 -3
21 -12 9 -15 10 -12 8 17 -1 19 1 41 6 48 4 7 1 12 -8 12 -9 0 -16 4 -16 9 0
5 -3 23 -6 40 -6 30 -5 31 26 31 27 0 31 -2 20 -15 -6 -8 -10 -20 -8 -26 2 -7
14 4 27 24 23 38 57 52 47 20z m849 -52 c-8 -17 -18 -31 -21 -31 -8 0 6 61 19
85 11 20 12 20 15 -2 2 -12 -4 -35 -13 -52z m225 50 c0 -17 -18 -21 -24 -6 -3
9 0 15 9 15 8 0 15 -4 15 -9z m1666 -17 c59 15 89 18 76 8 -11 -7 -9 -10 7
-15 11 -3 25 1 31 9 9 10 16 11 31 1 16 -10 21 -9 29 3 19 29 30 -11 30 -105
0 -49 4 -600 9 -1223 9 -1020 9 -1169 -1 -1177 -5 -4 -796 61 -856 71 -30 5
-33 8 -30 36 l3 31 70 -2 c39 -2 85 -4 103 -5 21 -2 32 2 32 10 0 13 -24 19
-119 28 -29 3 -55 7 -57 9 -2 1 0 28 3 59 l6 57 86 3 86 3 -3 28 c-2 19 2 27
13 27 8 0 16 -7 16 -15 1 -8 3 -19 4 -25 1 -5 3 -49 4 -97 1 -94 19 -101 19
-9 1 83 1 86 16 86 10 0 13 14 12 52 l-1 53 45 7 c25 3 81 7 124 7 44 1 76 4
72 8 -4 4 -26 6 -49 4 -50 -3 -43 9 10 20 30 6 24 7 -27 4 -36 -2 -57 -1 -47
2 20 5 22 14 5 32 -11 11 -9 11 9 2 27 -14 107 -15 98 -1 -3 6 -21 10 -38 10
-24 0 -28 3 -17 10 8 5 23 7 33 4 16 -5 17 0 13 43 -3 26 -10 311 -16 633 -6
322 -13 600 -16 618 -4 28 -9 32 -34 32 -17 0 -30 5 -30 10 0 7 13 8 35 4 l36
-6 -4 56 c-3 31 -6 57 -8 58 -2 0 -40 -2 -84 -6 l-80 -7 3 -719 3 -719 -38 -6
c-21 -4 -46 -9 -55 -12 -10 -2 -18 0 -18 6 0 6 7 11 15 11 13 0 15 76 14 623
0 342 -4 640 -8 662 l-7 40 -74 -3 c-41 -2 -88 -5 -104 -7 -59 -6 -61 0 -64
312 -2 156 0 283 3 283 4 0 105 18 224 39 231 42 297 52 354 55 20 0 39 4 43
8 4 4 12 0 19 -9 9 -12 20 -14 41 -9z m-2196 -1 c0 -10 -5 -25 -10 -33 -7 -11
-10 -7 -10 18 0 17 5 32 10 32 6 0 10 -8 10 -17z m-760 -33 c0 -11 -4 -20 -10
-20 -5 0 -10 9 -10 20 0 11 5 20 10 20 6 0 10 -9 10 -20z m837 -12 c-3 -7 -5
-2 -5 12 0 14 2 19 5 13 2 -7 2 -19 0 -25z m-1127 10 c0 -21 -14 -34 -37 -35
-17 -1 -20 2 -16 15 11 30 53 45 53 20z m1210 -5 c0 -10 -4 -24 -9 -31 -6 -11
-9 -10 -13 5 -3 10 -3 24 -1 31 7 18 23 15 23 -5z m410 10 c0 -5 -5 -15 -10
-23 -8 -12 -10 -11 -10 8 0 12 5 22 10 22 6 0 10 -3 10 -7z m5080 3 c0 -3 -4
-8 -10 -11 -5 -3 -10 -1 -10 4 0 6 5 11 10 11 6 0 10 -2 10 -4z m-5540 -15 c0
-6 -4 -13 -10 -16 -5 -3 -10 1 -10 9 0 9 5 16 10 16 6 0 10 -4 10 -9z m380
-23 c-1 -31 -19 -68 -34 -68 -9 0 -7 34 5 69 14 40 29 40 29 -1z m43 -10 c-8
-46 -13 -48 -13 -5 0 21 4 37 10 37 5 0 7 -14 3 -32z m-573 -51 c-10 -35 -10
-41 4 -49 9 -5 16 -16 16 -24 0 -8 4 -13 8 -10 5 3 6 27 2 53 -4 26 -6 52 -5
58 13 45 16 49 26 35 5 -8 9 -35 9 -60 0 -25 1 -65 3 -90 2 -39 -1 -45 -18
-46 -11 0 -31 -3 -45 -7 -38 -10 -100 -15 -100 -8 0 4 -7 16 -15 27 -15 18
-16 17 -10 -13 5 -25 3 -33 -8 -33 -23 0 -30 162 -8 182 11 11 13 5 8 -31 -6
-46 -1 -71 14 -71 5 0 9 20 9 45 0 25 5 45 10 45 6 0 10 -28 10 -65 0 -51 3
-65 15 -65 9 0 15 9 15 23 0 12 9 51 20 87 31 101 30 98 42 76 7 -13 7 -30 -2
-59z m746 39 c4 -25 -11 -19 -24 10 -11 22 -10 24 5 16 9 -6 18 -17 19 -26z
m-2216 -8 c0 -6 -6 -5 -15 2 -8 7 -15 14 -15 16 0 2 7 1 15 -2 8 -4 15 -11 15
-16z m50 12 c0 -5 -5 -10 -11 -10 -5 0 -7 5 -4 10 3 6 8 10 11 10 2 0 4 -4 4
-10z m1657 -12 c-3 -8 -6 -5 -6 6 -1 11 2 17 5 13 3 -3 4 -12 1 -19z m-57 -31
c0 -10 -7 -20 -15 -23 -8 -4 -15 -18 -15 -33 1 -25 1 -25 15 -7 14 19 15 18
15 -12 0 -24 -4 -32 -18 -32 -10 0 -23 -5 -30 -12 -13 -13 -15 -9 -12 42 2 53
9 70 27 63 12 -5 14 -1 9 15 -9 27 3 50 15 31 5 -8 9 -22 9 -32z m181 -30
c-13 -13 -15 15 -3 53 7 24 7 23 10 -9 2 -18 -1 -38 -7 -44z m1089 -167 l0
-230 -22 -5 c-13 -2 -34 -6 -48 -8 -14 -3 -4 -5 23 -6 l47 -1 0 -45 c0 -52
-16 -65 -80 -65 -43 0 -47 5 -52 55 -2 17 -8 30 -13 30 -10 0 -12 -5 -14 -42
-1 -17 -7 -23 -25 -23 -13 0 -27 -6 -29 -12 -3 -7 -6 25 -6 71 -1 81 -2 83
-23 78 -13 -3 -57 -9 -98 -12 -50 -5 -79 -12 -87 -23 -12 -14 -13 -14 -13 1 0
9 -5 17 -10 17 -16 0 -34 54 -20 58 7 3 7 9 -2 20 -10 12 -10 16 0 19 9 4 8
12 -6 31 -33 49 -41 76 -45 155 -2 42 -4 77 -3 77 12 6 513 95 519 93 4 -2 7
-107 7 -233z m-1114 204 c-4 -9 -9 -15 -11 -12 -3 3 -3 13 1 22 4 9 9 15 11
12 3 -3 3 -13 -1 -22z m6214 13 c0 9 7 7 20 -4 11 -10 20 -25 20 -35 0 -9 5
-20 10 -23 6 -4 8 -11 5 -16 -4 -5 -2 -9 4 -9 5 0 10 -8 10 -17 0 -10 4 -49
10 -88 5 -38 7 -73 5 -77 -3 -4 -2 -14 3 -20 4 -7 8 -26 9 -43 2 -16 5 -57 9
-90 7 -79 8 -323 0 -335 -3 -6 -2 -10 3 -10 9 0 7 -95 -4 -175 -3 -22 -5 -55
-5 -73 0 -18 -4 -30 -9 -27 -4 3 -3 -8 3 -24 9 -25 8 -33 -7 -50 -10 -10 -16
-30 -14 -43 2 -17 -2 -23 -15 -22 -15 2 -16 -1 -5 -14 11 -13 10 -15 -3 -10
-12 5 -16 -1 -17 -24 0 -17 -6 -34 -13 -38 -6 -4 -9 -12 -5 -18 3 -6 2 -13 -4
-17 -5 -3 -10 1 -10 9 0 9 -8 16 -17 17 -14 0 -14 2 3 9 32 13 37 28 9 22 -15
-2 -25 0 -25 7 0 6 5 11 12 11 9 0 9 3 0 12 -9 9 -12 154 -12 589 0 560 3 656
21 627 7 -10 9 -10 9 -1z m-7670 -22 c0 -8 -4 -15 -10 -15 -5 0 -7 7 -4 15 4
8 8 15 10 15 2 0 4 -7 4 -15z m1581 -48 c-8 -8 -11 -2 -11 19 0 40 14 54 18
19 2 -15 -1 -32 -7 -38z m5962 26 c4 -21 8 -240 11 -488 2 -247 1 -416 -2
-375 -7 75 -7 75 -15 -60 -5 -74 -9 -150 -11 -169 -1 -19 -10 -39 -21 -47 -18
-13 -18 -14 3 -14 29 0 29 -28 0 -35 -49 -10 -61 -9 -66 4 -3 10 0 12 12 8 9
-4 16 -2 16 3 0 6 -12 11 -27 11 -21 1 -23 2 -8 6 31 8 42 23 17 23 -12 0 -22
5 -22 10 0 6 3 10 8 10 8 0 7 45 -3 78 -4 12 -15 23 -24 23 -14 1 -13 2 2 6
20 5 22 14 6 30 -9 9 -8 18 5 37 9 15 12 26 6 26 -5 0 -10 15 -10 34 0 47 -16
87 -32 81 -8 -3 -22 2 -33 11 -11 8 -15 13 -8 10 12 -7 26 9 29 32 4 22 14 27
14 7 0 -27 13 -9 16 22 2 15 -2 31 -9 35 -8 5 -8 8 -1 8 7 0 10 16 9 42 -2 30
2 46 13 55 16 11 16 12 0 13 -19 0 -26 20 -8 20 12 0 14 26 3 33 -5 2 -2 2 5
1 9 -3 11 7 6 39 -4 23 -7 47 -8 52 0 6 5 9 12 7 6 -1 12 2 12 7 0 5 -6 12
-12 14 -10 4 -9 8 2 16 8 6 11 11 7 11 -5 0 -5 6 0 13 4 6 8 19 8 27 0 8 4 21
8 28 5 7 7 22 6 35 -1 12 1 33 4 47 4 14 8 43 10 65 7 70 29 155 40 148 6 -3
7 -1 3 5 -4 7 -4 17 -1 22 12 20 23 9 28 -27z m-6023 18 c0 -6 -4 -13 -10 -16
-5 -3 -10 1 -10 9 0 9 5 16 10 16 6 0 10 -4 10 -9z m220 -6 c0 -8 -4 -15 -10
-15 -5 0 -7 7 -4 15 4 8 8 15 10 15 2 0 4 -7 4 -15z m-65 -4 c3 -5 1 -12 -5
-16 -5 -3 -10 1 -10 9 0 18 6 21 15 7z m-235 -31 c0 -10 -4 -22 -10 -25 -6 -4
-10 7 -10 25 0 18 4 29 10 25 6 -3 10 -15 10 -25z m-1495 -29 c-3 -14 -7 -35
-9 -45 -5 -39 -22 -25 -25 19 -2 53 4 66 25 58 11 -4 14 -13 9 -32z m1572 17
c-3 -8 -6 -5 -6 6 -1 11 2 17 5 13 3 -3 4 -12 1 -19z m-1771 -43 c18 -76 17
-132 -2 -139 -9 -3 -19 -4 -24 -1 -4 3 -10 -2 -14 -10 -4 -11 2 -15 19 -15 14
0 25 -5 25 -11 0 -6 -9 -8 -21 -4 -19 6 -21 5 -14 -16 4 -13 9 -40 12 -60 5
-34 3 -37 -24 -43 -35 -7 -272 -26 -329 -26 l-44 0 0 145 0 145 30 2 c17 1 38
2 48 2 9 1 20 5 23 9 6 8 142 46 166 47 8 0 10 -7 6 -17 -5 -14 -1 -13 24 5
78 55 104 52 119 -13z m1613 14 c-16 -10 -23 -4 -14 10 3 6 11 8 17 5 6 -4 5
-9 -3 -15z m2375 -199 c3 -96 1 -171 -4 -180 -6 -10 -10 50 -10 169 0 101 2
182 4 180 3 -3 7 -79 10 -169z m-4604 125 c0 -8 -1 -15 -3 -15 -1 0 -17 -4
-35 -9 -41 -12 -45 10 -4 26 38 15 42 15 42 -2z m2538 -23 c-21 -26 -23 -27
-26 -9 -4 20 13 37 36 37 9 0 5 -10 -10 -28z m-2651 -14 c-3 -8 -6 -5 -6 6 -1
11 2 17 5 13 3 -3 4 -12 1 -19z m187 6 c3 -9 6 -63 6 -120 l0 -104 -69 0 c-73
0 -104 7 -96 20 3 5 1 11 -5 15 -5 3 -10 -1 -10 -9 0 -18 -17 -19 -97 -10 -43
6 -53 10 -53 25 0 19 -7 21 -80 23 -34 1 -39 51 -10 97 18 27 21 29 17 10 -5
-22 -4 -23 30 -18 22 4 42 2 50 -5 8 -6 13 -7 12 -2 -7 37 3 62 26 66 26 5 36
-16 13 -25 -24 -10 16 -7 52 3 29 8 37 7 48 -7 11 -15 12 -15 12 0 0 18 23 33
60 38 22 4 25 0 36 -56 l11 -60 2 48 c2 69 29 113 45 71z m2324 -99 c3 -97 1
-115 -12 -115 -8 0 -19 -7 -24 -16 -7 -12 -11 -3 -16 37 -4 30 -8 68 -8 84 1
32 38 125 50 125 4 0 9 -52 10 -115z m32 99 c0 -8 -5 -12 -10 -9 -6 4 -8 11
-5 16 9 14 15 11 15 -7z m-2765 -4 c-3 -5 -11 -10 -16 -10 -6 0 -7 5 -4 10 3
6 11 10 16 10 6 0 7 -4 4 -10z m2648 -15 c4 -8 2 -17 -3 -20 -6 -4 -10 0 -11
7 0 7 -4 3 -9 -10 -10 -22 5 -62 22 -62 12 0 10 -48 -2 -55 -6 -4 -10 5 -10
21 0 26 0 26 -55 19 -37 -4 -55 -3 -55 4 0 6 7 11 15 11 8 0 15 8 15 18 1 15
2 15 15 -2 11 -14 15 -16 15 -5 0 12 2 12 11 -1 8 -11 9 -5 4 23 -6 40 6 67
30 67 7 0 15 -7 18 -15z m135 -5 c-7 -10 -14 -17 -17 -15 -4 4 18 35 25 35 2
0 -1 -9 -8 -20z m-2708 -15 c0 -8 -4 -15 -10 -15 -5 0 -7 7 -4 15 4 8 8 15 10
15 2 0 4 -7 4 -15z m2507 -17 c-3 -7 -5 -2 -5 12 0 14 2 19 5 13 2 -7 2 -19 0
-25z m6078 22 c3 -5 1 -10 -4 -10 -6 0 -11 5 -11 10 0 6 2 10 4 10 3 0 8 -4
11 -10z m-8847 -37 c-8 -15 -20 -27 -27 -25 -7 1 -28 -2 -47 -7 -40 -11 -41
-8 -12 21 16 16 20 17 15 5 -8 -20 -6 -21 28 -5 27 12 33 27 13 29 -7 1 -2 4
12 8 33 10 34 8 18 -26z m66 22 c-4 -8 -11 -15 -16 -15 -6 0 -5 6 2 15 7 8 14
15 16 15 2 0 1 -7 -2 -15z m2585 -14 c-15 -5 -22 6 -14 19 6 9 10 9 16 -1 5
-8 4 -15 -2 -18z m-87 -2 c-22 -8 -22 -13 -17 -91 2 -46 2 -109 -1 -141 l-7
-58 -43 2 c-24 2 -46 1 -49 -2 -2 -3 2 -75 10 -160 8 -85 15 -209 15 -275 0
-151 17 -320 35 -357 7 -15 9 -24 3 -21 -7 4 -8 -15 -4 -57 6 -55 11 -67 38
-89 33 -28 46 -82 25 -107 -6 -9 -6 -13 3 -13 8 0 10 -9 6 -27 -6 -28 -6 -28
24 7 16 19 30 38 30 43 0 13 -18 7 -24 -8 -3 -8 -10 -15 -16 -15 -17 0 -1 20
32 40 27 16 28 19 13 33 -8 9 -21 15 -28 13 -7 -1 -9 -1 -4 1 18 11 4 34 -24
40 -22 4 -27 8 -17 14 19 12 21 12 63 -16 20 -15 40 -24 43 -21 3 3 12 1 19
-6 11 -9 16 -9 23 1 5 9 18 11 39 6 28 -6 31 -4 31 19 0 13 4 27 9 30 11 7 21
-17 21 -52 0 -14 7 -34 17 -44 15 -17 15 -18 -5 -18 -20 0 -22 -5 -23 -67 -1
-109 -17 -123 -18 -16 l-1 91 -35 12 c-19 6 -39 9 -45 5 -5 -3 -10 1 -10 9 0
9 -4 16 -10 16 -19 0 -10 -15 35 -58 46 -44 56 -76 33 -101 -7 -8 -8 -11 -3
-9 6 4 11 -18 13 -53 3 -59 3 -59 -25 -59 -15 0 -23 4 -17 8 17 11 12 113 -4
110 -9 -2 -15 -23 -18 -58 -3 -30 -6 -67 -7 -82 -1 -16 -7 -28 -13 -28 -12 0
-11 95 0 148 3 14 0 22 -9 22 -19 0 -27 28 -14 51 5 11 9 28 7 37 -3 12 -10 4
-23 -23 -10 -22 -34 -63 -53 -92 -27 -41 -33 -58 -28 -79 5 -18 3 -30 -6 -36
-10 -7 -10 -11 -1 -14 8 -4 9 -13 3 -29 -5 -12 -7 -25 -5 -26 1 -2 5 -31 8
-64 8 -85 13 -95 52 -95 19 0 37 -5 40 -10 10 -17 35 16 35 46 0 34 9 27 12
-9 4 -45 18 -30 18 18 0 25 5 45 10 45 6 0 10 -20 10 -45 l0 -45 73 3 c80 4
118 -2 125 -21 2 -8 -7 -12 -28 -12 -18 0 -29 -4 -25 -10 3 -6 -4 -14 -16 -18
-16 -6 10 -11 86 -16 93 -6 111 -5 121 9 14 18 49 21 38 3 -5 -10 -3 -10 7 0
8 7 14 26 14 42 0 26 -4 30 -28 30 -34 0 -32 23 1 28 18 3 22 10 22 44 0 35
-2 40 -20 35 -11 -3 -18 -1 -15 4 3 4 -6 11 -20 15 -13 3 -23 9 -20 14 4 7
-39 50 -53 51 -4 0 -17 13 -29 29 -18 22 -23 43 -25 94 -1 36 1 68 4 72 4 3
19 -1 35 -10 21 -10 41 -37 67 -93 21 -43 39 -82 40 -88 1 -5 5 -16 9 -22 5
-7 6 -17 3 -21 -7 -12 12 -38 21 -28 4 4 8 105 8 224 0 163 3 216 13 219 7 3
12 23 12 51 0 26 5 54 10 62 7 10 10 -15 10 -80 0 -52 3 -259 7 -459 l6 -364
-26 5 c-21 4 -27 1 -27 -13 0 -17 -8 -19 -75 -17 -41 0 -78 -2 -82 -5 -3 -4
18 -7 48 -7 34 0 49 -3 40 -9 -9 -6 1 -10 30 -13 24 -2 46 -2 49 2 3 3 32 4
65 1 l60 -6 3 -176 2 -176 -61 -27 c-88 -38 -165 -46 -274 -29 -49 7 -126 18
-170 22 -107 12 -275 40 -301 51 -18 7 -21 15 -18 47 2 21 4 87 4 147 1 60 5
119 10 131 5 14 4 27 -2 33 -8 8 -6 42 6 119 18 119 21 393 6 663 -4 85 -13
281 -20 435 -9 220 -16 287 -29 315 -11 24 -16 65 -17 130 -1 52 -3 139 -6
193 -3 59 0 117 7 145 12 46 13 47 71 62 32 9 70 14 83 11 l25 -4 -22 -8z
m-2424 -41 l10 -50 -77 7 c-42 4 -78 9 -80 11 -8 7 25 30 39 27 12 -4 13 -3 1
5 -18 13 -4 34 18 27 10 -3 23 0 29 8 6 7 20 13 30 14 16 1 22 -8 30 -49z
m2932 44 c0 -5 -7 -17 -15 -28 -15 -19 -20 -8 -9 20 6 17 24 22 24 8z m-380
-42 c0 -23 -4 -30 -20 -30 -23 0 -25 12 -8 40 18 28 28 25 28 -10z m402 -32
c-7 -7 -12 -8 -12 -2 0 14 12 26 19 19 2 -3 -1 -11 -7 -17z m-1032 -89 l0
-101 -47 6 c-27 3 -131 11 -233 17 -102 7 -179 14 -173 16 10 4 9 8 -2 20 -23
23 -19 62 8 68 47 12 393 73 420 74 l27 1 0 -101z m721 58 c6 -98 7 -127 2
-159 -5 -37 -5 -38 -49 -38 -28 0 -44 5 -45 13 0 10 -2 10 -6 0 -2 -7 -11 -13
-19 -13 -11 0 -14 16 -14 65 0 52 3 65 16 65 8 0 12 -5 9 -11 -4 -6 2 -5 14 3
12 7 17 14 11 16 -5 2 -10 13 -11 25 0 22 0 22 -9 0 -14 -34 -30 -28 -30 11 0
32 3 35 33 38 82 9 97 7 98 -15z m233 7 c7 -18 -4 -73 -15 -80 -5 -3 -9 -15
-9 -28 0 -12 -11 -32 -25 -44 -14 -12 -25 -29 -25 -37 0 -8 -4 -15 -9 -15 -16
0 -10 84 6 102 9 11 13 26 10 40 -9 34 11 73 39 74 12 1 25 -5 28 -12z m227
-35 l-10 -24 0 26 c-1 14 2 29 6 33 12 12 14 -9 4 -35z m-414 -26 c-3 -10 -5
-2 -5 17 0 19 2 27 5 18 2 -10 2 -26 0 -35z m273 7 c0 -22 -4 -40 -10 -40 -11
0 -13 39 -4 64 10 26 14 19 14 -24z m-50 15 c0 -8 -4 -15 -10 -15 -5 0 -7 7
-4 15 4 8 8 15 10 15 2 0 4 -7 4 -15z m-1530 -34 c0 -38 -11 -51 -46 -51 -31
0 -69 26 -69 48 0 8 47 19 88 21 20 1 27 -4 27 -18z m2190 -61 l0 -69 -39 3
c-21 2 -43 6 -49 10 -6 3 -12 1 -14 -6 -6 -17 -48 59 -48 87 0 20 7 25 43 33
23 6 57 10 75 11 l32 1 0 -70z m-872 23 c9 -17 9 -22 -3 -27 -11 -4 -15 2 -15
26 0 34 2 34 18 1z m-1781 -25 c0 -7 -13 -13 -29 -14 -23 -1 -26 2 -17 12 14
17 46 18 46 2z m3476 5 c-7 -2 -19 -2 -25 0 -7 3 -2 5 12 5 14 0 19 -2 13 -5z
m593 -90 c2 -43 0 -84 -5 -91 -4 -7 -8 30 -9 84 -1 114 9 119 14 7z m604 67
c0 -5 -7 -10 -15 -10 -8 0 -15 5 -15 10 0 6 7 10 15 10 8 0 15 -4 15 -10z
m-4690 -5 c0 -8 -52 -26 -58 -20 -3 2 6 9 19 14 28 11 39 13 39 6z m35 -25
c-3 -5 -11 -10 -16 -10 -6 0 -7 5 -4 10 3 6 11 10 16 10 6 0 7 -4 4 -10z
m1895 -4 c0 -3 -4 -8 -10 -11 -5 -3 -10 -1 -10 4 0 6 5 11 10 11 6 0 10 -2 10
-4z m-67 -35 c4 -16 18 -20 106 -26 55 -4 101 -11 101 -15 0 -14 -29 -20 -62
-13 -24 5 -29 3 -23 -7 7 -11 -8 -12 -76 -6 -46 4 -96 7 -111 7 -18 -1 -28 4
-28 13 0 16 21 26 55 26 18 0 22 4 18 20 -3 11 -1 20 5 20 5 0 12 -8 15 -19z
m-1883 -41 c-12 -16 -26 -30 -31 -30 -6 0 -1 14 11 30 12 17 26 30 31 30 6 0
1 -13 -11 -30z m-755 10 c3 -5 2 -10 -4 -10 -5 0 -13 5 -16 10 -3 6 -2 10 4
10 5 0 13 -4 16 -10z m647 -32 c-12 -13 -22 -17 -22 -11 0 15 31 46 38 38 3
-3 -4 -15 -16 -27z m143 -8 c-10 -11 -20 -18 -23 -15 -7 6 18 35 31 35 5 0 2
-9 -8 -20z m-945 0 c0 -5 -4 -10 -10 -10 -5 0 -10 5 -10 10 0 6 5 10 10 10 6
0 10 -4 10 -10z m154 -1 c6 -6 25 -456 26 -636 0 -23 5 -33 15 -33 8 0 15 -4
15 -10 0 -5 10 -11 23 -11 17 -1 18 -2 4 -6 -10 -3 -24 0 -31 6 -9 8 -13 7
-13 -2 0 -7 14 -14 31 -15 36 -3 35 -2 38 -33 3 -24 1 -25 -52 -28 l-25 -1 2
-357 c2 -197 5 -362 7 -368 2 -6 41 -8 107 -4 57 4 128 7 157 8 l52 1 0 -59
c0 -33 -5 -63 -10 -66 -7 -4 -7 -12 0 -25 14 -25 13 -30 -6 -30 -10 0 -14 6
-10 15 3 8 1 15 -3 15 -5 0 -11 -6 -14 -14 -4 -10 -38 -16 -129 -21 -184 -11
-183 -11 -351 12 -60 8 -111 12 -114 9 -4 -3 2 -6 13 -7 18 0 18 -1 -1 -8 -15
-6 -9 -10 29 -15 86 -13 98 -25 26 -26 -36 -1 -96 -3 -135 -5 -131 -8 -530
-25 -674 -30 -101 -3 -163 -1 -210 9 -36 8 -84 17 -106 21 -22 3 -49 8 -60 11
-20 5 -20 5 -1 -10 23 -18 14 -21 -15 -5 -11 5 -17 13 -15 17 3 5 -59 9 -137
10 -177 3 -206 5 -200 15 2 4 -8 7 -24 7 -15 0 -39 3 -52 7 -17 4 -22 3 -17
-5 10 -17 -6 -15 -32 4 -13 9 -31 14 -40 12 -10 -3 -38 -2 -62 1 -32 5 -3 9
105 14 300 15 663 38 775 49 63 6 140 11 170 10 30 0 43 2 28 5 -16 2 -28 9
-28 14 0 6 9 7 20 4 12 -4 20 -2 20 5 0 12 -9 15 -58 24 -20 4 -31 2 -27 -4 3
-6 1 -10 -4 -10 -6 0 -11 5 -11 10 0 6 -12 8 -27 5 -16 -3 -22 -2 -15 1 16 8
16 24 -1 24 -8 0 -14 12 -14 28 -4 149 -7 180 -14 198 -4 12 -5 25 -1 28 3 4
5 39 4 78 -1 39 1 75 4 80 12 20 21 -13 17 -67 -2 -33 2 -57 9 -61 6 -4 8 -3
4 4 -4 6 1 10 13 9 11 0 18 -4 15 -8 -2 -4 -1 -10 4 -13 5 -3 7 -19 4 -36 -2
-16 0 -30 6 -30 11 0 22 47 22 93 0 49 21 96 42 94 15 -1 18 -10 18 -50 0 -40
3 -48 15 -43 12 4 14 0 8 -22 -5 -15 -7 -47 -6 -72 1 -27 -2 -38 -6 -26 -5 13
-14 -6 -34 -70 -40 -133 -26 -121 38 31 8 19 9 19 12 -2 3 -13 8 -23 12 -23
12 0 34 -118 25 -132 -5 -7 -2 -9 8 -5 22 8 28 -1 18 -28 -7 -17 -5 -25 6 -29
41 -16 73 4 54 33 -6 10 -9 10 -15 1 -15 -24 -30 20 -27 80 4 59 22 86 22 33
1 -16 7 -39 15 -53 18 -31 18 -20 1 100 -8 52 -13 96 -12 98 2 1 20 -35 40
-80 56 -123 59 -128 68 -128 12 0 10 15 -13 72 -28 68 -64 183 -73 228 l-7 35
20 -30 c12 -16 26 -45 32 -63 6 -18 13 -32 15 -29 5 4 -34 117 -70 204 -27 66
-35 106 -13 63 42 -80 99 -180 103 -180 2 0 1 15 -2 33 -6 35 -8 37 47 -33
l20 -25 -12 25 c-11 24 -11 24 20 -4 47 -45 37 -24 -20 41 -61 69 -87 112 -45
74 40 -37 31 -19 -19 40 -50 59 -52 79 -3 33 34 -32 29 -19 -13 36 -26 35 -44
80 -30 80 10 0 73 -68 100 -107 12 -18 27 -33 34 -33 6 0 22 -10 36 -22 14
-13 2 3 -27 35 -29 33 -71 91 -93 130 -23 40 -50 81 -60 92 -10 11 -23 33 -29
49 -9 25 -9 27 5 16 8 -7 12 -16 9 -21 -3 -5 0 -9 5 -9 6 0 11 -7 11 -16 0 -8
4 -12 10 -9 5 3 20 -16 34 -43 13 -26 32 -54 40 -61 20 -17 20 -7 0 27 -16 27
-16 27 2 6 11 -12 45 -54 78 -93 57 -69 89 -92 48 -34 -10 15 -36 64 -56 107
-31 68 -33 76 -14 60 12 -10 19 -14 15 -8 -5 9 -21 91 -42 219 -4 27 -3 27 8
-5 6 -20 24 -59 40 -88 15 -29 37 -78 48 -108 25 -67 38 -65 15 2 -27 80 -17
95 17 24 38 -81 46 -58 12 35 -58 154 -85 241 -83 259 3 23 53 -100 64 -157 4
-25 10 -35 16 -29 7 7 1 41 -15 99 -39 134 -50 199 -38 220 8 14 10 5 11 -39
0 -43 4 -58 14 -58 11 0 14 18 11 88 -1 48 -6 106 -10 129 -4 23 -4 72 0 108
6 56 9 64 21 54 9 -8 13 -23 10 -42 -5 -33 1 -57 16 -57 6 0 8 7 5 15 -4 8 -2
17 4 20 5 4 7 10 4 15 -9 14 6 60 19 60 17 0 49 -57 36 -65 -5 -3 -10 -16 -10
-28 1 -22 1 -22 13 -2 13 23 14 26 16 63 l1 27 14 -25 c7 -14 11 -38 10 -53
-3 -26 13 -67 26 -67 3 0 5 25 5 56 -1 30 3 58 7 61 5 2 4 11 -3 19 -7 9 -8
14 -1 14 6 0 14 -4 17 -10 7 -11 66 -14 63 -2 -2 4 2 7 7 7 6 0 9 -5 7 -11 -1
-8 5 -10 18 -7 15 4 19 11 14 25 -5 16 -2 18 23 13 25 -5 26 -4 6 4 -13 6 -23
15 -23 21 0 14 7 13 34 -6 23 -14 25 -14 31 5 6 21 45 30 45 11 0 -5 9 -10 20
-10 11 0 20 -6 21 -12 0 -10 2 -10 5 -1 3 7 13 10 22 7 15 -5 15 -4 0 6 -10 6
-18 15 -18 20 0 8 25 8 34 -1z m684 -9 c-7 -11 -17 -20 -22 -20 -5 0 -1 9 9
20 10 11 20 20 22 20 2 0 -2 -9 -9 -20z m1870 -64 c-1 -31 2 -51 10 -54 6 -2
16 -21 22 -43 10 -34 14 -39 41 -39 18 0 28 4 24 10 -3 6 -15 10 -26 10 -10 0
-19 5 -19 10 0 6 6 10 13 10 8 0 7 4 -3 10 -8 5 -10 10 -5 10 6 0 21 -7 33
-16 13 -9 29 -13 37 -10 17 6 21 36 5 36 -14 0 -12 13 5 36 14 18 14 18 8 -3
-4 -17 -1 -23 11 -23 18 0 22 -16 6 -22 -6 -2 -13 -15 -15 -30 -4 -23 -1 -27
25 -33 16 -4 51 -5 77 -4 42 3 48 1 48 -16 0 -18 -8 -20 -63 -23 -54 -3 -62
-5 -52 -17 18 -22 4 -18 -30 6 -23 18 -38 21 -79 17 -44 -4 -51 -3 -51 13 0
10 -4 21 -10 24 -5 3 -10 1 -10 -6 0 -9 -3 -9 -14 0 -11 10 -15 8 -19 -6 -3
-10 -5 -4 -6 13 -1 32 18 49 49 45 8 -1 -5 10 -30 25 -29 18 -39 29 -30 32 23
8 30 23 30 72 0 33 3 41 10 30 6 -8 9 -37 8 -64z m687 54 c16 -7 12 -9 -18 -9
-23 -1 -36 3 -32 9 7 12 23 12 50 0z m5270 0 c-3 -5 -12 -10 -18 -10 -7 0 -6
4 3 10 19 12 23 12 15 0z m-5515 -26 c0 -8 -5 -12 -10 -9 -6 4 -8 11 -5 16 9
14 15 11 15 -7z m-3593 -36 c-3 -7 -5 -2 -5 12 0 14 2 19 5 13 2 -7 2 -19 0
-25z m1306 12 c-3 -12 -8 -19 -11 -16 -5 6 5 36 12 36 2 0 2 -9 -1 -20z m1952
-10 c3 -5 1 -10 -4 -10 -6 0 -11 5 -11 10 0 6 2 10 4 10 3 0 8 -4 11 -10z m48
3 c-7 -2 -19 -2 -25 0 -7 3 -2 5 12 5 14 0 19 -2 13 -5z m4179 -58 l47 -17 1
-208 c0 -114 2 -216 4 -226 2 -11 7 -291 11 -623 6 -494 5 -605 -5 -611 -9 -6
-14 -30 -13 -74 l0 -66 -46 -1 c-25 0 -39 -3 -31 -7 8 -4 15 -18 15 -32 0 -22
-4 -25 -39 -25 l-39 0 -1 88 c-1 72 1 87 14 87 12 1 12 3 -2 11 -16 9 -18 26
-18 123 0 129 -5 136 -77 110 -21 -7 -32 -13 -25 -14 35 -1 42 -24 44 -165 3
-162 -21 -222 -110 -282 l-55 -36 -136 5 c-161 5 -116 -4 122 -26 180 -17 424
-21 445 -8 13 8 -9 15 -150 42 -43 8 -56 15 -51 26 6 15 23 19 23 5 0 -5 39
-12 88 -15 144 -11 140 -9 135 -64 -2 -26 -6 -85 -9 -132 l-5 -86 -212 2
c-219 2 -282 11 -486 70 l-53 15 6 597 c4 328 9 598 10 600 2 1 15 -2 30 -7
l26 -11 0 -235 0 -236 38 3 37 3 6 187 c4 103 9 206 13 230 3 24 8 196 11 383
3 187 8 354 10 371 8 47 -45 143 -111 203 -31 28 -50 51 -44 51 24 0 121 -105
147 -159 22 -46 27 -73 29 -146 2 -68 7 -92 19 -101 12 -9 14 -21 9 -50 -4
-22 -7 -81 -6 -133 1 -52 -3 -100 -8 -106 -7 -8 -7 -48 0 -116 20 -218 28
-409 23 -532 l-6 -127 99 5 c54 3 100 7 102 9 2 2 -25 7 -61 11 l-64 7 -12
201 c-7 111 -16 249 -21 307 -12 140 -12 458 -1 594 8 94 14 118 45 180 37 73
81 127 151 183 l39 33 26 -24 c14 -13 46 -31 72 -41z m-6278 30 c-19 -29 -23
-31 -20 -9 2 13 22 33 34 34 1 0 -5 -11 -14 -25z m202 0 c-10 -8 -22 -12 -26
-10 -4 3 -13 -2 -20 -10 -19 -22 -32 -18 -19 6 7 14 17 19 29 16 11 -3 25 1
31 9 7 8 15 12 18 8 3 -3 -3 -12 -13 -19z m2179 5 c3 -5 -1 -10 -9 -10 -9 0
-16 5 -16 10 0 6 4 10 9 10 6 0 13 -4 16 -10z m2987 -20 c-35 -16 -87 -46
-115 -67 -71 -51 -169 -145 -160 -152 11 -8 53 -88 53 -100 0 -6 -11 -11 -24
-11 -18 0 -27 9 -40 40 -12 31 -20 38 -33 33 -10 -4 -20 -10 -23 -13 -23 -32
-83 -91 -88 -86 -3 4 -1 11 5 17 6 6 9 18 5 27 -4 11 -1 14 11 9 8 -3 21 1 27
9 10 11 10 14 -1 14 -14 0 43 56 152 149 61 52 143 102 224 138 74 33 80 27 7
-7z m-3345 14 c-3 -3 -12 -4 -19 -1 -8 3 -5 6 6 6 11 1 17 -2 13 -5z m763 -18
c0 -3 -4 -8 -10 -11 -5 -3 -10 -1 -10 4 0 6 5 11 10 11 6 0 10 -2 10 -4z
m-3965 -26 c11 9 13 6 11 -17 -2 -15 -5 -55 -5 -88 -3 -78 -16 -47 -24 55 -3
41 -3 67 0 57 4 -14 8 -16 18 -7z m3565 -16 c0 -17 -22 -14 -28 4 -2 7 3 12
12 12 9 0 16 -7 16 -16z m287 -6 c-3 -8 -6 -5 -6 6 -1 11 2 17 5 13 3 -3 4
-12 1 -19z m-2500 -33 c-20 -19 -42 -35 -47 -35 -6 0 -10 -7 -10 -15 0 -18 25
-10 52 17 19 19 38 24 38 9 0 -13 -51 -52 -60 -46 -4 2 -15 -4 -25 -15 -10
-11 -23 -20 -28 -20 -6 0 -2 9 8 20 31 35 2 21 -34 -15 -19 -20 -36 -33 -38
-31 -9 8 30 57 56 71 23 13 24 14 6 15 -12 0 -26 -5 -33 -12 -18 -18 -14 3 5
24 18 20 38 25 27 6 -4 -7 6 -1 22 13 62 56 120 69 61 14z m7103 15 c0 -5 -5
-10 -11 -10 -5 0 -7 5 -4 10 3 6 8 10 11 10 2 0 4 -4 4 -10z m-5045 -10 c-3
-5 -11 -10 -16 -10 -6 0 -7 5 -4 10 3 6 11 10 16 10 6 0 7 -4 4 -10z m155 0
c0 -5 -4 -10 -10 -10 -5 0 -10 5 -10 10 0 6 5 10 10 10 6 0 10 -4 10 -10z
m5445 -10 c-3 -5 -13 -10 -21 -10 -8 0 -12 5 -9 10 3 6 13 10 21 10 8 0 12 -4
9 -10z m-7823 -22 c-7 -7 -12 -8 -12 -2 0 6 3 14 7 17 3 4 9 5 12 2 2 -3 -1
-11 -7 -17z m5271 -33 c21 -43 21 -45 2 -45 -8 0 -15 -4 -15 -10 0 -16 -27
-12 -34 5 -3 9 0 15 9 15 19 0 19 20 -1 48 -14 20 -14 22 4 22 11 0 25 -13 35
-35z m-2893 5 c0 -5 -4 -10 -10 -10 -5 0 -10 5 -10 10 0 6 5 10 10 10 6 0 10
-4 10 -10z m2998 -7 c-10 -2 -18 -9 -18 -14 0 -5 -10 -9 -21 -9 -18 0 -19 2
-9 15 7 8 24 14 39 14 17 -1 20 -3 9 -6z m-3323 -100 c-5 -15 25 -33 54 -33
12 0 21 -4 21 -10 0 -5 10 -10 21 -10 16 0 20 5 16 19 -4 16 2 21 24 26 16 4
33 4 39 0 5 -3 10 -35 10 -71 l0 -64 -46 0 c-33 0 -51 -5 -59 -17 -11 -14 -15
-15 -28 -4 -9 7 -21 10 -27 6 -5 -3 -10 -1 -10 4 0 17 -60 13 -77 -5 -11 -11
-26 -14 -47 -10 -17 4 -42 8 -56 10 -14 1 -41 13 -60 24 -40 25 -33 29 10 7
23 -12 35 -13 57 -4 15 6 48 13 72 15 57 6 61 9 55 44 -6 26 -3 29 22 32 l29
3 -32 17 c-35 19 -82 26 -101 14 -16 -10 -15 6 1 28 12 17 14 17 20 2 4 -11
18 -16 42 -16 28 0 35 4 35 19 0 11 -4 22 -9 25 -8 5 -8 22 -1 46 1 3 8 -15
16 -40 7 -25 12 -51 9 -57z m871 75 c4 -6 6 -38 5 -71 -2 -45 1 -57 10 -52 8
5 10 4 5 -3 -9 -15 -82 -16 -91 -2 -4 6 8 10 30 10 l36 0 -3 58 c-3 57 -3 57
-38 63 l-35 6 37 2 c20 0 40 -4 44 -11z m61 0 c-21 -7 -32 -7 -40 1 -8 8 0 11
29 10 39 -1 39 -1 11 -11z m-1160 -20 c-3 -8 -6 -5 -6 6 -1 11 2 17 5 13 3 -3
4 -12 1 -19z m5513 18 c0 -2 -7 -9 -15 -16 -12 -10 -15 -10 -15 4 0 9 7 16 15
16 8 0 15 -2 15 -4z m-7132 -28 c-3 -7 -13 -13 -24 -13 -10 0 -22 -5 -26 -11
-4 -7 -20 -15 -35 -19 -35 -8 -63 -33 -57 -49 2 -6 -10 -20 -28 -30 -39 -22
-112 -95 -105 -103 3 -3 23 5 44 17 33 19 30 14 -22 -33 -33 -31 -61 -54 -63
-52 -6 6 50 135 59 135 15 0 95 66 93 76 -5 14 105 87 121 80 8 -3 17 -1 20 4
9 15 27 12 23 -2z m-228 -12 c0 -2 -8 -10 -17 -17 -16 -13 -17 -12 -4 4 13 16
21 21 21 13z m90 -5 c0 -5 -13 -19 -30 -31 -35 -25 -39 -16 -8 17 22 24 38 30
38 14z m1745 -38 c-7 -53 -23 -81 -20 -36 3 35 16 83 22 83 3 0 2 -21 -2 -47z
m3420 17 c38 0 29 -17 -12 -23 -45 -8 -59 3 -43 34 11 20 13 20 22 6 5 -10 20
-17 33 -17z m-2857 -30 c0 -22 -4 -40 -9 -40 -11 0 -11 7 -3 49 9 42 13 39 12
-9z m-2198 20 c0 -5 -5 -10 -11 -10 -5 0 -7 5 -4 10 3 6 8 10 11 10 2 0 4 -4
4 -10z m7678 -21 c4 -11 2 -11 -9 -2 -9 9 -16 10 -25 2 -8 -6 -19 -9 -26 -6
-8 3 -3 9 12 15 30 13 42 11 48 -9z m-7742 -4 c-23 -17 -36 -19 -36 -6 0 5 8
12 18 14 32 9 37 6 18 -8z m922 3 c17 -17 15 -27 -5 -23 -62 13 -73 17 -68 25
9 14 59 12 73 -2z m-833 -8 c-10 -16 -65 -42 -65 -31 0 6 12 17 28 25 32 18
46 20 37 6z m963 -50 c-2 -13 -7 -17 -16 -11 -9 5 -11 17 -6 36 6 23 8 25 16
11 5 -9 8 -25 6 -36z m-1043 30 c-3 -5 -14 -10 -23 -10 -15 0 -15 2 -2 10 20
13 33 13 25 0z m1805 -10 c0 -5 -5 -10 -11 -10 -5 0 -7 5 -4 10 3 6 8 10 11
10 2 0 4 -4 4 -10z m3150 -11 c0 -6 -4 -7 -10 -4 -5 3 -10 11 -10 16 0 6 5 7
10 4 6 -3 10 -11 10 -16z m-4914 -14 c-11 -8 -25 -15 -30 -15 -6 0 -2 7 8 15
11 8 25 15 30 15 6 0 2 -7 -8 -15z m2738 -4 c11 -9 16 -10 16 -2 0 6 4 11 10
11 5 0 8 -13 7 -30 -2 -35 -20 -39 -34 -7 l-11 22 -10 -25 c-10 -26 -11 -25
-26 24 -9 27 19 31 48 7z m-2809 -16 c-16 -13 -34 -24 -40 -25 -5 0 4 11 20
25 17 13 35 24 40 25 6 0 -3 -11 -20 -25z m103 3 c-5 -13 -78 -41 -78 -29 0 7
57 39 73 40 5 1 7 -4 5 -11z m4893 -13 c-2 -17 -36 -11 -39 7 -3 14 1 16 18
10 12 -4 21 -12 21 -17z m2976 -7 c-3 -7 -5 -2 -5 12 0 14 2 19 5 13 2 -7 2
-19 0 -25z m-9390 -20 c-3 -8 -6 -5 -6 6 -1 11 2 17 5 13 3 -3 4 -12 1 -19z
m3110 -39 c-3 -13 4 -21 24 -28 16 -5 29 -17 29 -25 0 -8 8 -20 18 -25 14 -9
15 -10 1 -11 -8 0 -26 11 -39 25 -24 25 -50 33 -50 15 0 -5 11 -17 25 -26 28
-18 32 -39 10 -48 -10 -4 -19 2 -24 17 -5 12 -11 21 -15 20 -3 -1 -13 0 -21 3
-8 4 -23 0 -33 -7 -13 -11 -13 -9 2 9 13 15 23 19 30 12 5 -5 13 -10 16 -10 7
0 4 47 -5 105 l-6 40 21 -24 c12 -14 19 -33 17 -42z m3183 50 c0 -5 7 -6 15
-3 8 4 15 1 15 -5 0 -6 -5 -11 -11 -11 -6 0 -9 -6 -6 -12 2 -7 10 -12 16 -10
6 1 11 -2 11 -8 0 -23 -33 -5 -43 24 -5 13 -11 15 -20 8 -9 -8 -16 -6 -24 7
-10 15 -7 18 18 18 16 0 29 -4 29 -8z m-4838 -27 c-53 -38 -146 -92 -151 -87
-10 10 36 46 95 75 66 32 91 37 56 12z m921 11 c-13 -2 -35 -2 -50 0 -16 2 -5
4 22 4 28 0 40 -2 28 -4z m6791 -22 c-2 -3 -12 3 -22 13 -16 17 -16 18 5 5 12
-7 20 -15 17 -18z m-5201 12 c-13 -2 -23 -8 -23 -13 0 -5 8 -7 18 -3 14 5 13
3 -3 -10 -28 -23 -35 -21 -35 8 0 22 4 25 33 24 23 -1 26 -3 10 -6z m-2435
-15 c-6 -18 -67 -58 -87 -58 -11 0 -4 12 21 35 37 34 74 47 66 23z m1727 -13
c29 -28 35 -78 8 -68 -13 5 -15 2 -10 -11 4 -10 7 -23 7 -31 0 -13 35 -28 59
-25 23 3 61 -10 61 -20 0 -6 -15 -11 -32 -11 l-33 -2 30 -4 c16 -3 32 -8 35
-13 3 -4 47 -9 97 -11 91 -4 92 -4 88 19 -2 12 0 22 6 22 5 0 8 -18 7 -40 -1
-28 -5 -37 -12 -30 -5 5 -41 10 -79 10 -57 0 -68 -3 -63 -15 3 -8 1 -15 -4
-15 -6 0 -10 7 -10 15 0 13 -11 15 -57 13 -57 -3 -61 -6 -48 -40 4 -10 3 -18
-3 -18 -6 0 -13 14 -17 31 -7 30 -33 36 -27 5 3 -17 -6 -20 -25 -8 -15 9 -19
56 -9 93 4 15 3 29 -2 33 -6 3 -8 15 -5 26 3 11 0 20 -6 20 -6 0 -11 7 -11 16
0 10 -6 14 -15 10 -8 -3 -14 -2 -14 2 3 20 -2 33 -11 27 -16 -10 -12 11 5 25
21 18 45 -4 45 -41 0 -38 17 -37 22 1 3 18 -1 35 -11 45 -11 11 -12 15 -3 15
7 0 24 -11 37 -25z m1094 21 c-8 -8 -108 -10 -116 -3 -3 4 22 7 57 7 35 0 61
-2 59 -4z m-1961 -13 c-10 -2 -28 -2 -40 0 -13 2 -5 4 17 4 22 1 32 -1 23 -4z
m1062 -7 c0 -3 -4 -8 -10 -11 -5 -3 -10 -1 -10 4 0 6 5 11 10 11 6 0 10 -2 10
-4z m-382 -24 c6 -18 -15 -14 -22 4 -4 10 -1 14 6 12 6 -2 14 -10 16 -16z
m5742 4 c0 -3 -4 -8 -10 -11 -5 -3 -10 -1 -10 4 0 6 5 11 10 11 6 0 10 -2 10
-4z m-5311 -12 c29 -6 31 -9 31 -50 0 -23 -4 -46 -10 -49 -5 -3 -10 -17 -10
-30 0 -20 -5 -23 -35 -23 l-35 0 0 79 c0 85 -1 85 59 73z m5836 -4 c3 -5 1
-10 -4 -10 -6 0 -11 5 -11 10 0 6 2 10 4 10 3 0 8 -4 11 -10z m-9270 -86 l5
-29 -14 31 c-8 17 -17 44 -21 60 l-5 29 14 -31 c8 -17 17 -44 21 -60z m1289
27 c-58 -55 -122 -97 -132 -87 -7 8 101 107 138 127 59 31 58 21 -6 -40z m163
34 c-4 -8 -14 -15 -23 -15 -16 0 -16 2 1 20 20 22 31 20 22 -5z m2473 -10 c0
-12 -29 -25 -56 -25 -19 0 -24 39 -5 42 27 6 61 -4 61 -17z m253 -52 c19 2 22
-3 22 -38 0 -39 -1 -40 -32 -39 -70 3 -66 -1 -60 58 3 31 13 63 24 75 l18 22
3 -40 c3 -35 6 -40 25 -38z m-1244 31 c14 -12 -19 -1 -35 12 -18 14 -18 14 6
3 14 -6 27 -13 29 -15z m-1570 3 c-2 -2 -19 -15 -37 -30 -34 -28 -52 -34 -52
-18 0 10 83 61 89 55 2 -2 2 -5 0 -7z m2148 -9 c-3 -8 -6 -5 -6 6 -1 11 2 17
5 13 3 -3 4 -12 1 -19z m5131 -13 c-3 -3 -9 2 -12 12 -6 14 -5 15 5 6 7 -7 10
-15 7 -18z m-8675 -7 c9 -31 2 -33 -11 -3 -6 14 -8 25 -3 25 5 0 11 -10 14
-22z m1395 -11 c-15 -12 -42 -31 -60 -41 -29 -15 -28 -13 12 23 25 22 52 40
60 40 10 0 5 -8 -12 -22z m2560 14 c4 -1 0 -6 -8 -12 -11 -7 -12 -12 -3 -15
17 -7 -22 -44 -46 -44 -16 0 -19 6 -16 30 3 23 0 30 -13 31 -16 0 -16 1 0 7
15 6 61 8 86 3z m152 -38 c-1 -38 -3 -44 -11 -30 -9 16 -4 77 7 77 2 0 4 -21
4 -47z m-2910 22 c-7 -8 -17 -15 -22 -15 -6 0 -5 7 2 15 7 8 17 15 22 15 6 0
5 -7 -2 -15z m238 -12 c-15 -15 -30 -24 -34 -20 -7 7 35 46 51 47 5 0 -3 -12
-17 -27z m2109 5 c-3 -8 -6 -5 -6 6 -1 11 2 17 5 13 3 -3 4 -12 1 -19z m5098
2 c3 -6 -1 -7 -9 -4 -18 7 -21 14 -7 14 6 0 13 -4 16 -10z m-3108 -92 c-2 -18
-4 -4 -4 32 0 36 2 50 4 33 2 -18 2 -48 0 -65z m-4067 72 c0 -5 7 -10 16 -10
11 0 14 -6 9 -22 -10 -33 -28 -48 -23 -21 4 30 -11 33 -29 6 -10 -15 -11 -23
-4 -23 6 0 11 -7 11 -15 0 -16 -1 -16 -36 -20 -30 -3 -44 -14 -38 -29 3 -8 -4
-21 -16 -29 -12 -9 -20 -19 -17 -24 6 -9 -18 -34 -60 -63 -12 -8 -41 -31 -64
-50 -38 -31 -41 -32 -25 -8 10 15 40 47 67 71 27 25 52 55 54 68 3 12 18 37
35 54 16 17 30 36 30 42 0 13 70 83 83 83 4 0 7 -4 7 -10z m1648 -2 c17 -17
15 -48 -3 -48 -17 0 -39 36 -30 50 8 13 18 13 33 -2z m-2258 -8 c0 -5 -7 -10
-15 -10 -21 0 -19 -18 3 -23 9 -3 2 -5 -15 -6 -29 -1 -33 2 -33 24 0 21 5 25
30 25 17 0 30 -4 30 -10z m117 -5 c0 -8 -7 -15 -14 -15 -8 0 -11 5 -8 10 3 6
-3 10 -13 10 -11 0 -22 -7 -26 -15 -3 -8 -1 -15 4 -15 6 0 10 5 10 11 0 8 4 8
13 1 6 -5 21 -12 32 -15 11 -2 -1 -5 -27 -6 -45 -1 -48 0 -46 24 2 22 7 25 39
25 25 0 36 -4 36 -15z m1380 9 c-3 -3 -12 -4 -19 -1 -8 3 -5 6 6 6 11 1 17 -2
13 -5z m97 -20 c8 -21 -1 -34 -24 -34 -22 0 -35 16 -20 25 6 4 8 11 5 16 -4 5
3 9 13 9 11 0 23 -7 26 -16z m706 -9 c0 -8 -4 -17 -10 -20 -6 -4 -10 5 -10 20
0 15 4 24 10 20 6 -3 10 -12 10 -20z m-3180 -16 c0 -6 -4 -7 -10 -4 -5 3 -10
11 -10 16 0 6 5 7 10 4 6 -3 10 -11 10 -16z m1172 -11 c-7 -7 -12 -8 -12 -2 0
6 3 14 7 17 3 4 9 5 12 2 2 -3 -1 -11 -7 -17z m-264 0 c-2 -9 15 -15 48 -18
43 -4 49 -7 38 -18 -8 -7 -14 -9 -14 -4 0 5 -11 10 -25 10 -13 0 -22 -4 -19
-9 3 -5 -2 -9 -11 -9 -9 0 -14 4 -10 9 3 6 -2 14 -11 19 -9 5 -14 14 -10 21 9
15 17 14 14 -1z m3040 -4 c20 -6 22 -12 22 -79 0 -55 4 -74 15 -79 20 -7 8
-36 -15 -36 -12 0 -21 -10 -25 -30 -4 -17 -13 -30 -21 -30 -9 0 -12 5 -9 10 3
6 0 10 -8 10 -18 0 -27 50 -27 158 0 89 3 93 68 76z m-498 -14 c0 -5 -5 -10
-11 -10 -5 0 -7 5 -4 10 3 6 8 10 11 10 2 0 4 -4 4 -10z m833 3 l-33 -4 0
-120 c0 -73 -4 -119 -10 -119 -6 0 -10 33 -10 79 l0 80 -37 4 -38 4 43 1 42 2
0 40 c0 40 0 40 38 38 36 -1 36 -1 5 -5z m-3518 -13 c3 -6 -1 -7 -9 -4 -18 7
-21 14 -7 14 6 0 13 -4 16 -10z m2613 -29 c-15 -5 -21 7 -13 26 7 17 8 17 15
-2 4 -11 3 -22 -2 -24z m-2060 -16 c-13 -20 -49 -66 -80 -101 -32 -35 -58 -68
-58 -74 0 -5 -4 -10 -10 -10 -14 0 -12 93 3 112 14 20 159 120 164 114 2 -2
-7 -20 -19 -41z m2019 23 c-3 -8 -6 -5 -6 6 -1 11 2 17 5 13 3 -3 4 -12 1 -19z
m83 2 c0 -5 -4 -10 -10 -10 -5 0 -10 5 -10 10 0 6 5 10 10 10 6 0 10 -4 10
-10z m-960 -25 c0 -7 -6 -16 -12 -18 -8 -3 -5 -6 6 -6 15 -1 16 -4 6 -16 -7
-8 -8 -15 -3 -15 5 0 10 -27 11 -61 2 -33 3 -64 4 -67 1 -4 -3 -16 -7 -26 -5
-11 -3 -31 5 -50 15 -37 15 -45 6 -121 -8 -66 -13 -78 -27 -70 -5 4 -9 -1 -9
-9 0 -9 6 -13 14 -10 15 6 29 -10 32 -36 1 -8 5 -38 9 -67 4 -28 5 -56 2 -60
-4 -7 -380 19 -397 27 -3 2 13 6 35 9 24 4 39 11 37 19 -1 6 8 12 20 12 18 0
20 2 8 10 -12 8 -12 10 2 15 10 4 15 15 13 26 -2 11 0 17 6 14 5 -4 9 1 9 9 0
9 -4 16 -9 16 -13 0 -10 93 3 102 6 4 21 8 34 8 13 0 22 6 22 15 0 11 -7 14
-22 10 -13 -3 -32 1 -43 9 -19 14 -18 15 15 23 l35 10 -57 7 c-47 6 -55 10
-45 21 8 9 16 10 25 3 15 -13 16 -3 1 24 -6 12 -14 16 -18 11 -13 -21 -48 -24
-56 -6 -23 57 1 94 31 48 9 -14 23 -25 30 -25 8 0 14 -4 14 -9 0 -5 7 -12 16
-15 8 -3 13 -2 11 2 -20 35 -38 84 -33 89 3 3 6 1 6 -5 0 -7 5 -12 11 -12 5 0
8 4 4 9 -3 5 -1 12 5 16 6 4 8 12 4 18 -3 7 4 1 15 -13 19 -23 21 -23 21 -5 0
32 33 114 47 120 8 2 11 0 8 -5 -3 -6 1 -10 10 -10 9 0 14 4 11 9 -14 23 6 40
42 37 21 -2 46 0 57 4 24 9 35 4 35 -15z m725 15 c3 -5 1 -10 -4 -10 -6 0 -11
5 -11 10 0 6 2 10 4 10 3 0 8 -4 11 -10z m-3214 -32 l23 -33 -27 24 c-15 14
-27 28 -27 33 0 15 8 8 31 -24z m1034 12 c-10 -11 -20 -18 -23 -15 -7 6 18 35
31 35 5 0 2 -9 -8 -20z m2116 4 c12 -14 11 -16 -5 -13 -11 2 -21 10 -24 17 -5
17 13 15 29 -4z m-1631 -8 c0 -3 -4 -8 -10 -11 -5 -3 -10 -1 -10 4 0 6 5 11
10 11 6 0 10 -2 10 -4z m7032 -53 c7 -9 7 -13 0 -13 -7 0 -11 -66 -12 -192 0
-106 -3 -194 -5 -197 -3 -2 -4 101 -4 230 1 129 4 223 6 209 3 -14 10 -31 15
-37z m-4515 -5 c-2 -13 -4 -5 -4 17 -1 22 1 32 4 23 2 -10 2 -28 0 -40z m390
45 c-7 -7 -129 -4 -136 3 -2 2 29 4 69 4 40 0 70 -3 67 -7z m167 -82 c-2 -102
-11 -161 -24 -161 -6 0 -10 7 -10 16 0 8 -4 13 -9 9 -6 -3 -9 3 -8 14 0 11 5
17 9 15 4 -3 8 -1 8 5 0 5 -4 13 -10 16 -15 9 -12 25 4 25 11 0 15 17 18 65 3
62 2 65 -19 65 -13 0 -23 5 -23 10 0 6 15 10 33 10 l32 0 -1 -89z m4066 39 c0
-5 -7 -10 -15 -10 -8 0 -15 5 -15 10 0 6 7 10 15 10 8 0 15 -4 15 -10z m37
-12 c-15 -5 -25 -14 -21 -19 3 -5 -2 -9 -10 -9 -9 0 -16 4 -16 8 0 16 25 32
50 31 l25 -1 -28 -10z m-5272 -8 c3 -5 -3 -10 -15 -10 -31 0 -43 -43 -36 -125
l7 -70 -21 25 c-16 20 -19 34 -14 69 3 24 9 53 14 65 5 11 11 29 14 39 6 18
41 23 51 7z m5199 1 c7 -11 -14 -20 -32 -13 -11 4 -11 6 0 13 17 11 26 11 32
0z m-7214 -5 c0 -2 -8 -10 -17 -17 -16 -13 -17 -12 -4 4 13 16 21 21 21 13z
m6387 -58 c-2 -13 -4 -3 -4 22 0 25 2 35 4 23 2 -13 2 -33 0 -45z m-3058 -97
c1 -94 -2 -152 -9 -156 -7 -4 -10 38 -10 127 0 114 5 178 15 178 1 0 3 -67 4
-149z m-684 130 c3 -5 1 -12 -5 -16 -5 -3 -10 -12 -10 -18 0 -8 3 -8 9 1 6 10
10 10 21 -3 10 -12 10 -15 -4 -16 -9 -1 -21 -2 -27 -3 -6 0 -16 -9 -23 -18 -7
-10 -16 -18 -20 -18 -13 0 1 57 20 77 22 24 30 27 39 14z m92 -13 c-3 -8 -6
-5 -6 6 -1 11 2 17 5 13 3 -3 4 -12 1 -19z m4465 -16 c4 -26 2 -28 -25 -24
-20 3 -28 1 -23 -6 3 -6 2 -14 -4 -17 -18 -11 -6 42 14 64 23 25 32 20 38 -17z
m105 32 c-3 -3 -12 -4 -19 -1 -8 3 -5 6 6 6 11 1 17 -2 13 -5z m-7257 -16 c0
-14 -60 -78 -72 -78 -10 0 54 89 65 90 4 0 7 -5 7 -12z m2682 -29 c5 -3 3 -9
-6 -12 -13 -5 -16 0 -15 26 1 21 3 25 6 12 3 -11 10 -23 15 -26z m-2792 18 c0
-11 -90 -77 -105 -77 -6 0 96 89 103 90 1 0 2 -6 2 -13z m2857 -9 c-3 -8 -6
-5 -6 6 -1 11 2 17 5 13 3 -3 4 -12 1 -19z m-2657 3 c0 -6 -4 -12 -10 -16 -5
-3 -7 -12 -3 -21 6 -17 -23 -54 -44 -54 -7 0 -13 -6 -13 -13 0 -8 -17 -27 -37
-43 -58 -46 -64 -48 -60 -23 2 13 10 25 17 27 8 3 25 18 38 33 13 16 30 29 38
29 14 0 40 39 36 54 -3 10 17 36 29 36 5 0 9 -4 9 -9z m7173 2 c-7 -2 -19 -2
-25 0 -7 3 -2 5 12 5 14 0 19 -2 13 -5z m-9072 -40 c-12 -20 -14 -14 -5 12 4
9 9 14 11 11 3 -2 0 -13 -6 -23z m9079 17 c0 -5 -13 -10 -30 -10 -32 0 -37 -9
-18 -28 7 -7 8 -12 4 -12 -9 0 -35 31 -36 42 0 4 17 9 38 11 20 2 38 4 40 5 1
1 2 -2 2 -8z m-8990 -47 c-11 -17 -11 -17 -6 0 3 10 7 26 7 35 1 15 2 15 6 0
2 -10 -1 -25 -7 -35z m5780 -141 c7 -3 7 -8 -1 -18 -9 -11 -8 -14 2 -14 10 0
13 -12 12 -42 -8 -135 -8 -188 -1 -188 4 0 8 16 8 36 0 21 4 33 10 29 6 -3 8
-22 6 -42 -5 -36 8 -35 17 2 3 11 5 4 6 -17 0 -21 -3 -38 -8 -38 -13 0 -23
-50 -13 -63 19 -25 21 -57 4 -58 -11 0 -12 -2 -4 -6 6 -2 12 -20 12 -39 0 -20
-4 -33 -8 -30 -5 3 -9 -1 -9 -9 0 -8 5 -11 10 -8 5 3 7 0 5 -8 -3 -8 -11 -13
-18 -11 -8 2 -11 -6 -8 -23 3 -14 2 -26 -1 -26 -3 -1 -16 -3 -28 -4 l-23 -2 1
386 c1 286 4 361 10 291 5 -52 13 -96 19 -98z m-4053 151 c-9 -9 -19 -14 -23
-11 -10 10 6 28 24 28 15 0 15 -1 -1 -17z m2603 7 c0 -5 -9 -10 -20 -10 -11 0
-20 5 -20 10 0 6 9 10 20 10 11 0 20 -4 20 -10z m-4263 -22 c-3 -8 -6 -5 -6 6
-1 11 2 17 5 13 3 -3 4 -12 1 -19z m4362 18 c-2 -2 -21 -6 -41 -9 -20 -2 -44
-12 -53 -21 -9 -9 -22 -16 -28 -16 -7 1 2 12 18 25 20 17 42 25 69 25 22 0 37
-2 35 -4z m-2864 -41 c-1 -23 -12 -45 -34 -67 -18 -18 -39 -48 -48 -65 -8 -18
-20 -30 -25 -27 -16 10 0 85 24 108 13 12 35 36 51 54 15 18 29 32 31 32 2 0
3 -16 1 -35z m1215 13 c0 -19 -2 -20 -10 -8 -13 19 -13 30 0 30 6 0 10 -10 10
-22z m5277 -20 c-3 -7 -5 -2 -5 12 0 14 2 19 5 13 2 -7 2 -19 0 -25z m-6562
-8 c-31 -32 -45 -38 -45 -17 0 9 42 37 69 46 3 0 -8 -12 -24 -29z m-1499 -7
c-10 -10 -19 5 -10 18 6 11 8 11 12 0 2 -7 1 -15 -2 -18z m1640 1 c-9 -8 -16
-20 -16 -25 0 -5 -7 -9 -15 -9 -14 0 -13 3 2 25 10 13 24 25 31 25 10 0 9 -4
-2 -16z m2836 -66 c2 -27 0 -48 -4 -48 -5 0 -7 30 -7 68 2 69 6 62 11 -20z
m76 26 c2 -26 8 -54 13 -60 6 -8 4 -14 -7 -18 -36 -14 -39 -8 -36 65 4 82 25
92 30 13z m302 6 c0 -5 -8 -14 -17 -19 -16 -9 -14 -10 9 -11 31 0 47 -18 27
-31 -10 -6 -11 -9 -1 -9 6 0 12 -7 12 -15 0 -8 -6 -15 -14 -15 -17 0 -38 24
-29 33 3 4 -1 7 -9 7 -11 0 -14 8 -12 26 1 15 -4 37 -13 50 l-15 23 31 -15
c17 -9 31 -19 31 -24z m-570 -90 c6 0 9 3 9 8 -1 4 -1 23 0 42 l2 35 19 -24
c11 -13 20 -19 20 -15 0 13 20 -19 20 -33 0 -6 -10 -14 -22 -16 -16 -3 -13 -5
10 -6 31 -1 68 20 56 32 -3 2 20 -3 51 -12 46 -13 53 -18 39 -28 -27 -20 59
-29 161 -17 38 5 47 3 39 -6 -14 -14 -181 -14 -274 0 -36 5 -104 10 -152 10
l-88 0 0 45 c0 43 1 45 30 45 21 0 35 8 47 27 l18 27 3 -57 c2 -31 7 -57 12
-57z m-2485 80 c-3 -5 -12 -10 -18 -10 -7 0 -6 4 3 10 19 12 23 12 15 0z
m-1808 -22 c-3 -8 -6 -5 -6 6 -1 11 2 17 5 13 3 -3 4 -12 1 -19z m1616 -23
c-17 -35 -43 -48 -43 -20 0 8 6 15 13 15 7 0 18 9 25 20 20 32 23 23 5 -15z
m152 14 c-8 -12 -35 -12 -35 0 0 11 22 20 33 14 4 -2 5 -9 2 -14z m2675 0 c0
-18 -2 -19 -15 -9 -15 12 -12 30 6 30 5 0 9 -10 9 -21z m-2630 1 c0 -5 -7 -10
-16 -10 -8 0 -12 5 -9 10 3 6 10 10 16 10 5 0 9 -4 9 -10z m1762 -7 c31 -36
29 -40 -17 -41 -24 -1 -47 3 -50 8 -6 10 -5 11 33 15 37 4 38 15 1 15 -26 0
-30 3 -19 10 22 14 35 12 52 -7z m1128 -23 c0 -37 -2 -40 -28 -40 -26 0 -27 2
-24 40 4 34 7 40 28 40 21 0 24 -4 24 -40z m1159 -75 c-1 -63 -6 -115 -11
-115 -5 0 -6 48 -4 108 5 128 5 122 12 122 3 0 4 -52 3 -115z m-2386 88 c-7
-2 -21 -2 -30 0 -10 3 -4 5 12 5 17 0 24 -2 18 -5z m162 -13 c-3 -5 -10 -10
-16 -10 -5 0 -9 5 -9 10 0 6 7 10 16 10 8 0 12 -4 9 -10z m-1885 -7 c0 -14
-108 -103 -124 -103 -15 0 38 62 73 85 38 25 51 30 51 18z m3507 1 c-3 -3 -12
-4 -19 -1 -8 3 -5 6 6 6 11 1 17 -2 13 -5z m-3711 -38 c-5 -22 -62 -74 -71
-64 -2 2 12 25 31 52 37 50 51 54 40 12z m109 15 c-8 -14 -65 -44 -72 -38 -2
3 12 17 33 31 37 25 52 28 39 7z m1823 12 c-10 -2 -18 -11 -18 -19 0 -8 -4
-14 -10 -14 -5 0 -10 9 -10 20 0 15 6 20 28 19 16 -1 20 -3 10 -6z m1145 -10
c-7 -2 -21 -2 -30 0 -10 3 -4 5 12 5 17 0 24 -2 18 -5z m-2822 -34 c-21 -20
-51 -26 -51 -10 0 12 52 39 63 33 5 -2 -1 -13 -12 -23z m2188 -1 c-1 -31 -1
-31 -8 -8 -5 14 -6 28 -4 33 9 15 13 6 12 -25z m601 22 c23 -7 22 -8 -10 -9
-19 0 -42 4 -50 9 -12 8 -10 10 10 9 14 -1 36 -5 50 -9z m-1130 -30 c0 -5 -16
-10 -36 -10 -21 0 -33 4 -29 10 3 6 19 10 36 10 16 0 29 -4 29 -10z m1478 3
c-10 -2 -26 -2 -35 0 -10 3 -2 5 17 5 19 0 27 -2 18 -5z m149 0 c-53 -2 -85
-8 -82 -13 4 -6 0 -10 -8 -10 -7 0 -14 7 -14 15 0 12 17 15 96 13 l96 -2 -88
-3z m-3474 -30 c-22 -35 -68 -82 -110 -110 l-33 -22 1 42 c0 23 3 36 6 29 3
-8 11 -4 25 13 14 18 26 24 39 20 13 -4 19 -2 19 8 0 16 37 46 58 46 9 1 8 -7
-5 -26z m207 9 c0 -10 -32 -51 -70 -91 -39 -40 -77 -83 -85 -95 -8 -13 -27
-29 -43 -37 -36 -18 -102 -68 -129 -99 l-22 -25 -1 35 c-1 19 -3 54 -6 77 -3
31 0 46 12 55 9 7 42 36 73 64 61 55 138 104 164 104 25 0 21 -25 -5 -38 -18
-8 -19 -11 -5 -11 9 -1 17 -8 17 -17 0 -21 51 31 67 69 14 31 33 36 33 9z
m2503 12 c35 -6 54 -34 23 -34 -8 0 -21 -3 -30 -6 -12 -4 -16 0 -16 15 0 12
-4 21 -10 21 -6 0 -10 -32 -9 -77 1 -70 2 -74 11 -42 9 36 10 36 46 28 20 -5
51 -9 69 -9 28 0 33 -4 37 -32 3 -18 5 -46 4 -63 -2 -55 1 -65 19 -58 11 4 14
3 9 -5 -5 -8 1 -12 15 -12 12 0 20 2 17 6 -3 3 -2 20 2 39 4 19 3 38 -2 43 -5
5 -6 21 -3 35 l7 26 86 -5 c48 -3 92 -7 99 -9 8 -3 11 -23 10 -60 -2 -49 -6
-59 -27 -70 l-24 -13 24 -4 c21 -2 26 -9 28 -42 l3 -38 -53 6 c-29 3 -145 13
-258 21 -113 9 -210 17 -216 19 -7 3 -9 41 -7 112 2 59 5 109 6 110 1 2 21 5
42 7 22 2 40 9 39 16 -1 6 -2 16 -2 21 -1 6 -18 8 -42 4 -40 -6 -40 -6 -40 25
0 31 0 31 53 31 28 0 69 -3 90 -6z m3713 -56 c-2 -21 0 -41 5 -44 5 -3 9 16 9
41 0 25 3 44 8 41 6 -3 7 -66 3 -195 -1 -13 -4 -21 -8 -18 -3 4 -5 32 -4 62 1
30 -3 55 -8 55 -6 0 -9 -34 -7 -80 2 -81 1 -84 -39 -81 -14 1 -11 -3 10 -12
26 -12 29 -18 27 -50 -2 -22 1 -37 7 -37 13 0 15 -156 2 -164 -4 -3 -6 -35 -5
-71 2 -39 0 -65 -6 -65 -6 0 -10 -9 -10 -20 0 -11 -4 -20 -10 -20 -5 0 -10 7
-10 15 0 8 -4 15 -10 15 -18 0 -11 20 8 21 11 0 7 4 -10 11 -27 9 -39 28 -18
28 6 0 10 -4 10 -10 0 -5 5 -10 12 -10 6 0 4 8 -6 19 -13 14 -17 34 -16 73 1
29 3 132 4 228 2 194 9 249 34 268 9 7 16 15 15 17 -2 3 -3 15 -3 28 0 17 2
19 10 7 5 -8 8 -32 6 -52z m-4251 -14 c2 -27 5 -56 6 -64 4 -31 -1 -60 -11
-60 -5 0 -10 9 -10 20 0 11 -7 20 -15 20 -8 0 -15 5 -15 10 0 6 6 10 14 10 12
0 14 14 13 65 -2 73 11 73 18 -1z m-1425 30 c0 -8 -5 -12 -10 -9 -6 4 -8 11
-5 16 9 14 15 11 15 -7z m2621 -2 c-41 -2 -78 1 -82 5 -4 4 29 6 74 3 l82 -5
-74 -3z m-4834 -29 c-3 -10 -5 -4 -5 12 0 17 2 24 5 18 2 -7 2 -21 0 -30z
m8660 0 c-3 -10 -5 -4 -5 12 0 17 2 24 5 18 2 -7 2 -21 0 -30z m-4967 -9 c0
-2 -7 -4 -15 -4 -8 0 -15 4 -15 10 0 5 7 7 15 4 8 -4 15 -8 15 -10z m150 -44
c0 -27 -4 -50 -9 -50 -5 0 -9 22 -8 50 3 65 17 65 17 0z m930 21 c0 -5 -7 -12
-16 -15 -14 -5 -15 -4 -4 9 14 17 20 19 20 6z m-3120 -5 c0 -10 -32 -36 -43
-36 -7 0 -1 9 13 20 26 21 30 23 30 16z m560 -22 c0 -8 -4 -14 -10 -14 -5 0
-10 9 -10 21 0 11 5 17 10 14 6 -3 10 -13 10 -21z m-2476 1 c3 -8 1 -15 -4
-15 -6 0 -10 7 -10 15 0 8 2 15 4 15 2 0 6 -7 10 -15z m5053 -1 c-3 -3 -12 -4
-19 -1 -8 3 -5 6 6 6 11 1 17 -2 13 -5z m-1230 -25 c-14 -8 -22 -8 -30 0 -8 8
-3 11 19 11 25 -1 27 -2 11 -11z m-1937 -16 c-1 -23 -126 -130 -138 -118 -7 6
45 65 85 97 36 28 53 35 53 21z m57 -49 c0 -9 -11 -20 -24 -25 -12 -5 -23 -14
-23 -20 0 -7 -3 -9 -6 -6 -4 3 -15 2 -25 -4 -37 -20 -17 7 29 38 26 18 47 33
48 33 0 0 1 -7 1 -16z m2169 -49 c1 -22 -3 -35 -11 -35 -12 0 -18 46 -8 63 10
17 18 5 19 -28z m-2357 23 c-2 -2 -17 -14 -34 -28 l-30 -25 24 28 c14 15 29
27 34 27 6 0 8 -1 6 -2z m690 -44 c6 -15 15 -24 18 -20 3 3 12 1 20 -5 16 -14
16 -9 3 25 -9 25 -9 25 33 21 23 -3 105 -10 182 -15 201 -15 212 -17 218 -49
8 -41 -8 -218 -22 -234 -8 -11 -9 -22 -1 -41 10 -27 4 -76 -9 -76 -13 0 -377
50 -391 54 -8 2 -27 7 -42 10 -16 4 -28 12 -28 20 0 7 -7 19 -15 26 -8 7 -12
16 -10 21 3 4 -1 25 -10 45 -20 47 -19 51 5 29 19 -18 20 -17 21 6 l0 24 16
-22 c16 -24 33 -30 33 -12 0 5 -8 29 -19 52 -18 41 -34 167 -21 167 4 0 12
-12 19 -26z m-569 -2 c0 -12 -50 -56 -92 -80 l-37 -21 11 25 c7 15 17 23 25
20 8 -3 11 -1 8 4 -3 6 -1 10 5 10 6 0 23 11 38 25 27 26 42 31 42 17z m6297
-54 c-3 -8 -6 -5 -6 6 -1 11 2 17 5 13 3 -3 4 -12 1 -19z m-6537 9 c0 -2 -10
-12 -22 -23 l-23 -19 19 23 c18 21 26 27 26 19z m310 -59 c0 -19 -18 -32 -92
-71 -92 -47 -125 -54 -77 -14 66 55 91 73 121 90 42 22 48 22 48 -5z m-240
-12 c0 -8 -14 -25 -32 -37 -33 -24 -30 -11 5 29 24 26 27 27 27 8z m-502 -3
c-10 -2 -26 -2 -35 0 -10 3 -2 5 17 5 19 0 27 -2 18 -5z m-1541 -9 c-3 -3 -12
-4 -19 -1 -8 3 -5 6 6 6 11 1 17 -2 13 -5z m9024 -3 c12 -2 19 -51 13 -90 -4
-25 -11 -38 -18 -35 -14 5 -68 -20 -66 -31 1 -4 -2 -10 -6 -13 -4 -4 -4 11 1
33 10 54 10 64 2 106 l-7 36 37 -3 c21 -1 41 -2 44 -3z m-7378 -8 c-7 -2 -21
-2 -30 0 -10 3 -4 5 12 5 17 0 24 -2 18 -5z m227 -2 c0 -6 -5 -13 -11 -17 -8
-4 -7 -9 2 -15 11 -7 11 -9 -1 -8 -8 1 -26 5 -40 9 -23 7 -23 8 -4 9 12 1 24
8 28 16 6 16 26 21 26 6z m-173 -7 c-3 -3 -12 -4 -19 -1 -8 3 -5 6 6 6 11 1
17 -2 13 -5z m387 -8 c-7 -18 -54 -50 -61 -42 -3 3 2 17 11 31 18 27 60 36 50
11z m-1906 -12 c61 -8 67 -14 11 -14 -24 1 -55 8 -69 16 -14 8 -17 13 -7 10 9
-3 39 -8 65 -12z m2071 -1 c-35 -47 -54 -63 -75 -63 -44 0 -34 20 23 49 71 35
68 35 52 14z m-2166 -10 c-7 -2 -19 -2 -25 0 -7 3 -2 5 12 5 14 0 19 -2 13 -5z
m9325 -15 c4 -19 -37 -31 -55 -16 -14 11 -18 32 -5 24 4 -2 14 -1 22 4 19 12
34 7 38 -12z m-9425 5 c-7 -2 -19 -2 -25 0 -7 3 -2 5 12 5 14 0 19 -2 13 -5z
m2024 -9 c-3 -3 -12 -4 -19 -1 -8 3 -5 6 6 6 11 1 17 -2 13 -5z m283 -33 c0
-14 -18 -23 -31 -15 -8 4 -7 9 2 15 18 11 29 11 29 0z m9216 -51 c26 0 31 -19
12 -38 -7 -7 -8 -12 -2 -12 6 0 19 -7 30 -14 18 -14 18 -15 -13 -26 -22 -8
-33 -19 -33 -31 0 -22 -20 -25 -39 -6 -10 10 -14 9 -22 -5 -12 -22 -29 -23
-29 -4 0 21 -17 28 -39 17 -15 -8 -20 -7 -25 5 -4 9 -1 23 5 31 9 11 8 17 -7
27 -18 14 -18 15 9 27 17 8 26 18 22 27 -9 25 6 34 31 18 22 -15 24 -15 35 6
l12 22 15 -22 c8 -12 25 -22 38 -22z m-5261 20 c8 -13 -5 -13 -25 0 -13 8 -13
10 2 10 9 0 20 -4 23 -10z m-3535 -41 c0 -6 -4 -7 -10 -4 -5 3 -10 11 -10 16
0 6 5 7 10 4 6 -3 10 -11 10 -16z m5770 -149 c0 -5 -5 -10 -11 -10 -5 0 -7 5
-4 10 3 6 8 10 11 10 2 0 4 -4 4 -10z m2960 -10 c0 -5 -9 -10 -19 -10 -11 0
-23 5 -26 10 -4 6 5 10 19 10 14 0 26 -4 26 -10z m-7054 -85 c-16 -16 -71 -21
-62 -6 3 5 16 7 28 3 14 -3 19 -2 14 6 -5 8 1 12 14 12 19 0 20 -2 6 -15z
m4824 -10 c118 -9 310 -22 426 -30 296 -20 357 -26 370 -37 7 -5 16 -8 20 -7
5 1 16 -1 24 -4 8 -3 24 -8 35 -11 11 -3 -2 -3 -30 -1 -47 4 -49 4 -30 -11 19
-15 13 -16 -75 -11 -167 11 -372 26 -475 37 -55 5 -201 19 -325 31 -124 12
-226 22 -227 23 -1 1 0 11 3 23 5 17 12 21 37 17 18 -2 129 -11 247 -19z
m-4913 9 c-3 -3 -12 -4 -19 -1 -8 3 -5 6 6 6 11 1 17 -2 13 -5z m4953 -78
c113 -13 237 -27 275 -30 183 -17 375 -53 353 -68 -9 -5 -4 -8 14 -8 14 0 33
-3 42 -6 17 -7 10 -34 -9 -34 -7 0 -15 -6 -18 -12 -3 -10 -54 -12 -220 -10
-165 3 -217 0 -217 -9 0 -9 -30 -10 -125 -5 -133 7 -415 33 -420 38 -4 4 -8
77 -6 126 l1 42 63 0 c34 0 154 -11 267 -24z m858 -3 c-10 -2 -26 -2 -35 0
-10 3 -2 5 17 5 19 0 27 -2 18 -5z m-31 -49 c-3 -3 -12 -4 -19 -1 -8 3 -5 6 6
6 11 1 17 -2 13 -5z m-3807 -29 c0 -8 -4 -15 -10 -15 -5 0 -10 7 -10 15 0 8 5
15 10 15 6 0 10 -7 10 -15z m340 -32 c0 -5 -5 -15 -10 -23 -8 -12 -10 -11 -10
8 0 12 5 22 10 22 6 0 10 -3 10 -7z m-410 -73 c0 -5 -2 -10 -4 -10 -3 0 -8 5
-11 10 -3 6 -1 10 4 10 6 0 11 -4 11 -10z m45 -11 c-10 -15 -25 -10 -19 6 4 8
10 12 15 9 5 -3 7 -10 4 -15z m2173 -5 c42 -6 52 -10 52 -25 0 -11 -5 -19 -11
-19 -15 0 -173 41 -178 46 -6 6 77 5 137 -2z m982 -31 c180 -5 224 -9 190 -16
-49 -10 -68 -21 -51 -31 6 -4 11 -3 11 1 0 5 15 7 33 5 20 -2 34 -9 34 -17 0
-8 -3 -13 -6 -12 -5 1 -40 -4 -144 -19 -20 -3 -35 -10 -31 -15 3 -5 -2 -9 -11
-9 -9 0 -13 -4 -10 -10 3 -5 -3 -11 -14 -11 -12 -1 -43 -3 -71 -6 -74 -6 -180
-7 -225 -1 -22 3 -28 3 -12 1 15 -2 27 -9 27 -14 0 -6 -8 -8 -17 -5 -14 4
-172 36 -180 36 -7 0 -14 92 -8 109 6 20 13 21 128 21 67 0 228 -3 357 -7z
m504 -18 c-4 -8 -19 -12 -42 -10 -20 1 -47 -1 -58 -5 -19 -8 -94 7 -108 20 -3
3 44 6 104 7 87 1 108 -1 104 -12z m-254 -45 c0 -5 -2 -10 -4 -10 -3 0 -8 5
-11 10 -3 6 -1 10 4 10 6 0 11 -4 11 -10z m75 -10 c-22 -4 -35 -8 -30 -9 16
-3 -68 -31 -90 -30 -16 1 -15 3 5 9 56 16 70 23 64 31 -3 5 16 8 43 8 l48 -2
-40 -7z m-157 -36 c-10 -9 -27 -11 -68 -5 l-55 9 58 1 c36 1 56 5 52 11 -3 6
1 7 10 4 14 -6 14 -9 3 -20z"/>
<path d="M7378 5053 c6 -2 18 -2 25 0 6 3 1 5 -13 5 -14 0 -19 -2 -12 -5z"/>
<path d="M9390 4640 c0 -5 5 -10 10 -10 6 0 10 5 10 10 0 6 -4 10 -10 10 -5 0
-10 -4 -10 -10z"/>
<path d="M9070 4233 c8 -3 18 -10 21 -15 3 -5 9 -3 12 6 5 12 0 16 -21 15 -16
0 -21 -3 -12 -6z"/>
<path d="M9072 3920 c0 -14 2 -19 5 -12 2 6 2 18 0 25 -3 6 -5 1 -5 -13z"/>
<path d="M9076 3684 c-5 -14 -4 -15 9 -4 17 14 19 20 6 20 -5 0 -12 -7 -15
-16z"/>
<path d="M7392 2825 c0 -16 2 -22 5 -12 2 9 2 23 0 30 -3 6 -5 -1 -5 -18z"/>
<path d="M7494 2798 c33 -6 52 -6 60 2 7 7 -8 10 -49 9 l-60 -1 49 -10z"/>
<path d="M7709 2725 c-3 -6 -6 -25 -7 -43 -2 -19 -10 -48 -18 -65 l-16 -32 24
25 c13 14 27 32 30 41 7 19 -5 89 -13 74z"/>
<path d="M7670 2490 c0 -5 7 -10 16 -10 8 0 12 5 9 10 -3 6 -10 10 -16 10 -5
0 -9 -4 -9 -10z"/>
<path d="M7680 2461 c0 -6 4 -13 10 -16 6 -3 7 1 4 9 -7 18 -14 21 -14 7z"/>
<path d="M7843 2183 c9 -2 23 -2 30 0 6 3 -1 5 -18 5 -16 0 -22 -2 -12 -5z"/>
<path d="M7727 2110 c12 -12 52 -16 55 -6 2 5 -12 10 -30 11 -19 2 -30 -1 -25
-5z"/>
<path d="M7565 2071 c3 -5 16 -8 30 -6 39 4 39 12 0 13 -20 1 -33 -3 -30 -7z"/>
<path d="M7650 2070 c-9 -6 -10 -10 -3 -10 6 0 15 5 18 10 8 12 4 12 -15 0z"/>
<path d="M8128 1973 c12 -2 30 -2 40 0 9 3 -1 5 -23 4 -22 0 -30 -2 -17 -4z"/>
<path d="M8203 1943 c9 -2 25 -2 35 0 9 3 1 5 -18 5 -19 0 -27 -2 -17 -5z"/>
<path d="M8271 1939 c13 -8 88 -14 78 -5 -2 2 -24 6 -48 9 -29 4 -40 2 -30 -4z"/>
<path d="M7361 1808 c-1 -16 4 -28 9 -28 12 0 12 8 0 35 -8 18 -9 17 -9 -7z"/>
<path d="M6779 1758 c-7 -24 -5 -38 7 -38 8 0 14 9 14 20 0 11 -4 20 -10 20
-5 0 -10 -1 -11 -2z"/>
<path d="M7360 1750 c0 -6 4 -10 9 -10 5 0 12 -10 14 -22 4 -21 4 -20 6 3 0
16 -5 29 -14 33 -8 3 -15 1 -15 -4z"/>
<path d="M7743 1737 c1 -15 5 -27 10 -27 10 0 9 22 -2 39 -7 10 -9 7 -8 -12z"/>
<path d="M5728 1723 c6 -2 18 -2 25 0 6 3 1 5 -13 5 -14 0 -19 -2 -12 -5z"/>
<path d="M7671 1693 c-1 -7 -8 -13 -16 -13 -8 0 -15 -4 -15 -10 0 -12 10 -13
29 -1 7 5 11 15 8 22 -4 10 -6 10 -6 2z"/>
<path d="M7900 1686 c0 -9 5 -16 10 -16 6 0 10 4 10 9 0 6 -4 13 -10 16 -5 3
-10 -1 -10 -9z"/>
<path d="M6694 1666 c-8 -22 3 -33 18 -18 9 9 9 15 0 24 -9 9 -13 7 -18 -6z"/>
<path d="M8142 1655 c0 -16 2 -22 5 -12 2 9 2 23 0 30 -3 6 -5 -1 -5 -18z"/>
<path d="M6600 1635 c0 -14 5 -25 10 -25 6 0 10 11 10 25 0 14 -4 25 -10 25
-5 0 -10 -11 -10 -25z"/>
<path d="M8192 1630 c0 -14 2 -19 5 -12 2 6 2 18 0 25 -3 6 -5 1 -5 -13z"/>
<path d="M7910 1613 c0 -13 5 -23 10 -23 13 0 13 11 0 30 -8 12 -10 11 -10 -7z"/>
<path d="M8150 1600 c-8 -15 -9 -25 -1 -33 7 -7 12 -2 17 17 8 35 -1 44 -16
16z"/>
<path d="M8210 1575 c0 -8 4 -15 8 -15 5 0 9 7 9 15 0 8 -4 15 -9 15 -4 0 -8
-7 -8 -15z"/>
<path d="M6955 1561 c-3 -5 -1 -12 5 -16 5 -3 10 1 10 9 0 18 -6 21 -15 7z"/>
<path d="M7951 1554 c0 -11 3 -14 6 -6 3 7 2 16 -1 19 -3 4 -6 -2 -5 -13z"/>
<path d="M8625 1557 c-4 -10 -5 -21 -1 -24 10 -10 18 4 13 24 -4 17 -4 17 -12
0z"/>
<path d="M8717 1486 c-16 -23 -13 -36 6 -36 5 0 7 6 4 14 -3 7 0 19 6 25 6 6
8 13 5 16 -3 3 -12 -5 -21 -19z"/>
<path d="M8585 1400 c-3 -5 -1 -10 4 -10 6 0 11 5 11 10 0 6 -2 10 -4 10 -3 0
-8 -4 -11 -10z"/>
<path d="M8946 1403 c-12 -13 -6 -53 9 -53 9 0 15 9 15 24 0 26 -12 40 -24 29z"/>
<path d="M9070 1375 c0 -14 5 -25 10 -25 6 0 10 11 10 25 0 14 -4 25 -10 25
-5 0 -10 -11 -10 -25z"/>
<path d="M9066 1305 c-3 -8 -1 -15 4 -15 6 0 10 7 10 15 0 8 -2 15 -4 15 -2 0
-6 -7 -10 -15z"/>
<path d="M10352 4480 l1 -75 7 55 c4 30 3 64 -1 75 -5 12 -7 -10 -7 -55z"/>
<path d="M10352 4375 c0 -16 2 -22 5 -12 2 9 2 23 0 30 -3 6 -5 -1 -5 -18z"/>
<path d="M10578 4253 c7 -3 16 -2 19 1 4 3 -2 6 -13 5 -11 0 -14 -3 -6 -6z"/>
<path d="M10547 3617 c-3 -9 -2 -19 4 -23 15 -9 18 -2 9 20 -6 17 -7 18 -13 3z"/>
<path d="M10456 3451 c-18 -7 -18 -8 -2 -14 19 -8 36 -1 36 14 0 10 -7 11 -34
0z"/>
<path d="M6570 4091 c0 -6 4 -12 8 -15 5 -3 9 1 9 9 0 8 -4 15 -9 15 -4 0 -8
-4 -8 -9z"/>
<path d="M6510 2438 c0 -7 -3 -23 -6 -35 -5 -18 -2 -23 13 -23 16 0 18 6 15
35 -4 32 -22 51 -22 23z"/>
<path d="M11120 3405 c7 -8 18 -15 24 -14 7 0 6 2 -2 6 -6 2 -10 9 -6 14 3 5
-2 9 -12 9 -13 0 -14 -3 -4 -15z"/>
<path d="M3060 4360 c6 -11 13 -20 16 -20 2 0 0 9 -6 20 -6 11 -13 20 -16 20
-2 0 0 -9 6 -20z"/>
<path d="M3290 4316 c0 -2 7 -9 15 -16 9 -7 15 -8 15 -2 0 5 -7 12 -15 16 -8
3 -15 4 -15 2z"/>
<path d="M5141 4274 c0 -11 3 -14 6 -6 3 7 2 16 -1 19 -3 4 -6 -2 -5 -13z"/>
<path d="M4780 3016 c0 -9 5 -16 10 -16 6 0 10 4 10 9 0 6 -4 13 -10 16 -5 3
-10 -1 -10 -9z"/>
<path d="M4797 2983 c-7 -11 -10 -50 -7 -98 1 -37 2 -38 11 -15 6 14 8 32 6
42 -3 9 1 22 9 29 19 16 18 33 -2 25 -12 -4 -15 -2 -10 9 6 15 1 21 -7 8z"/>
<path d="M4936 2916 c-3 -13 -8 -31 -12 -39 -3 -9 2 -16 15 -20 16 -4 21 1 26
24 4 18 11 27 18 22 7 -3 3 3 -7 15 -24 28 -32 28 -40 -2z"/>
<path d="M5402 2835 c0 -16 2 -22 5 -12 2 9 2 23 0 30 -3 6 -5 -1 -5 -18z"/>
<path d="M4800 2809 c0 -11 5 -17 10 -14 6 3 10 13 10 21 0 8 -4 14 -10 14 -5
0 -10 -9 -10 -21z"/>
<path d="M5178 2233 c7 -3 16 -2 19 1 4 3 -2 6 -13 5 -11 0 -14 -3 -6 -6z"/>
<path d="M5010 4123 c0 -68 5 -67 13 5 4 30 2 52 -3 52 -6 0 -10 -25 -10 -57z"/>
<path d="M2310 3750 c-8 -5 -12 -11 -9 -14 2 -3 11 -1 19 4 8 5 12 11 9 14 -2
3 -11 1 -19 -4z"/>
<path d="M2178 3645 c2 -14 6 -25 8 -25 2 0 4 11 4 25 0 14 -4 25 -9 25 -4 0
-6 -11 -3 -25z"/>
<path d="M2030 3630 c0 -5 11 -12 24 -16 24 -6 27 -34 4 -34 -5 0 -6 5 -2 11
4 7 1 10 -7 7 -7 -2 -14 -19 -15 -38 -1 -23 1 -29 8 -19 7 11 11 11 15 2 7
-18 33 -16 33 3 0 9 7 14 18 12 9 -1 23 1 30 5 6 5 18 5 24 1 22 -14 49 -12
44 3 -3 7 1 13 10 13 9 0 12 5 8 11 -4 7 -21 9 -45 5 -21 -3 -47 -2 -56 3 -24
13 -85 41 -90 41 -1 0 -3 -4 -3 -10z"/>
<path d="M2246 3595 c4 -8 10 -12 15 -9 11 6 2 24 -11 24 -5 0 -7 -7 -4 -15z"/>
<path d="M1946 3037 c3 -10 9 -15 12 -12 3 3 0 11 -7 18 -10 9 -11 8 -5 -6z"/>
<path d="M1630 2349 c0 -5 5 -7 10 -4 6 3 10 8 10 11 0 2 -4 4 -10 4 -5 0 -10
-5 -10 -11z"/>
<path d="M2134 2253 c15 -4 16 -7 5 -14 -10 -7 -5 -8 15 -5 17 3 36 0 43 -6
10 -8 17 -8 24 -1 14 14 3 19 -56 26 -27 3 -41 3 -31 0z"/>
<path d="M1320 2166 c0 -2 9 -6 20 -9 11 -3 20 -1 20 4 0 5 -9 9 -20 9 -11 0
-20 -2 -20 -4z"/>
<path d="M1388 2153 c7 -3 16 -2 19 1 4 3 -2 6 -13 5 -11 0 -14 -3 -6 -6z"/>
<path d="M8850 2310 l-35 -7 35 -2 c19 -1 61 -4 93 -7 48 -5 57 -3 57 10 0 13
-11 16 -57 15 -32 -1 -74 -5 -93 -9z"/>
<path d="M5286 3445 c10 -8 24 -14 29 -14 6 0 1 6 -9 14 -11 8 -24 15 -30 15
-5 0 -1 -7 10 -15z"/>
<path d="M5270 3421 c0 -5 9 -11 20 -14 24 -6 27 8 4 17 -21 8 -24 8 -24 -3z"/>
<path d="M5295 3251 c-16 -3 -25 -9 -19 -13 13 -9 54 1 54 13 0 5 -1 8 -2 8
-2 -1 -16 -4 -33 -8z"/>
<path d="M5750 3170 c0 -5 4 -10 9 -10 6 0 13 5 16 10 3 6 -1 10 -9 10 -9 0
-16 -4 -16 -10z"/>
<path d="M4156 2658 c3 -35 6 -85 7 -113 1 -27 6 -49 12 -50 7 0 10 93 5 218
0 4 -6 7 -14 7 -11 0 -13 -14 -10 -62z"/>
<path d="M10370 2900 c0 -5 4 -10 9 -10 6 0 13 5 16 10 3 6 -1 10 -9 10 -9 0
-16 -4 -16 -10z"/>
<path d="M3186 2499 c-11 -11 -17 -21 -14 -24 2 -3 13 4 23 15 24 26 16 33 -9
9z"/>
<path d="M6123 2323 c9 -2 25 -2 35 0 9 3 1 5 -18 5 -19 0 -27 -2 -17 -5z"/>
<path d="M9558 2159 c-1 -34 0 -63 5 -66 4 -2 7 25 7 61 0 36 -2 66 -4 66 -2
0 -6 -27 -8 -61z"/>
<path d="M10288 1313 c7 -3 16 -2 19 1 4 3 -2 6 -13 5 -11 0 -14 -3 -6 -6z"/>
</g>
</svg>
