<?xml version="1.0" standalone="no"?>
<!DOCTYPE svg PUBLIC "-//W3C//DTD SVG 20010904//EN"
 "http://www.w3.org/TR/2001/REC-SVG-20010904/DTD/svg10.dtd">
<svg version="1.0" xmlns="http://www.w3.org/2000/svg"
 width="800.000000pt" height="515.000000pt" viewBox="0 0 800.000000 515.000000"
 preserveAspectRatio="xMidYMid meet">

<g transform="translate(0.000000,515.000000) scale(0.100000,-0.100000)"
fill="#000000" stroke="none">
<path d="M4708 2925 l-47 -75 42 -28 c23 -16 152 -100 287 -187 135 -87 246
-159 248 -160 2 -2 -26 -47 -60 -101 -35 -55 -67 -104 -71 -111 -5 -8 17 -29
63 -59 61 -41 73 -45 84 -33 16 17 364 563 371 581 4 12 -113 98 -134 98 -5 0
-40 -47 -77 -106 -42 -66 -72 -103 -80 -100 -7 3 -135 84 -284 180 -149 97
-277 176 -283 176 -7 0 -33 -34 -59 -75z"/>
<path d="M5820 2875 c0 -3 14 -32 30 -65 17 -33 30 -73 30 -90 0 -23 4 -30 20
-30 17 0 20 7 20 39 0 23 10 57 25 82 28 50 31 69 10 69 -8 0 -24 -19 -36 -41
l-21 -42 -22 39 c-12 21 -29 40 -39 42 -9 2 -17 1 -17 -3z"/>
<path d="M6590 2860 c0 -16 7 -20 30 -20 l30 0 0 -75 c0 -60 3 -75 15 -75 12
0 15 15 15 75 l0 75 30 0 c23 0 30 4 30 20 0 18 -7 20 -75 20 -68 0 -75 -2
-75 -20z"/>
<path d="M6867 2873 c-4 -3 -7 -46 -7 -95 0 -81 2 -88 20 -88 19 0 20 7 20 95
0 72 -3 95 -13 95 -8 0 -17 -3 -20 -7z"/>
<path d="M7220 2841 c0 -11 -6 -22 -12 -24 -10 -4 -10 -7 -1 -14 6 -5 13 -31
15 -58 3 -46 5 -50 31 -53 15 -2 27 1 27 7 0 6 -4 11 -10 11 -15 0 -12 87 3
94 10 5 10 7 0 12 -7 3 -13 14 -13 25 0 12 -7 19 -20 19 -13 0 -20 -7 -20 -19z"/>
<path d="M785 2816 c-133 -59 -142 -254 -15 -325 54 -30 140 -27 188 8 73 51
94 166 47 247 -42 72 -143 104 -220 70z m49 -78 l19 -31 28 34 28 34 -6 -43
-6 -43 44 6 44 7 -32 -22 c-41 -27 -41 -36 -3 -58 33 -19 40 -36 13 -28 -10 2
-29 8 -42 11 -24 7 -24 6 -18 -41 7 -52 4 -51 -37 10 -12 18 -14 17 -35 -18
-13 -20 -25 -36 -26 -34 -2 2 0 22 5 46 6 37 5 42 -9 38 -43 -11 -71 -16 -71
-12 0 3 16 16 36 30 l36 24 -39 27 -38 27 47 -7 c37 -5 47 -3 44 7 -22 70 -13
89 18 36z"/>
<path d="M5977 2802 c-39 -43 -7 -122 48 -122 33 0 75 42 75 75 0 56 -86 89
-123 47z m72 -16 c7 -8 11 -27 9 -43 -4 -38 -43 -45 -59 -10 -20 45 21 88 50
53z"/>
<path d="M6110 2772 c0 -27 7 -57 16 -70 15 -22 48 -30 58 -13 3 5 15 7 26 4
19 -5 20 0 20 61 0 52 -3 66 -15 66 -11 0 -15 -12 -15 -44 0 -44 -19 -74 -40
-61 -5 3 -10 28 -10 56 0 42 -3 49 -20 49 -17 0 -20 -7 -20 -48z"/>
<path d="M6260 2754 c0 -50 3 -64 15 -64 10 0 15 10 15 34 0 47 9 66 30 66 21
0 30 -19 30 -66 0 -24 5 -34 15 -34 20 0 21 102 2 118 -7 6 -34 11 -60 10
l-47 -1 0 -63z"/>
<path d="M6412 2808 c-7 -7 -12 -29 -12 -50 0 -43 34 -74 70 -63 15 5 20 2 20
-10 0 -15 -7 -16 -45 -11 -28 5 -45 3 -45 -3 0 -15 35 -31 69 -31 44 0 61 31
61 111 l0 67 -53 1 c-30 0 -59 -5 -65 -11z m62 -14 c21 -8 21 -63 1 -70 -33
-13 -59 38 -33 64 14 14 12 14 32 6z"/>
<path d="M6743 2813 c-15 -6 -17 -33 -3 -33 6 0 19 6 30 12 15 10 22 10 31 1
10 -10 8 -14 -7 -18 -72 -22 -97 -65 -50 -86 14 -7 33 -8 43 -4 10 5 26 7 36
6 14 -2 17 6 17 51 0 30 -5 59 -12 66 -12 12 -62 15 -85 5z m67 -78 c0 -19
-24 -29 -47 -20 -17 6 -17 7 1 21 26 18 46 18 46 -1z"/>
<path d="M6937 2802 c-23 -25 -21 -78 3 -102 25 -25 61 -26 91 -1 28 22 18 41
-11 23 -26 -16 -45 -15 -60 3 -11 13 -6 15 39 15 57 0 66 15 35 58 -19 28 -74
30 -97 4z m71 -19 c2 -8 -6 -13 -22 -13 -25 0 -33 10 -19 24 10 10 36 3 41
-11z"/>
<path d="M7070 2754 c0 -50 3 -64 15 -64 10 0 15 10 15 34 0 47 9 66 31 66 16
0 19 -8 19 -50 0 -43 3 -50 20 -50 18 0 20 7 20 54 0 65 -11 76 -73 74 l-47
-1 0 -63z"/>
<path d="M2370 2745 c-20 -25 -8 -50 25 -50 24 0 31 5 33 24 6 37 -34 55 -58
26z"/>
<path d="M4030 2680 c0 -37 -2 -40 -19 -30 -55 29 -125 -5 -137 -67 -14 -72
48 -136 113 -117 16 4 45 6 66 5 l37 -3 0 126 0 126 -30 0 c-28 0 -30 -2 -30
-40z m-22 -86 c37 -26 23 -74 -23 -74 -42 0 -59 44 -29 74 19 20 24 20 52 0z"/>
<path d="M1510 2585 l0 -115 90 0 c89 0 90 0 90 25 0 23 -3 25 -50 25 -43 0
-50 3 -50 20 0 17 7 20 50 20 47 0 50 2 50 25 0 23 -3 25 -50 25 -43 0 -50 3
-50 20 0 17 7 20 50 20 47 0 50 2 50 25 0 25 -1 25 -90 25 l-90 0 0 -115z"/>
<path d="M1740 2607 c0 -88 2 -95 26 -118 21 -20 36 -24 84 -24 48 0 63 4 84
24 24 23 26 30 26 118 l0 93 -30 0 -30 0 0 -73 c0 -79 -16 -117 -50 -117 -34
0 -50 38 -50 117 l0 73 -30 0 -30 0 0 -93z"/>
<path d="M2007 2653 c-4 -3 -7 -46 -7 -95 l0 -88 35 0 35 0 0 58 c0 65 9 85
36 80 16 -3 19 -14 22 -71 l3 -67 34 0 35 0 0 58 c0 65 9 85 36 80 16 -3 19
-14 22 -71 l3 -67 34 0 35 0 0 73 c0 89 -15 117 -65 117 -18 0 -41 -7 -50 -16
-15 -15 -17 -15 -34 0 -20 18 -63 21 -92 6 -13 -7 -19 -7 -19 0 0 11 -53 14
-63 3z"/>
<path d="M2367 2653 c-4 -3 -7 -46 -7 -95 l0 -88 35 0 35 0 0 95 0 95 -28 0
c-16 0 -32 -3 -35 -7z"/>
<path d="M2487 2640 c-52 -41 -44 -136 14 -165 47 -25 94 -19 131 15 l33 30
-70 -2 c-59 -3 -70 0 -73 15 -3 15 5 17 67 17 70 0 71 1 71 26 0 15 -12 38
-29 55 -37 37 -104 41 -144 9z m103 -35 c11 -13 7 -15 -29 -15 -39 0 -55 13
-28 23 23 10 45 7 57 -8z"/>
<path d="M2699 2639 c-12 -12 -19 -30 -17 -46 3 -27 14 -36 61 -53 41 -14 23
-34 -23 -26 -30 5 -39 2 -44 -11 -17 -42 81 -59 128 -22 17 13 26 30 26 49 0
31 -13 45 -53 55 -38 10 -37 39 2 32 21 -4 31 -2 35 9 11 30 6 34 -44 34 -37
0 -55 -5 -71 -21z"/>
<path d="M2897 2649 c-20 -12 -47 -60 -47 -84 0 -31 31 -82 56 -94 30 -13 71
-15 78 -2 3 5 25 6 48 4 l43 -5 -2 93 -1 94 -31 3 c-18 2 -31 -1 -31 -8 0 -7
-6 -8 -19 0 -25 13 -71 12 -94 -1z m111 -83 c5 -23 -16 -46 -42 -46 -46 0 -62
48 -24 74 19 13 25 14 43 2 11 -7 21 -21 23 -30z"/>
<path d="M3090 2658 c0 -2 21 -44 48 -93 39 -75 51 -91 73 -93 21 -2 29 3 39
28 18 44 28 45 47 6 13 -28 23 -36 43 -36 22 0 31 11 70 88 25 48 46 90 48 95
2 4 -13 7 -32 7 -33 0 -38 -4 -58 -45 -12 -25 -25 -45 -28 -45 -14 0 -31 53
-20 64 20 20 9 26 -45 26 -54 0 -65 -6 -45 -26 11 -11 -6 -64 -20 -64 -4 0
-15 19 -26 43 -17 37 -23 42 -56 45 -21 2 -38 2 -38 0z"/>
<path d="M3497 2649 c-27 -16 -48 -72 -41 -109 4 -17 20 -42 36 -55 29 -25 81
-34 92 -16 3 5 26 6 51 3 l46 -5 -3 94 -3 94 -32 3 c-22 2 -33 -1 -33 -9 0
-10 -3 -10 -12 -1 -15 15 -76 15 -101 1z m94 -49 c21 -12 25 -50 7 -68 -21
-21 -57 -14 -70 14 -11 23 -10 29 11 45 27 22 27 22 52 9z"/>
<path d="M3719 2656 c-2 -2 -3 -45 -1 -95 l3 -91 30 0 c28 0 29 2 29 46 0 61
14 84 50 84 27 0 30 3 30 30 0 35 -21 40 -58 14 -20 -14 -22 -14 -22 0 0 11
-9 16 -28 16 -16 0 -31 -2 -33 -4z"/>
<path d="M5875 2598 c-18 -49 -55 -163 -55 -170 0 -17 32 -7 37 12 4 15 14 20
40 20 26 0 36 -5 40 -20 5 -19 43 -29 43 -12 0 8 -40 128 -55 165 -8 20 -43
23 -50 5z m40 -80 c6 -24 4 -28 -15 -28 -18 0 -21 4 -16 23 3 12 6 29 6 37 0
21 17 0 25 -32z"/>
<path d="M6230 2515 c0 -78 3 -95 15 -95 11 0 15 12 15 44 0 44 19 74 40 61 5
-3 10 -28 10 -56 0 -42 3 -49 20 -49 18 0 20 7 20 54 0 36 -5 60 -16 70 -18
19 -45 21 -62 4 -9 -9 -12 -4 -12 25 0 26 -4 37 -15 37 -12 0 -15 -17 -15 -95z"/>
<path d="M6370 2595 c0 -8 9 -15 20 -15 11 0 20 7 20 15 0 8 -9 15 -20 15 -11
0 -20 -7 -20 -15z"/>
<path d="M6440 2582 c0 -10 -6 -24 -12 -31 -10 -11 -10 -14 0 -18 7 -3 12 -22
12 -47 0 -23 5 -47 12 -54 17 -17 48 -15 48 3 0 8 -4 15 -10 15 -5 0 -10 18
-10 40 0 22 5 40 10 40 6 0 10 7 10 15 0 8 -4 15 -10 15 -5 0 -10 9 -10 20 0
13 -7 20 -20 20 -13 0 -20 -7 -20 -18z"/>
<path d="M6810 2582 c0 -10 -6 -24 -12 -31 -10 -11 -10 -14 0 -18 7 -3 12 -22
12 -47 0 -23 5 -47 12 -54 17 -17 48 -15 48 3 0 8 -4 15 -10 15 -5 0 -10 18
-10 40 0 22 5 40 10 40 6 0 10 7 10 15 0 8 -4 15 -10 15 -5 0 -10 9 -10 20 0
13 -7 20 -20 20 -13 0 -20 -7 -20 -18z"/>
<path d="M6000 2490 c0 -56 3 -70 15 -70 11 0 15 11 15 35 0 26 7 43 27 61 20
18 24 27 15 36 -8 8 -15 8 -27 -2 -10 -8 -15 -9 -15 -1 0 6 -7 11 -15 11 -12
0 -15 -14 -15 -70z"/>
<path d="M6101 2534 c-25 -32 -27 -61 -5 -92 21 -30 88 -31 104 -1 15 28 5 35
-24 19 -37 -19 -58 -7 -54 32 2 25 8 34 26 36 12 2 22 -1 22 -7 0 -6 9 -11 20
-11 26 0 25 15 -2 34 -33 23 -64 19 -87 -10z"/>
<path d="M6377 2554 c-4 -4 -7 -36 -7 -71 0 -57 2 -63 20 -63 19 0 21 5 18 67
-3 61 -14 84 -31 67z"/>
<path d="M6531 2534 c-42 -53 -16 -114 48 -114 35 0 61 14 61 32 0 12 -34 10
-48 -4 -8 -8 -15 -8 -27 2 -26 21 -17 30 30 30 38 0 45 3 45 20 0 27 -35 60
-64 60 -15 0 -33 -11 -45 -26z m69 -19 c0 -9 -9 -15 -25 -15 -24 0 -32 10 -18
23 12 13 43 7 43 -8z"/>
<path d="M6682 2543 c-20 -17 -26 -37 -23 -75 4 -56 121 -67 121 -11 0 18 -25
16 -40 -2 -17 -20 -50 -1 -50 29 0 36 25 52 55 36 32 -17 43 -6 20 20 -22 25
-56 26 -83 3z"/>
<path d="M6892 2493 l3 -68 58 -2 58 -2 -3 67 c-2 52 -6 67 -18 67 -11 0 -16
-14 -20 -50 -4 -42 -8 -50 -25 -50 -17 0 -20 8 -23 53 -2 38 -7 52 -18 52 -12
0 -14 -13 -12 -67z"/>
<path d="M7030 2489 c0 -62 2 -69 20 -69 17 0 20 7 20 45 0 34 5 47 20 55 33
18 24 35 -20 36 l-40 1 0 -68z"/>
<path d="M7143 2545 c-38 -26 -37 -92 1 -117 19 -13 73 -9 86 7 18 22 5 30
-26 16 -20 -9 -30 -9 -40 0 -25 21 -15 29 37 29 47 0 50 1 44 23 -8 27 -41 57
-64 57 -9 0 -26 -7 -38 -15z m65 -32 c2 -9 -7 -13 -27 -13 -30 0 -39 9 -24 24
11 10 46 3 51 -11z"/>
<path d="M690 2350 l0 -30 405 0 405 0 0 30 0 30 -405 0 -405 0 0 -30z"/>
<path d="M2002 2353 l3 -28 408 -3 407 -2 0 30 0 30 -411 0 -410 0 3 -27z"/>
<path d="M5875 2328 c-2 -7 -16 -45 -30 -84 -14 -39 -25 -79 -25 -88 0 -26 29
-19 36 9 5 21 12 25 44 25 32 0 39 -4 44 -25 7 -28 36 -34 36 -7 0 9 -13 53
-29 97 -22 63 -33 81 -50 83 -12 2 -23 -3 -26 -10z m35 -50 c0 -7 3 -23 6 -35
5 -19 2 -23 -15 -23 -22 0 -25 10 -15 48 7 23 24 31 24 10z"/>
<path d="M6500 2310 c0 -28 -2 -29 -30 -23 -61 12 -90 -54 -53 -118 18 -30 56
-40 67 -16 5 10 7 10 12 0 3 -7 12 -13 20 -13 11 0 14 20 14 100 0 82 -3 100
-15 100 -10 0 -15 -10 -15 -30z m-7 -72 c7 -26 -9 -58 -29 -58 -17 0 -33 37
-26 62 6 26 48 23 55 -4z"/>
<path d="M5980 2281 c0 -5 9 -39 21 -76 22 -73 38 -80 54 -23 15 53 21 54 34
3 15 -61 34 -57 54 13 9 31 19 65 22 75 5 13 2 17 -13 17 -15 0 -21 -9 -26
-35 -8 -41 -21 -38 -31 6 -9 42 -36 34 -50 -15 l-11 -38 -12 41 c-8 24 -19 41
-27 41 -8 0 -15 -4 -15 -9z"/>
<path d="M6190 2275 c-18 -22 -4 -31 24 -16 23 13 46 9 46 -8 0 -5 -14 -11
-32 -15 -58 -12 -72 -37 -39 -74 19 -23 51 -30 51 -12 0 6 7 10 15 10 8 0 15
-4 15 -10 0 -5 5 -10 10 -10 14 0 13 123 -2 138 -17 17 -73 15 -88 -3z m68
-72 c-4 -23 -48 -31 -48 -9 0 13 14 21 43 25 5 0 7 -7 5 -16z"/>
<path d="M6320 2214 c0 -59 3 -74 15 -74 11 0 15 12 15 50 0 39 4 53 20 62 31
20 24 36 -15 36 l-35 0 0 -74z"/>
</g>
</svg>
