<?xml version="1.0" standalone="no"?>
<!DOCTYPE svg PUBLIC "-//W3C//DTD SVG 20010904//EN"
 "http://www.w3.org/TR/2001/REC-SVG-20010904/DTD/svg10.dtd">
<svg version="1.0" xmlns="http://www.w3.org/2000/svg"
 width="280.000000pt" height="180.000000pt" viewBox="0 0 280.000000 180.000000"
 preserveAspectRatio="xMidYMid meet">

<g transform="translate(0.000000,180.000000) scale(0.100000,-0.100000)"
fill="#000000" stroke="none">
<path d="M240 895 l0 -395 400 0 400 0 0 395 0 395 -400 0 -400 0 0 -395z
m590 340 l0 -25 -190 0 -190 0 0 25 0 25 190 0 190 0 0 -25z m-30 -43 c0 -26
-30 -32 -160 -32 -130 0 -160 6 -160 32 0 4 72 8 160 8 88 0 160 -4 160 -8z
m-52 -94 c-2 -29 -7 -62 -11 -73 -4 -11 4 3 18 30 13 28 25 58 25 68 0 21 13
22 30 2 18 -22 7 -61 -38 -140 -22 -39 -43 -81 -46 -95 -6 -24 -6 -23 9 3 9
16 22 26 30 24 14 -6 60 39 98 95 27 41 37 40 37 -5 0 -22 -11 -40 -40 -69
-23 -21 -47 -38 -54 -38 -7 0 -13 -10 -12 -22 2 -26 -11 -53 -39 -85 -23 -27
-45 -30 -46 -5 0 9 -7 -5 -16 -33 -8 -27 -19 -53 -25 -56 -5 -4 2 -9 16 -13
33 -8 34 -28 2 -22 -31 6 -39 -2 -21 -21 21 -20 19 -32 -7 -43 -16 -6 6 -9 75
-9 97 -1 97 -1 97 -26 l0 -25 -190 0 -190 0 0 25 c0 25 1 25 90 25 87 0 89 1
73 18 -11 11 -22 15 -28 10 -5 -4 -19 -8 -32 -8 -23 0 -23 1 -7 24 12 20 20
23 38 16 13 -5 29 -4 37 1 15 9 7 12 -28 9 -31 -2 -29 18 2 26 21 5 22 8 10
20 -7 8 -19 38 -26 68 -10 46 -9 60 5 95 9 23 11 41 6 41 -6 0 -10 -9 -10 -19
0 -11 -5 -23 -11 -27 -7 -4 -9 -24 -6 -50 3 -33 1 -44 -9 -44 -8 0 -14 -4 -14
-10 0 -19 -49 -42 -75 -36 -37 9 -30 24 18 38 23 7 43 19 44 26 3 14 -14 16
-19 2 -6 -20 -65 -29 -87 -13 -32 22 -25 35 17 28 l37 -5 -40 13 c-35 11 -73
52 -60 65 2 2 24 -5 48 -17 24 -11 49 -21 56 -21 7 0 11 -6 8 -15 -4 -8 -2
-17 3 -20 6 -4 10 3 10 14 0 11 -4 22 -9 25 -4 3 -7 16 -6 30 2 18 -3 26 -20
30 -38 10 -85 71 -85 113 0 20 2 34 4 32 2 -2 28 -33 56 -69 35 -44 58 -64 70
-62 12 2 25 -7 35 -25 15 -26 15 -27 9 -3 -4 14 -26 59 -50 101 -43 75 -52
110 -35 138 11 17 31 6 31 -17 1 -9 9 -32 19 -50 l17 -34 -4 61 -4 61 112 0
112 0 -4 -52z m-315 14 c3 -15 24 -60 46 -98 45 -79 47 -84 27 -84 -14 0 -74
67 -94 107 -13 24 -15 62 -6 87 9 24 21 19 27 -12z m447 -27 c0 -41 -82 -155
-110 -155 -16 0 -12 11 25 77 25 43 47 90 51 106 5 23 8 26 20 16 8 -6 14 -26
14 -44z m-474 -149 c16 -14 40 -33 53 -44 35 -27 19 -47 -22 -26 -48 24 -67
45 -67 71 0 29 1 29 36 -1z m504 8 c0 -29 -20 -54 -60 -74 -59 -30 -61 -6 -4
45 54 48 64 53 64 29z m-10 -83 c0 -23 -15 -36 -60 -50 l-35 -11 38 6 c38 5
46 -3 25 -24 -15 -15 -67 -16 -88 -2 -13 9 -13 12 2 20 9 6 15 16 12 24 -3 8
9 17 35 25 22 6 43 16 46 21 10 17 25 11 25 -9z m-500 -96 c10 -12 8 -16 -11
-24 -15 -5 -35 -4 -53 2 -27 9 -28 11 -11 24 25 17 60 17 75 -2z m555 2 c17
-13 16 -15 -11 -24 -43 -15 -91 7 -67 30 11 12 58 8 78 -6z m-146 -8 c37 -13
40 -26 6 -35 -16 -4 -34 0 -50 10 -48 32 -21 47 44 25z m-229 -23 c0 -8 -8
-24 -18 -36 -14 -18 -25 -22 -45 -16 -35 9 -34 16 11 48 37 26 52 28 52 4z
m171 -3 c21 -16 39 -31 39 -34 0 -4 -12 -10 -26 -13 -32 -8 -64 17 -64 51 0
29 3 29 51 -4z m-313 -20 c6 -19 -42 -37 -75 -28 l-28 7 24 19 c26 21 72 22
79 2z m481 1 c18 -13 20 -18 10 -25 -21 -13 -53 -11 -74 4 -42 31 21 51 64 21z
m-439 -39 c0 -18 -22 -34 -58 -41 -34 -7 -40 2 -19 28 27 35 77 43 77 13z
m399 -17 c17 -27 8 -33 -30 -22 -39 11 -61 40 -40 53 18 12 53 -4 70 -31z
m-339 -2 c0 -19 -47 -56 -71 -56 -24 0 -24 5 2 41 22 31 69 41 69 15z m265
-12 c14 -15 25 -31 25 -35 0 -20 -66 0 -82 25 -28 41 21 49 57 10z m-65 -26
c0 -12 -34 -10 -48 4 -17 17 -15 26 6 31 16 3 42 -18 42 -35z"/>
<path d="M611 1073 c-1 -31 -6 -53 -13 -55 -7 -3 -4 -7 7 -10 18 -4 20 0 17
41 -5 71 -10 82 -11 24z"/>
<path d="M658 1054 c-1 -36 0 -68 5 -71 4 -2 7 28 7 66 0 39 -2 71 -4 71 -2 0
-6 -30 -8 -66z"/>
<path d="M702 1025 c-1 -97 -1 -99 14 -66 9 21 11 37 5 40 -6 4 -12 33 -14 66
-2 40 -4 27 -5 -40z"/>
<path d="M563 1065 c0 -27 2 -38 4 -22 2 15 2 37 0 50 -2 12 -4 0 -4 -28z"/>
<path d="M540 1020 c0 -3 8 -27 19 -55 l19 -49 -2 46 c0 25 -5 44 -10 41 -4
-3 -12 1 -17 8 -5 8 -9 12 -9 9z"/>
<path d="M602 940 c0 -14 2 -19 5 -12 2 6 2 18 0 25 -3 6 -5 1 -5 -13z"/>
<path d="M671 944 c0 -7 6 -27 14 -45 14 -34 14 -34 15 -6 0 15 -4 27 -9 27
-5 0 -12 8 -14 18 -3 9 -5 12 -6 6z"/>
<path d="M626 882 c-2 -4 4 -8 14 -8 10 0 16 4 14 8 -3 4 -9 8 -14 8 -5 0 -11
-4 -14 -8z"/>
<path d="M701 853 c0 -5 4 -17 9 -28 8 -18 9 -17 9 8 1 15 -3 27 -9 27 -5 0
-10 -3 -9 -7z"/>
<path d="M2165 1249 c-10 -15 1 -23 20 -15 9 3 13 10 10 16 -8 13 -22 13 -30
-1z"/>
<path d="M1180 1235 c0 -8 9 -15 20 -15 18 0 20 -7 20 -60 0 -53 2 -60 20 -60
18 0 20 7 20 60 0 53 2 60 20 60 11 0 20 7 20 15 0 12 -13 15 -60 15 -47 0
-60 -3 -60 -15z"/>
<path d="M1320 1175 c0 -59 3 -75 14 -75 10 0 16 14 18 43 2 29 8 42 18 42 10
0 16 -13 18 -42 2 -30 8 -43 18 -43 12 0 14 11 12 53 -3 51 -4 52 -35 55 -25
2 -33 8 -33 23 0 10 -7 19 -15 19 -12 0 -15 -15 -15 -75z"/>
<path d="M1629 1175 c-23 -68 -24 -75 -8 -75 9 0 19 7 23 15 3 8 17 15 31 15
14 0 28 -7 31 -15 4 -8 14 -15 23 -15 16 0 15 7 -8 75 -21 60 -30 75 -46 75
-16 0 -25 -15 -46 -75z m61 -17 c0 -10 -6 -18 -14 -18 -21 0 -25 11 -14 40 7
20 11 22 18 10 5 -8 10 -23 10 -32z"/>
<path d="M1453 1184 c-15 -24 -15 -29 -2 -53 11 -20 22 -26 49 -26 18 0 35 6
38 13 2 8 -6 12 -29 10 -18 -2 -34 2 -36 10 -3 8 8 12 36 12 45 0 48 5 25 38
-21 30 -59 29 -81 -4z m65 -11 c2 -8 -6 -13 -22 -13 -19 0 -24 4 -19 15 6 18
34 16 41 -2z"/>
<path d="M1770 1154 c0 -40 4 -54 14 -54 10 0 16 14 18 43 2 23 8 42 13 42 6
0 11 -19 13 -42 2 -29 8 -43 17 -43 9 0 15 14 17 43 2 29 8 42 18 42 10 0 16
-13 18 -42 2 -30 8 -43 18 -43 12 0 14 11 12 53 l-3 52 -77 1 -78 2 0 -54z"/>
<path d="M1963 1184 c-15 -24 -15 -29 -2 -53 11 -20 22 -26 49 -26 19 0 35 6
38 14 3 10 -3 12 -26 7 -22 -5 -31 -3 -35 8 -5 13 2 16 33 16 44 0 47 5 24 38
-21 30 -59 29 -81 -4z m65 -11 c2 -8 -5 -13 -17 -13 -12 0 -21 6 -21 16 0 18
31 15 38 -3z"/>
<path d="M2080 1153 c0 -40 4 -53 15 -53 11 0 15 11 15 40 0 29 4 40 15 40 8
0 15 6 15 13 0 8 -12 14 -30 14 -30 0 -30 -1 -30 -54z"/>
<path d="M2160 1155 c0 -42 3 -55 15 -55 12 0 15 13 15 55 0 42 -3 55 -15 55
-12 0 -15 -13 -15 -55z"/>
<path d="M2232 1198 c-7 -7 -12 -26 -12 -43 0 -17 5 -36 12 -43 17 -17 63 -15
79 4 11 14 9 15 -22 12 -29 -3 -34 0 -37 21 -5 30 13 50 30 33 7 -7 18 -12 25
-12 11 0 11 5 3 20 -12 23 -59 27 -78 8z"/>
<path d="M2350 1195 c-16 -20 -5 -32 14 -16 15 12 36 8 36 -7 0 -4 -13 -13
-30 -19 -20 -7 -30 -18 -30 -32 0 -17 6 -20 49 -19 l49 1 -6 41 c-2 23 -9 47
-15 54 -13 17 -52 15 -67 -3z m50 -60 c0 -8 -6 -15 -14 -15 -17 0 -28 14 -19
24 12 12 33 6 33 -9z"/>
<path d="M2460 1154 c0 -40 4 -54 14 -54 10 0 16 14 18 43 2 29 8 42 18 42 10
0 16 -13 18 -42 2 -30 8 -43 18 -43 12 0 14 11 12 53 l-3 52 -47 2 -48 2 0
-55z"/>
<path d="M1208 973 c8 -3 12 -27 12 -73 0 -45 -4 -70 -12 -73 -7 -3 7 -5 32
-5 25 0 39 2 33 5 -16 6 -18 140 -3 145 6 2 -8 4 -32 4 -24 1 -37 -1 -30 -3z"/>
<path d="M1623 968 c2 -7 10 -13 17 -13 7 0 15 6 18 13 2 7 -5 12 -18 12 -13
0 -20 -5 -17 -12z"/>
<path d="M1544 958 c-11 -17 -5 -110 7 -125 15 -18 49 -17 49 2 0 8 -7 15 -15
15 -10 0 -15 11 -15 35 0 27 4 35 18 35 16 1 16 1 0 11 -10 5 -18 17 -18 24 0
18 -16 20 -26 3z"/>
<path d="M1694 958 c-10 -16 -6 -96 6 -119 10 -19 40 -26 53 -12 4 3 -2 12
-13 20 -26 18 -28 73 -2 73 16 1 16 1 0 11 -10 5 -18 17 -18 24 0 18 -16 20
-26 3z"/>
<path d="M1910 951 c0 -11 -6 -22 -12 -24 -10 -4 -10 -6 0 -6 7 -1 12 -16 12
-39 0 -21 5 -43 12 -50 17 -17 48 -15 48 3 0 8 -6 14 -12 13 -8 -2 -14 11 -16
34 -2 28 1 37 15 41 17 4 17 5 1 6 -11 1 -18 9 -18 21 0 11 -7 20 -15 20 -8 0
-15 -9 -15 -19z"/>
<path d="M1333 932 c-33 -3 -33 -4 -33 -58 0 -40 4 -54 14 -54 10 0 16 14 18
42 2 31 8 44 21 46 14 3 17 -4 17 -42 0 -34 4 -46 15 -46 11 0 15 12 15 50 0
56 -13 68 -67 62z"/>
<path d="M1448 929 c-29 -16 -22 -49 12 -60 35 -13 30 -32 -6 -23 -29 7 -33
-12 -4 -21 58 -18 87 44 30 64 -16 5 -30 13 -30 17 0 3 14 4 30 1 34 -7 40 7
11 23 -23 12 -22 12 -43 -1z"/>
<path d="M2013 929 c-27 -10 -39 -49 -24 -78 16 -29 58 -38 79 -18 19 20 8 35
-13 17 -20 -17 -42 1 -40 32 1 15 8 23 21 23 10 0 18 -6 17 -12 -2 -7 6 -13
17 -13 23 0 25 10 8 32 -18 21 -39 27 -65 17z"/>
<path d="M1626 878 c1 -38 6 -53 15 -53 10 0 15 16 17 53 3 45 0 52 -15 52
-15 0 -18 -8 -17 -52z"/>
<path d="M1782 878 l3 -53 43 -1 42 -1 0 54 c0 39 -4 53 -14 53 -10 0 -16 -14
-18 -42 -2 -24 -7 -43 -13 -43 -5 0 -11 19 -13 43 -2 29 -8 42 -18 42 -12 0
-14 -11 -12 -52z"/>
<path d="M1338 683 c-18 -38 -12 -133 8 -133 10 0 14 12 14 45 0 31 5 47 18
54 16 10 15 10 -3 11 -19 1 -19 1 -2 14 23 18 22 36 -3 36 -12 0 -25 -11 -32
-27z"/>
<path d="M1934 699 c-10 -17 13 -36 27 -22 12 12 4 33 -11 33 -5 0 -12 -5 -16
-11z"/>
<path d="M1469 625 c-23 -68 -24 -75 -8 -75 9 0 19 7 23 15 3 8 16 15 30 15
13 0 26 -7 30 -15 7 -18 36 -20 35 -2 0 6 -10 39 -22 72 -16 43 -28 61 -42 63
-17 2 -24 -10 -46 -73z m61 -17 c0 -11 -8 -18 -20 -18 -13 0 -18 5 -15 15 16
51 16 50 25 35 6 -8 10 -23 10 -32z"/>
<path d="M1810 625 c0 -60 3 -75 15 -75 11 0 15 11 15 38 0 43 6 53 26 45 9
-3 14 -20 14 -44 0 -28 4 -39 15 -39 11 0 15 12 15 44 0 48 -18 71 -50 63 -16
-4 -20 0 -20 19 0 15 -6 24 -15 24 -12 0 -15 -15 -15 -75z"/>
<path d="M2011 691 c-10 -6 -14 -25 -13 -58 3 -68 10 -83 38 -83 27 0 32 15 9
24 -21 8 -19 62 3 75 15 9 16 10 0 11 -9 0 -18 9 -20 20 -2 14 -7 17 -17 11z"/>
<path d="M2343 693 c-7 -3 -13 -11 -13 -19 0 -8 -6 -14 -12 -14 -10 0 -10 -2
-1 -8 6 -4 13 -28 15 -52 3 -41 6 -45 31 -48 15 -2 27 1 27 7 0 6 -7 11 -15
11 -11 0 -15 11 -15 40 0 25 5 40 13 40 8 0 9 2 1 8 -7 4 -13 14 -15 23 -2 9
-10 14 -16 12z"/>
<path d="M1222 653 c-7 -3 -18 -16 -23 -30 -22 -59 59 -102 95 -51 21 30 20
44 -4 68 -20 20 -42 24 -68 13z m48 -28 c16 -19 3 -55 -20 -55 -23 0 -33 26
-20 51 13 23 23 24 40 4z"/>
<path d="M1610 604 c0 -41 4 -54 15 -54 11 0 15 11 15 35 0 22 6 38 15 41 26
10 16 29 -15 30 -30 1 -30 1 -30 -52z"/>
<path d="M1700 640 c-24 -24 -25 -38 -4 -68 18 -26 65 -30 85 -6 11 14 9 15
-23 9 -31 -6 -37 -4 -43 15 -9 29 19 60 37 42 7 -7 19 -12 27 -12 11 0 10 4
-4 20 -10 11 -26 20 -37 20 -10 0 -27 -9 -38 -20z"/>
<path d="M1937 653 c-4 -3 -7 -28 -7 -55 0 -36 4 -48 15 -48 12 0 15 13 15 55
0 51 -7 65 -23 48z"/>
<path d="M2098 649 c-21 -12 -24 -69 -6 -87 17 -17 63 -15 79 4 11 14 9 15
-24 9 -30 -6 -37 -4 -37 9 0 12 9 16 35 16 39 0 46 17 17 43 -21 19 -39 21
-64 6z m50 -27 c2 -7 -6 -12 -17 -12 -21 0 -27 11 -14 24 9 9 26 2 31 -12z"/>
<path d="M2216 644 c-19 -18 -21 -65 -4 -82 17 -17 63 -15 78 3 11 13 8 15
-21 13 -29 -3 -34 0 -37 21 -5 33 11 46 36 30 27 -17 43 -2 18 17 -26 18 -51
18 -70 -2z"/>
<path d="M2412 648 c-20 -20 -14 -37 18 -53 17 -9 28 -20 25 -25 -4 -6 -14 -5
-25 2 -21 14 -39 3 -23 -13 6 -6 26 -9 44 -7 27 2 35 8 37 26 3 18 -3 25 -27
33 -41 14 -40 30 2 23 30 -5 31 -5 13 10 -24 19 -48 20 -64 4z"/>
</g>
</svg>
