<?xml version="1.0" standalone="no"?>
<!DOCTYPE svg PUBLIC "-//W3C//DTD SVG 20010904//EN"
 "http://www.w3.org/TR/2001/REC-SVG-20010904/DTD/svg10.dtd">
<svg version="1.0" xmlns="http://www.w3.org/2000/svg"
 width="217.000000pt" height="232.000000pt" viewBox="0 0 217.000000 232.000000"
 preserveAspectRatio="xMidYMid meet">

<g transform="translate(0.000000,232.000000) scale(0.100000,-0.100000)"
fill="#000000" stroke="none">
<path d="M406 2239 l-56 -60 0 -90 c0 -49 -2 -89 -5 -89 -2 0 -30 12 -60 27
l-56 28 -59 -65 -59 -65 -1 -138 0 -138 103 84 102 85 35 -62 c18 -33 58 -106
87 -160 l53 -99 0 -169 0 -168 60 -30 60 -30 0 285 0 284 60 63 59 63 1 -105
0 -104 60 59 60 59 0 110 0 110 60 61 60 61 -244 127 c-134 70 -248 127 -254
127 -5 0 -35 -27 -66 -61z m237 -331 c26 -49 45 -88 42 -88 -2 0 -63 31 -135
69 l-131 68 67 56 68 56 21 -37 c11 -20 42 -76 68 -124z"/>
<path d="M127 1634 l-88 -75 3 -156 3 -155 173 -90 c95 -50 175 -88 177 -86 2
2 5 77 5 165 l2 162 -84 155 c-45 86 -87 156 -93 156 -5 0 -49 -34 -98 -76z
m106 -239 c32 -16 37 -23 37 -53 0 -27 -10 -44 -55 -90 l-55 -57 0 117 c0 131
-6 123 73 83z"/>
<path d="M788 1526 c-78 -87 -78 -106 2 -146 l60 -30 0 120 c0 66 -1 120 -2
120 -2 0 -29 -29 -60 -64z"/>
<path d="M30 1026 c0 -29 4 -36 20 -36 19 0 20 -7 20 -140 0 -133 -1 -140 -20
-140 -16 0 -20 -7 -20 -35 l0 -35 80 0 80 0 0 35 c0 24 -5 35 -15 35 -11 0
-15 11 -15 40 l0 40 56 0 c48 0 60 4 84 28 50 50 50 172 -1 218 -18 16 -40 20
-145 22 l-124 4 0 -36z m198 -44 c18 -12 26 -75 13 -101 -9 -15 -21 -21 -46
-21 l-35 0 0 65 c0 64 0 65 28 65 15 0 33 -4 40 -8z"/>
<path d="M1391 1042 c-13 -25 -3 -60 20 -67 44 -14 78 21 64 65 -9 27 -70 28
-84 2z"/>
<path d="M525 934 c-24 -8 -41 -10 -43 -4 -2 6 -28 10 -58 10 -53 0 -54 0 -54
-30 0 -20 5 -30 15 -30 12 0 15 -17 15 -90 0 -73 -3 -90 -15 -90 -10 0 -15
-10 -15 -30 l0 -30 75 0 75 0 0 30 c0 20 -5 30 -15 30 -12 0 -15 15 -15 79 0
86 4 91 61 91 26 0 29 3 29 34 0 19 -3 37 -8 39 -4 3 -25 -1 -47 -9z"/>
<path d="M670 937 c-47 -16 -70 -63 -70 -143 0 -120 34 -157 142 -156 70 1 78
5 78 42 0 29 0 29 -50 23 -57 -7 -80 6 -80 43 0 23 3 24 75 24 l75 0 0 44 c0
25 -4 56 -10 70 -19 51 -95 76 -160 53z m79 -79 c11 -30 6 -38 -30 -38 -24 0
-29 4 -29 24 0 39 46 49 59 14z"/>
<path d="M1026 943 c-3 -4 -40 -6 -81 -4 l-75 2 0 -31 c0 -23 4 -30 20 -30 19
0 20 -7 20 -90 0 -83 -1 -90 -20 -90 -16 0 -20 -7 -20 -30 l0 -30 80 0 80 0 0
29 c0 20 -6 30 -20 34 -19 5 -21 12 -18 89 3 73 5 83 22 86 35 7 46 -25 46
-135 l0 -103 60 0 c59 0 60 0 60 29 0 20 -6 30 -20 34 -19 5 -21 12 -18 89 3
73 5 83 22 86 35 7 46 -25 46 -135 l0 -103 60 0 c59 0 60 0 60 29 0 20 -6 30
-20 34 -18 5 -20 14 -20 97 0 50 -4 100 -10 110 -16 29 -71 43 -120 30 -30 -8
-51 -8 -72 -1 -36 13 -52 14 -62 4z"/>
<path d="M1612 939 c-50 -15 -72 -59 -72 -147 0 -84 16 -124 57 -140 64 -26
128 -19 164 17 28 28 29 33 29 119 0 104 -16 134 -78 152 -43 12 -56 12 -100
-1z m76 -68 c17 -10 27 -79 18 -124 -7 -37 -31 -51 -60 -35 -24 14 -23 143 2
157 21 13 24 13 40 2z"/>
<path d="M1897 940 c-38 -12 -54 -26 -62 -57 -10 -41 13 -80 67 -113 33 -21
48 -36 46 -48 -5 -26 -38 -28 -38 -3 0 18 -6 21 -40 21 l-40 0 0 -44 0 -44 45
-10 c167 -36 226 94 83 184 -38 24 -45 43 -20 52 7 2 12 -3 12 -12 0 -12 10
-16 40 -16 40 0 40 0 40 40 0 37 -2 40 -37 49 -44 12 -57 13 -96 1z"/>
<path d="M1350 910 c0 -23 4 -30 20 -30 19 0 20 -7 20 -90 0 -73 -3 -90 -15
-90 -10 0 -15 -10 -15 -30 l0 -30 75 0 75 0 0 29 c0 20 -6 30 -20 34 -19 5
-20 14 -20 121 l0 116 -60 0 -60 0 0 -30z"/>
<path d="M30 535 c0 -28 4 -35 20 -35 19 0 20 -7 20 -140 0 -133 -1 -140 -20
-140 -16 0 -20 -7 -20 -35 l0 -35 80 0 80 0 0 35 c0 24 -5 35 -15 35 -12 0
-15 13 -15 55 l0 55 50 0 c33 0 50 -4 51 -12 5 -92 4 -98 -13 -98 -14 0 -18
-8 -18 -35 l0 -35 80 0 80 0 0 35 c0 28 -4 35 -20 35 -19 0 -20 7 -20 140 0
133 1 140 20 140 16 0 20 7 20 35 l0 35 -80 0 -80 0 0 -35 c0 -24 5 -35 15
-35 11 0 15 -12 15 -50 l0 -50 -50 0 -50 0 0 50 c0 38 4 50 15 50 10 0 15 11
15 35 l0 35 -80 0 -80 0 0 -35z"/>
<path d="M466 554 c-11 -30 -6 -53 15 -64 46 -25 92 17 68 62 -13 23 -74 25
-83 2z"/>
<path d="M1460 535 c0 -28 4 -35 20 -35 19 0 20 -7 20 -145 0 -140 -1 -145
-21 -145 -16 0 -20 -5 -17 -27 3 -28 4 -28 81 -31 l77 -3 0 29 c0 21 -6 31
-20 35 -19 5 -20 14 -20 181 l0 176 -60 0 -60 0 0 -35z"/>
<path d="M1996 485 c-5 -26 -12 -35 -26 -35 -15 0 -20 -7 -20 -29 0 -18 6 -31
15 -33 12 -2 16 -22 19 -93 2 -55 8 -99 17 -113 17 -27 62 -41 107 -34 30 4
33 7 30 36 -2 25 -7 30 -24 28 -35 -5 -45 20 -42 100 l3 73 33 3 c28 3 32 7
32 33 0 27 -3 29 -35 29 -33 0 -35 2 -35 35 0 33 -2 35 -34 35 -31 0 -34 -3
-40 -35z"/>
<path d="M430 421 c0 -20 6 -30 20 -34 18 -5 20 -14 20 -87 0 -73 -2 -82 -20
-87 -14 -4 -20 -14 -20 -34 l0 -29 75 0 75 0 0 30 c0 20 -5 30 -15 30 -12 0
-15 20 -15 120 l0 120 -60 0 c-59 0 -60 0 -60 -29z"/>
<path d="M645 425 c-48 -47 -28 -105 51 -151 48 -28 56 -57 16 -62 -17 -3 -22
2 -22 17 0 17 -6 21 -35 21 -35 0 -35 0 -35 -45 0 -48 -5 -44 73 -60 33 -6
100 12 114 31 18 24 16 85 -2 111 -9 12 -33 32 -55 44 -24 14 -40 30 -40 41 0
22 18 24 26 3 4 -10 20 -15 45 -15 38 0 39 1 39 35 0 43 -20 55 -95 55 -46 0
-60 -4 -80 -25z"/>
<path d="M850 421 c0 -20 6 -30 20 -34 19 -5 20 -14 20 -146 0 -117 -3 -143
-15 -147 -9 -4 -15 -19 -15 -35 l0 -29 75 0 75 0 0 29 c0 21 -6 30 -21 34 -15
4 -20 12 -17 29 3 19 9 23 44 25 89 3 118 45 112 164 -2 59 -8 84 -24 106 -21
28 -23 28 -138 30 l-116 3 0 -29z m179 -45 c7 -9 11 -42 9 -88 l-3 -73 -30 0
-30 0 -3 74 c-2 41 -1 80 2 88 7 17 40 17 55 -1z"/>
<path d="M1199 421 c-28 -28 -29 -33 -29 -125 0 -84 3 -98 23 -120 23 -28 24
-28 170 -27 l77 1 0 30 c0 20 -5 30 -15 30 -12 0 -15 19 -15 110 0 109 0 111
-26 120 -14 6 -55 10 -90 10 -59 0 -68 -3 -95 -29z m116 -121 c0 -76 -2 -85
-19 -88 -29 -6 -46 25 -46 86 0 66 14 94 43 90 21 -3 22 -8 22 -88z"/>
<path d="M1630 420 c0 -19 5 -30 14 -30 8 0 30 -46 56 -120 40 -115 41 -121
26 -146 -9 -13 -30 -27 -46 -31 -26 -5 -30 -10 -30 -40 l0 -35 43 7 c85 14 96
29 161 211 36 100 59 150 70 152 10 2 16 14 16 33 l0 29 -75 0 c-74 0 -75 0
-75 -26 0 -15 6 -32 14 -38 11 -9 10 -20 -4 -66 l-17 -55 -18 60 c-12 42 -14
60 -6 63 6 2 11 17 11 33 l0 29 -70 0 -70 0 0 -30z"/>
</g>
</svg>
